RobotoFlexCondensed-Light.ufo
<glyph name="exclam" format="2">
  <advance width="540"/>
  <unicode hex="0021"/>
  <outline>
    <contour>
      <point x="186.0" y="74.84215686273667" type="qcurve" smooth="yes"/>
      <point x="186.0" y="114.66732026142667"/>
      <point x="229.50032679738" y="171.68431372547334"/>
      <point x="270.20915032678334" y="171.68431372547334" type="qcurve" smooth="yes"/>
      <point x="310.9179738561867" y="171.68431372547334"/>
      <point x="353.7016339869" y="114.66732026142667"/>
      <point x="353.7016339869" y="74.84215686273667" type="qcurve" smooth="yes"/>
      <point x="353.7016339869" y="35.016993464046664"/>
      <point x="310.9179738561867" y="-22.0"/>
      <point x="270.20915032678334" y="-22.0" type="qcurve" smooth="yes"/>
      <point x="229.99215686273666" y="-22.0"/>
      <point x="186.0" y="35.016993464046664"/>
    </contour>
    <contour>
      <point x="220.97516339869" y="395.50065359476" type="line"/>
      <point x="212.28333333333333" y="1456.0" type="line"/>
      <point x="327.06830065356667" y="1456.0" type="line"/>
      <point x="318.15163398690004" y="395.50065359476" type="line"/>
    </contour>
  </outline>
</glyph>
<glyph name="quotedbl" format="2">
  <advance width="638"/>
  <unicode hex="0022"/>
  <outline>
    <contour>
      <point x="109.65216339869" y="1065.70720261441" type="line"/>
      <point x="100.0" y="1346.9738431372632" type="line"/>
      <point x="100.0" y="1456.0" type="line"/>
      <point x="219.27498039213998" y="1456.0" type="line"/>
      <point x="219.27498039213998" y="1346.9738431372632" type="line"/>
      <point x="209.04798039214" y="1065.70720261441" type="line"/>
    </contour>
    <contour>
      <point x="428.92714379083003" y="1065.70720261441" type="line"/>
      <point x="419.27498039214" y="1346.9738431372632" type="line"/>
      <point x="419.27498039214" y="1456.0" type="line"/>
      <point x="537.9751241830417" y="1456.0" type="line"/>
      <point x="537.9751241830417" y="1346.9738431372632" type="line"/>
      <point x="527.7481241830417" y="1065.70720261441" type="line"/>
    </contour>
  </outline>
</glyph>
<glyph name="numbersign" format="2">
  <advance width="1416"/>
  <unicode hex="0023"/>
  <outline>
    <contour>
      <point x="226.626091503275" y="-20.0" type="line"/>
      <point x="700.9261568627367" y="1444.1209150326783" type="line"/>
      <point x="794.2389673202333" y="1444.1209150326783" type="line"/>
      <point x="320.51373856208164" y="-20.0" type="line"/>
    </contour>
    <contour>
      <point x="652.9694771241634" y="-20.0" type="line"/>
      <point x="1126.8093725490533" y="1444.1209150326783" type="line"/>
      <point x="1221.6806797385734" y="1444.1209150326783" type="line"/>
      <point x="747.840784313755" y="-20.0" type="line"/>
    </contour>
    <contour>
      <point x="80.69882352940334" y="430.9738431372634" type="line"/>
      <point x="80.69882352940334" y="526.23032679738" type="line"/>
      <point x="1262.7400653594616" y="526.23032679738" type="line"/>
      <point x="1262.7400653594616" y="430.9738431372634" type="line"/>
    </contour>
    <contour>
      <point x="185.00820915029166" y="897.8905882352983" type="line"/>
      <point x="185.00820915029166" y="993.147071895415" type="line"/>
      <point x="1366.6242875817318" y="993.147071895415" type="line"/>
      <point x="1366.6242875817318" y="897.8905882352983" type="line"/>
    </contour>
  </outline>
</glyph>
<glyph name="ampersand" format="2">
  <advance width="1069"/>
  <unicode hex="0026"/>
  <outline>
    <contour>
      <point x="80.0" y="380.0" type="qcurve" smooth="yes"/>
      <point x="78.93333333333334" y="528.4081699346433"/>
      <point x="232.961" y="732.5223660131"/>
      <point x="381.37148366011667" y="839.3961568627367" type="qcurve" smooth="yes"/>
      <point x="506.57105882350834" y="935.40232679738" type="line" smooth="yes"/>
      <point x="575.97650980393" y="986.5836601307134"/>
      <point x="638.7709673202334" y="1095.6940130719067"/>
      <point x="638.7709673202334" y="1173.8896732026199" type="qcurve" smooth="yes"/>
      <point x="638.7709673202334" y="1270.848"/>
      <point x="558.9655424836251" y="1385.5155163398833"/>
      <point x="481.51226143791837" y="1385.5155163398833" type="qcurve" smooth="yes"/>
      <point x="403.53699346404665" y="1385.5155163398833"/>
      <point x="314.75091503267834" y="1260.848"/>
      <point x="314.75091503267834" y="1159.0163398692866" type="qcurve" smooth="yes"/>
      <point x="314.75091503267834" y="1084.39650980393"/>
      <point x="371.8486862745267" y="947.01101960786"/>
      <point x="459.8169738561867" y="824.0960130719067" type="qcurve" smooth="yes"/>
      <point x="1045.730784313755" y="0.0" type="line"/>
      <point x="915.0596862745267" y="0.0" type="line"/>
      <point x="374.68416993464336" y="759.80567320262" type="line" smooth="yes"/>
      <point x="275.6433921568416" y="897.9031764705967"/>
      <point x="203.41128104577834" y="1063.8896732026199"/>
      <point x="203.41128104577834" y="1159.0163398692866" type="qcurve" smooth="yes"/>
      <point x="203.41128104577834" y="1310.3196601307131"/>
      <point x="359.03683660131003" y="1486.0"/>
      <point x="481.51226143791837" y="1486.0" type="qcurve" smooth="yes"/>
      <point x="601.5616993464333" y="1486.0"/>
      <point x="748.6425882352983" y="1321.87665359476"/>
      <point x="748.6425882352983" y="1179.1310065359535" type="qcurve" smooth="yes"/>
      <point x="748.6425882352983" y="1069.3378431372635"/>
      <point x="648.2033137254733" y="913.4883398692866"/>
      <point x="571.2233333333334" y="853.77949019607" type="qcurve" smooth="yes"/>
      <point x="438.810620915065" y="754.5130065359533" type="line" smooth="yes"/>
      <point x="304.358764705895" y="658.4428758169583"/>
      <point x="191.58496732023332" y="493.35849673202335"/>
      <point x="191.4416339869" y="380.4918300653567" type="qcurve" smooth="yes"/>
      <point x="191.58496732023332" y="245.20032679738"/>
      <point x="335.8936993464333" y="80.48448366011667"/>
      <point x="456.53345098042166" y="80.48448366011667" type="qcurve" smooth="yes"/>
      <point x="625.85450980393" y="80.48448366011667"/>
      <point x="871.2905228758368" y="399.3569934640467"/>
      <point x="871.2905228758368" y="674.0" type="qcurve"/>
      <point x="978.1628235294033" y="674.0" type="line"/>
      <point x="978.1628235294033" y="380.0"/>
      <point x="677.7596601307133" y="-20.0"/>
      <point x="456.53345098042166" y="-20.0" type="qcurve" smooth="yes"/>
      <point x="279.86671895422165" y="-20.0"/>
      <point x="81.06666666666666" y="205.04084967321666"/>
    </contour>
  </outline>
</glyph>
<glyph name="quotesingle" format="2">
  <advance width="332"/>
  <unicode hex="0027"/>
  <outline>
    <contour>
      <point x="114.39183006535667" y="1065.5065359477435" type="line"/>
      <point x="105.01666666666667" y="1347.17450980393" type="line"/>
      <point x="105.01666666666667" y="1456.0" type="line"/>
      <point x="227.17614379083" y="1456.0" type="line"/>
      <point x="227.17614379083" y="1347.17450980393" type="line"/>
      <point x="217.22614379083" y="1065.5065359477435" type="line"/>
    </contour>
  </outline>
</glyph>
<glyph name="parenleft" format="2">
  <advance width="621"/>
  <unicode hex="0028"/>
  <outline>
    <contour>
      <point x="561.5457516339884" y="-436.0" type="line"/>
      <point x="367.4665359477433" y="-353.64213071892334"/>
      <point x="124.0" y="94.98856209148501"/>
      <point x="124.0" y="515.0" type="qcurve" smooth="yes"/>
      <point x="124.0" y="525.0" type="line" smooth="yes"/>
      <point x="124.0" y="923.3336601307134"/>
      <point x="367.4665359477433" y="1393.6421307189232"/>
      <point x="561.5457516339884" y="1476.0" type="qcurve"/>
      <point x="561.5457516339884" y="1398.3522875817316" type="line"/>
      <point x="420.72352941178997" y="1327.1454248366083"/>
      <point x="239.57980392154334" y="923.8874509804217"/>
      <point x="239.57980392154334" y="532.0" type="qcurve" smooth="yes"/>
      <point x="239.57980392154334" y="508.0" type="line" smooth="yes"/>
      <point x="239.57980392154334" y="98.26026143791833"/>
      <point x="420.72352941178997" y="-285.712091503275"/>
      <point x="561.5457516339884" y="-356.91895424839834" type="qcurve"/>
    </contour>
  </outline>
</glyph>
<glyph name="parenright" format="2">
  <advance width="621"/>
  <unicode hex="0029"/>
  <outline>
    <contour>
      <point x="59.322222222198334" y="-436.0" type="qcurve"/>
      <point x="59.322222222198334" y="-354.76895424839836" type="line"/>
      <point x="200.86111111113502" y="-283.56209150327504"/>
      <point x="381.0" y="98.26026143791833"/>
      <point x="381.0" y="508.0" type="qcurve" smooth="yes"/>
      <point x="381.0" y="532.0" type="line" smooth="yes"/>
      <point x="381.0" y="923.8874509804217"/>
      <point x="200.86111111113502" y="1322.8454248366083"/>
      <point x="59.322222222198334" y="1394.0522875817317" type="qcurve"/>
      <point x="59.322222222198334" y="1476.0" type="line"/>
      <point x="252.96993464053833" y="1393.32679738559"/>
      <point x="497.15464052285336" y="923.3336601307134"/>
      <point x="497.15464052285336" y="525.0" type="qcurve" smooth="yes"/>
      <point x="497.15464052285336" y="515.0" type="line" smooth="yes"/>
      <point x="497.15464052285336" y="94.98856209148501"/>
      <point x="252.96993464053833" y="-353.32679738559"/>
    </contour>
  </outline>
</glyph>
<glyph name="asterisk" format="2">
  <advance width="989"/>
  <unicode hex="002A"/>
  <outline>
    <contour>
      <point x="58.0" y="1114.2557385620817" type="line"/>
      <point x="91.94082352940333" y="1228.1518823529116" type="line"/>
      <point x="455.883091503275" y="1090.4324052287484" type="line"/>
      <point x="438.584091503275" y="1476.0" type="line"/>
      <point x="550.7223921568417" y="1476.0" type="line"/>
      <point x="534.4900588235083" y="1090.4324052287484" type="line"/>
      <point x="897.3656601307134" y="1228.1518823529116" type="line"/>
      <point x="931.3064836601167" y="1114.2557385620817" type="line"/>
      <point x="557.0280522875549" y="1014.4447581699417" type="line"/>
      <point x="800.1088431372633" y="714.1551503267833" type="line"/>
      <point x="709.5240326797666" y="644.4158300653567" type="line"/>
      <point x="494.65324183005833" y="967.4327712418483" type="line"/>
      <point x="279.7824509804217" y="644.4158300653567" type="line"/>
      <point x="190.26430718952" y="714.1551503267833" type="line"/>
      <point x="432.27843137256167" y="1014.4447581699417" type="line"/>
    </contour>
  </outline>
</glyph>
<glyph name="plus" format="2">
  <advance width="1356"/>
  <unicode hex="002B"/>
  <outline>
    <contour>
      <point x="189.09643137256165" y="622.20283660131" type="line"/>
      <point x="189.09643137256165" y="728.34749019607" type="line"/>
      <point x="1167.0774248366083" y="728.34749019607" type="line"/>
      <point x="1167.0774248366083" y="622.20283660131" type="line"/>
    </contour>
    <contour>
      <point x="623.3054444444683" y="134.58585620917" type="line"/>
      <point x="623.3054444444683" y="1213.41414379083" type="line"/>
      <point x="732.8684117647017" y="1213.41414379083" type="line"/>
      <point x="732.8684117647017" y="134.58585620917" type="line"/>
    </contour>
  </outline>
</glyph>
<glyph name="comma" format="2">
  <advance width="520"/>
  <unicode hex="002C"/>
  <outline>
    <contour>
      <point x="142.98167320262002" y="-172.80632679738" type="line"/>
      <point x="176.04333333333332" y="-123.11849673202333"/>
      <point x="210.0" y="-15.609503267976667"/>
      <point x="210.0" y="55.204993464046666" type="qcurve" smooth="yes"/>
      <point x="210.0" y="175.79898039214" type="line"/>
      <point x="330.25864052285334" y="175.79898039214" type="line"/>
      <point x="330.25864052285334" y="55.204993464046666" type="line" smooth="yes"/>
      <point x="330.25864052285334" y="-32.202666666666666"/>
      <point x="268.86381699345" y="-170.52615686273668"/>
      <point x="217.00582352940333" y="-222.72665359476" type="qcurve"/>
    </contour>
  </outline>
</glyph>
<glyph name="hyphen" format="2">
  <advance width="513"/>
  <unicode hex="002D"/>
  <outline>
    <contour>
      <point x="14.496732026128335" y="581.3043398692867" type="line"/>
      <point x="14.496732026128335" y="690.4836601307134" type="line"/>
      <point x="497.94381699344996" y="690.4836601307134" type="line"/>
      <point x="497.94381699344996" y="581.3043398692867" type="line"/>
    </contour>
  </outline>
</glyph>
<glyph name="period" format="2">
  <advance width="493"/>
  <unicode hex="002E"/>
  <outline>
    <contour>
      <point x="160.0" y="77.97549019607" type="qcurve" smooth="yes"/>
      <point x="160.0" y="119.65848366011667"/>
      <point x="205.12882352940335" y="178.44281045749668"/>
      <point x="247.31831372547333" y="178.44281045749668" type="qcurve" smooth="yes"/>
      <point x="287.94930718951997" y="178.44281045749668"/>
      <point x="332.01146405225666" y="119.65848366011667"/>
      <point x="332.01146405225666" y="77.40065359476" type="qcurve" smooth="yes"/>
      <point x="332.01146405225666" y="36.784326797380004"/>
      <point x="287.94930718951997" y="-22.0"/>
      <point x="245.75981699345" y="-22.0" type="qcurve" smooth="yes"/>
      <point x="205.12882352940335" y="-22.0"/>
      <point x="160.0" y="36.784326797380004"/>
    </contour>
  </outline>
</glyph>
<glyph name="slash" format="2">
  <advance width="482"/>
  <unicode hex="002F"/>
  <outline>
    <contour>
      <point x="-111.31830065356667" y="-125.0" type="line"/>
      <point x="464.31905882350827" y="1456.0" type="line"/>
      <point x="594.2552941176133" y="1456.0" type="line"/>
      <point x="17.519607843158333" y="-125.0" type="line"/>
    </contour>
  </outline>
</glyph>
<glyph name="zero" format="2">
  <advance width="1087"/>
  <unicode hex="0030"/>
  <outline>
    <contour>
      <point x="152.31503267976666" y="429.40980392154336" type="qcurve" smooth="yes"/>
      <point x="152.31503267976666" y="1025.1568627451234" type="line" smooth="yes"/>
      <point x="152.31503267976666" y="1239.2199346405384"/>
      <point x="358.12091503267834" y="1486.0"/>
      <point x="543.5928104574966" y="1486.0" type="qcurve" smooth="yes"/>
      <point x="728.49803921572" y="1486.0"/>
      <point x="935.362418300655" y="1239.2199346405384"/>
      <point x="935.362418300655" y="1025.1568627451234" type="qcurve" smooth="yes"/>
      <point x="935.362418300655" y="429.40980392154336" type="line" smooth="yes"/>
      <point x="935.362418300655" y="216.49640522874833"/>
      <point x="728.49803921572" y="-30.0"/>
      <point x="543.5928104574966" y="-30.0" type="qcurve" smooth="yes"/>
      <point x="358.12091503267834" y="-30.0"/>
      <point x="152.31503267976666" y="216.49640522874833"/>
    </contour>
    <contour>
      <point x="268.8833333333333" y="422.27647058821003" type="line" smooth="yes"/>
      <point x="268.8833333333333" y="268.638562091485"/>
      <point x="408.65457516339166" y="73.30098039213999"/>
      <point x="543.5928104574966" y="73.30098039213999" type="qcurve" smooth="yes"/>
      <point x="678.5310457516016" y="73.30098039213999"/>
      <point x="819.285947712445" y="268.638562091485"/>
      <point x="819.285947712445" y="422.27647058821003" type="qcurve" smooth="yes"/>
      <point x="819.285947712445" y="1030.1401960784567" type="line" smooth="yes"/>
      <point x="819.285947712445" y="1184.2111111111349"/>
      <point x="679.2477124182683" y="1382.69901960786"/>
      <point x="543.5928104574966" y="1382.69901960786" type="qcurve" smooth="yes"/>
      <point x="407.937908496725" y="1382.69901960786"/>
      <point x="268.8833333333333" y="1184.2111111111349"/>
      <point x="268.8833333333333" y="1030.1401960784567" type="qcurve" smooth="yes"/>
    </contour>
  </outline>
</glyph>
<glyph name="one" format="2">
  <advance width="1087"/>
  <unicode hex="0031"/>
  <outline>
    <contour>
      <point x="544.3591503267834" y="0.0" type="line"/>
      <point x="544.3591503267834" y="1328.9421568627365" type="line"/>
      <point x="200.83104575160166" y="1204.29934640524" type="line"/>
      <point x="200.83104575160166" y="1317.7833333333333" type="line"/>
      <point x="626.3084967320233" y="1476.0" type="line"/>
      <point x="659.6441176470884" y="1476.0" type="line"/>
      <point x="659.6441176470884" y="0.0" type="line"/>
    </contour>
  </outline>
</glyph>
<glyph name="two" format="2">
  <advance width="1087"/>
  <unicode hex="0032"/>
  <outline>
    <contour>
      <point x="152.80686274512334" y="0.0" type="line"/>
      <point x="152.80686274512334" y="94.96764705880668" type="line"/>
      <point x="650.6307189542216" y="727.0683006535667" type="line" smooth="yes"/>
      <point x="727.5973856208883" y="826.0578431372634"/>
      <point x="823.3437908497084" y="1010.10032679738"/>
      <point x="823.3437908497084" y="1120.7330065359533" type="qcurve" smooth="yes"/>
      <point x="823.3437908497084" y="1231.19934640524"/>
      <point x="689.8222222221983" y="1383.4156862745267"/>
      <point x="564.70130718952" y="1382.69901960786" type="qcurve" smooth="yes"/>
      <point x="432.92091503267835" y="1381.9823529411933"/>
      <point x="268.46666666666664" y="1217.8398692810767"/>
      <point x="268.46666666666664" y="1040.4830065359533" type="qcurve" smooth="yes"/>
      <point x="268.46666666666664" y="1026.1830065359534" type="line"/>
      <point x="154.46503267976667" y="1026.1830065359534" type="line"/>
      <point x="154.46503267976667" y="1039.7663398692866" type="line" smooth="yes"/>
      <point x="154.46503267976667" y="1250.3153594771466"/>
      <point x="383.89509803922834" y="1486.0"/>
      <point x="564.70130718952" y="1486.0" type="qcurve" smooth="yes"/>
      <point x="739.2062091502917" y="1486.0"/>
      <point x="938.0620915032749" y="1276.74967320262"/>
      <point x="938.0620915032749" y="1124.99967320262" type="qcurve" smooth="yes"/>
      <point x="938.0620915032749" y="1000.5911764705967"/>
      <point x="842.4176470588067" y="804.1833333333334"/>
      <point x="730.8728758169583" y="661.7081699346434" type="qcurve" smooth="yes"/>
      <point x="276.161764705895" y="89.26601307190666" type="line"/>
      <point x="980.7960784313683" y="89.26601307190666" type="line"/>
      <point x="980.7960784313683" y="0.0" type="line"/>
    </contour>
  </outline>
</glyph>
<glyph name="three" format="2">
  <advance width="1087"/>
  <unicode hex="0033"/>
  <outline>
    <contour>
      <point x="123.7483660131" y="379.55032679738" type="qcurve" smooth="yes"/>
      <point x="123.7483660131" y="390.98366013071336" type="line"/>
      <point x="235.9" y="390.98366013071336" type="line"/>
      <point x="235.9" y="380.98366013071336" type="line" smooth="yes"/>
      <point x="235.9" y="234.97549019607"/>
      <point x="407.0303921568417" y="72.80915032678334"/>
      <point x="537.12647058821" y="72.80915032678334" type="qcurve" smooth="yes"/>
      <point x="660.0558823529117" y="72.80915032678334"/>
      <point x="834.9196078431584" y="233.31732026142666"/>
      <point x="834.9196078431584" y="387.3669934640467" type="qcurve" smooth="yes"/>
      <point x="834.9196078431584" y="551.1"/>
      <point x="635.2142222221984" y="707.02450980393"/>
      <point x="500.9973202614267" y="707.02450980393" type="qcurve" smooth="yes"/>
      <point x="387.76871895422164" y="707.02450980393" type="line"/>
      <point x="387.76871895422164" y="810.4836601307134" type="line"/>
      <point x="491.2281568627367" y="810.4836601307134" type="line" smooth="yes"/>
      <point x="620.8440653594618" y="810.4836601307134"/>
      <point x="786.9352941176134" y="963.9166666666666"/>
      <point x="786.9352941176134" y="1095.5915032679768" type="qcurve" smooth="yes"/>
      <point x="786.9352941176134" y="1235.0245098039302"/>
      <point x="645.5137254901749" y="1383.9075163398834"/>
      <point x="537.1551372548766" y="1383.50618300655" type="qcurve" smooth="yes"/>
      <point x="437.10686274512335" y="1383.1908496732167"/>
      <point x="272.3091503267833" y="1228.0826797385732"/>
      <point x="272.3091503267833" y="1099.0163398692866" type="qcurve" smooth="yes"/>
      <point x="272.3091503267833" y="1081.84967320262" type="line"/>
      <point x="161.09901960786" y="1081.84967320262" type="line"/>
      <point x="161.09901960786" y="1099.0163398692866" type="line" smooth="yes"/>
      <point x="161.09901960786" y="1264.52483660131"/>
      <point x="388.29771241826836" y="1486.0"/>
      <point x="537.1551372548766" y="1486.0" type="qcurve" smooth="yes"/>
      <point x="694.8977124182683" y="1486.0"/>
      <point x="902.2202614379183" y="1269.5081699346433"/>
      <point x="902.2202614379183" y="1099.5081699346433" type="qcurve" smooth="yes"/>
      <point x="902.2202614379183" y="994.9833333333333"/>
      <point x="791.30130718952" y="815.2833333333333"/>
      <point x="676.2653594771467" y="763.85" type="qcurve"/>
      <point x="676.2653594771467" y="759.85" type="line"/>
      <point x="793.7846405228534" y="731.4333333333333"/>
      <point x="952.2045751633917" y="543.3584967320234"/>
      <point x="952.2045751633917" y="383.57516339869" type="qcurve" smooth="yes"/>
      <point x="952.2045751633917" y="201.20849673202332"/>
      <point x="711.9647058823866" y="-30.0"/>
      <point x="537.12647058821" y="-30.716666666666665" type="qcurve" smooth="yes"/>
      <point x="377.09836601309996" y="-31.433333333333334"/>
      <point x="123.7483660131" y="191.89183006535666"/>
    </contour>
  </outline>
</glyph>
<glyph name="four" format="2">
  <advance width="1087"/>
  <unicode hex="0034"/>
  <outline>
    <contour>
      <point x="703.6336601307133" y="0.0" type="line"/>
      <point x="703.6336601307133" y="394.4166666666667" type="line"/>
      <point x="703.6336601307133" y="423.5" type="line"/>
      <point x="703.6336601307133" y="1200.3284313725617" type="line"/>
      <point x="694.50032679738" y="1200.3284313725617" type="line"/>
      <point x="192.02712418304168" y="459.00065359476" type="line"/>
      <point x="741.6310457516016" y="459.00065359476" type="line"/>
      <point x="778.8660130719067" y="459.00065359476" type="line"/>
      <point x="1007.789542483625" y="459.00065359476" type="line"/>
      <point x="1007.789542483625" y="357.2581699346433" type="line"/>
      <point x="68.94869281048" y="357.2581699346433" type="line"/>
      <point x="68.94869281048" y="453.05098039214" type="line"/>
      <point x="728.4830065359533" y="1456.0" type="line"/>
      <point x="813.860457516375" y="1456.0" type="line"/>
      <point x="813.860457516375" y="0.0" type="line"/>
    </contour>
  </outline>
</glyph>
<glyph name="five" format="2">
  <advance width="1087"/>
  <unicode hex="0035"/>
  <outline>
    <contour>
      <point x="129.41503267976665" y="363.8336601307133" type="qcurve" smooth="yes"/>
      <point x="129.41503267976665" y="375.98366013071336" type="line"/>
      <point x="240.28333333333333" y="375.98366013071336" type="line"/>
      <point x="240.28333333333333" y="365.98366013071336" type="line" smooth="yes"/>
      <point x="240.28333333333333" y="229.97549019607"/>
      <point x="407.27189542481835" y="72.80915032678334"/>
      <point x="542.5346405228534" y="72.80915032678334" type="qcurve" smooth="yes"/>
      <point x="677.6555555555316" y="72.80915032678334"/>
      <point x="838.586274509825" y="279.25882352940334"/>
      <point x="838.586274509825" y="465.0" type="qcurve" smooth="yes"/>
      <point x="838.586274509825" y="639.4163398692866"/>
      <point x="677.6555555555316" y="823.12418300655"/>
      <point x="543.1094771241633" y="823.12418300655" type="qcurve" smooth="yes"/>
      <point x="466.09084967321667" y="823.8408496732167"/>
      <point x="302.74640522874836" y="734.34901960786"/>
      <point x="259.086274509825" y="677.3483660131" type="qcurve"/>
      <point x="175.24934640524" y="716.8330065359534" type="line"/>
      <point x="248.54934640524" y="1456.0" type="line"/>
      <point x="889.8529411764918" y="1456.0" type="line"/>
      <point x="889.8529411764918" y="1348.2156862745267" type="line"/>
      <point x="344.52581699345" y="1348.2156862745267" type="line"/>
      <point x="285.82581699345" y="801.3807189542216" type="line"/>
      <point x="325.35196078428" y="851.2813725490533"/>
      <point x="482.07418300655" y="926.2166666666667"/>
      <point x="560.6107843137551" y="926.2166666666667" type="qcurve" smooth="yes"/>
      <point x="729.9316993464333" y="926.2166666666667"/>
      <point x="953.3045751633917" y="683.1833333333333"/>
      <point x="953.3045751633917" y="465.0" type="qcurve" smooth="yes"/>
      <point x="953.3045751633917" y="235.0"/>
      <point x="725.6062091502916" y="-30.0"/>
      <point x="542.5346405228534" y="-30.0" type="qcurve" smooth="yes"/>
      <point x="377.17352941179" y="-30.0"/>
      <point x="129.41503267976665" y="183.30849673202334"/>
    </contour>
  </outline>
</glyph>
<glyph name="six" format="2">
  <advance width="1087"/>
  <unicode hex="0036"/>
  <outline>
    <contour>
      <point x="123.513725490175" y="614.0" type="qcurve" smooth="yes"/>
      <point x="123.513725490175" y="644.0" type="line" smooth="yes"/>
      <point x="123.513725490175" y="1026.8666666666666"/>
      <point x="490.74869281048" y="1486.0"/>
      <point x="787.0830065359534" y="1486.0" type="qcurve" smooth="yes"/>
      <point x="805.5833333333334" y="1486.0" type="line"/>
      <point x="805.5833333333334" y="1382.69901960786" type="line"/>
      <point x="787.0830065359534" y="1382.69901960786" type="line" smooth="yes"/>
      <point x="551.2415032679767" y="1382.69901960786"/>
      <point x="236.23202614381333" y="1010.4078431372633"/>
      <point x="236.23202614381333" y="654.0" type="qcurve" smooth="yes"/>
      <point x="236.23202614381333" y="604.0" type="line" smooth="yes"/>
      <point x="236.23202614381333" y="313.6088235294033"/>
      <point x="430.1297385620817" y="72.80915032678334"/>
      <point x="574.32581699345" y="72.80915032678334" type="qcurve" smooth="yes"/>
      <point x="718.438888888865" y="72.80915032678334"/>
      <point x="869.4441176470883" y="278.25882352940334"/>
      <point x="869.4441176470883" y="464.0" type="qcurve" smooth="yes"/>
      <point x="869.4441176470883" y="639.84967320262"/>
      <point x="718.438888888865" y="832.19934640524"/>
      <point x="577.9091503267833" y="832.19934640524" type="qcurve" smooth="yes"/>
      <point x="438.6300653594617" y="832.19934640524"/>
      <point x="230.23202614381333" y="625.8830065359533"/>
      <point x="230.23202614381333" y="464.0" type="qcurve"/>
      <point x="182.96470588238665" y="464.0" type="line"/>
      <point x="182.96470588238665" y="671.9584967320234"/>
      <point x="418.237908496725" y="935.0084967320233"/>
      <point x="594.7601307189234" y="935.0084967320233" type="qcurve" smooth="yes"/>
      <point x="776.0650326797667" y="935.0084967320233"/>
      <point x="984.162418300655" y="674.82516339869"/>
      <point x="984.162418300655" y="464.0" type="qcurve" smooth="yes"/>
      <point x="984.162418300655" y="244.0"/>
      <point x="758.9725490195783" y="-30.0"/>
      <point x="574.8176470588066" y="-30.0" type="qcurve" smooth="yes"/>
      <point x="380.8542483660117" y="-30.0"/>
      <point x="123.513725490175" y="289.76666666666665"/>
    </contour>
  </outline>
</glyph>
<glyph name="seven" format="2">
  <advance width="1087"/>
  <unicode hex="0037"/>
  <outline>
    <contour>
      <point x="292.67418300655" y="0.0" type="line"/>
      <point x="842.3686274509466" y="1356.1578431372634" type="line"/>
      <point x="91.48235294119333" y="1356.1578431372634" type="line"/>
      <point x="91.48235294119333" y="1456.0" type="line"/>
      <point x="960.487581699345" y="1456.0" type="line"/>
      <point x="960.487581699345" y="1375.0571895425035" type="line"/>
      <point x="415.0928104574967" y="0.0" type="line"/>
    </contour>
  </outline>
</glyph>
<glyph name="eight" format="2">
  <advance width="1087"/>
  <unicode hex="0038"/>
  <outline>
    <contour>
      <point x="128.3983660131" y="380.98333333333335" type="qcurve" smooth="yes"/>
      <point x="128.3983660131" y="518.5166666666667"/>
      <point x="272.9601307189233" y="700.5415032679766"/>
      <point x="387.37875816994165" y="742.7578431372633" type="qcurve"/>
      <point x="387.37875816994165" y="746.7578431372633" type="line"/>
      <point x="290.0689542483983" y="785.17418300655"/>
      <point x="170.94934640524" y="970.9333333333333"/>
      <point x="170.94934640524" y="1092.0166666666667" type="qcurve" smooth="yes"/>
      <point x="170.94934640524" y="1269.8666666666666"/>
      <point x="382.13071895422166" y="1486.0"/>
      <point x="542.8094771241633" y="1486.0" type="qcurve" smooth="yes"/>
      <point x="703.4882352941049" y="1486.0"/>
      <point x="917.2199346405383" y="1267.3163398692866"/>
      <point x="917.2199346405383" y="1092.0166666666667" type="qcurve" smooth="yes"/>
      <point x="917.2199346405383" y="970.9333333333333"/>
      <point x="797.6836601307133" y="785.8908496732166"/>
      <point x="699.5153594771467" y="746.7578431372633" type="qcurve"/>
      <point x="699.5153594771467" y="742.7578431372633" type="line"/>
      <point x="817.5173202614267" y="704.8415032679767"/>
      <point x="960.262745098035" y="520.3"/>
      <point x="960.262745098035" y="380.98333333333335" type="qcurve" smooth="yes"/>
      <point x="960.262745098035" y="185.13333333333333"/>
      <point x="721.2718954248182" y="-30.0"/>
      <point x="542.8094771241633" y="-30.0" type="qcurve" smooth="yes"/>
      <point x="364.34705882350835" y="-30.0"/>
      <point x="128.3983660131" y="185.13333333333333"/>
    </contour>
    <contour>
      <point x="242.55" y="385.39183006535666" type="qcurve" smooth="yes"/>
      <point x="242.55" y="246.67549019607"/>
      <point x="402.5225490195783" y="71.60065359475999"/>
      <point x="542.8094771241633" y="72.31732026142666" type="qcurve" smooth="yes"/>
      <point x="682.5215686274383" y="72.31732026142666"/>
      <point x="845.0444444444684" y="239.01699346404666"/>
      <point x="845.0444444444684" y="385.39183006535666" type="qcurve" smooth="yes"/>
      <point x="845.0444444444684" y="522.3081699346434"/>
      <point x="682.5215686274383" y="693.6663398692866"/>
      <point x="542.8094771241633" y="693.6663398692866" type="qcurve" smooth="yes"/>
      <point x="402.5225490195783" y="692.94967320262"/>
      <point x="242.55" y="522.8"/>
    </contour>
    <contour>
      <point x="282.53431372547334" y="1087.6081699346435" type="qcurve" smooth="yes"/>
      <point x="282.53431372547334" y="960.6918300653566"/>
      <point x="421.5147058823867" y="797.05032679738"/>
      <point x="542.8094771241633" y="796.3336601307134" type="qcurve" smooth="yes"/>
      <point x="663.5294117647016" y="796.3336601307134"/>
      <point x="805.6349673202333" y="960.6918300653566"/>
      <point x="805.6349673202333" y="1087.6081699346435" type="qcurve" smooth="yes"/>
      <point x="805.6349673202333" y="1217.3911764705967"/>
      <point x="663.5294117647016" y="1383.6826797385734"/>
      <point x="542.8094771241633" y="1383.6826797385734" type="qcurve" smooth="yes"/>
      <point x="421.5147058823867" y="1384.39934640524"/>
      <point x="282.53431372547334" y="1217.3911764705967"/>
    </contour>
  </outline>
</glyph>
<glyph name="nine" format="2">
  <advance width="1087"/>
  <unicode hex="0039"/>
  <outline>
    <contour>
      <point x="103.51503267976666" y="994.8333333333334" type="qcurve" smooth="yes"/>
      <point x="103.51503267976666" y="1213.7"/>
      <point x="335.15490196077167" y="1486.0"/>
      <point x="519.3098039215433" y="1486.0" type="qcurve" smooth="yes"/>
      <point x="713.84803921572" y="1486.0"/>
      <point x="964.163725490175" y="1166.2333333333333"/>
      <point x="964.163725490175" y="842.0" type="qcurve" smooth="yes"/>
      <point x="964.163725490175" y="812.0" type="line" smooth="yes"/>
      <point x="964.163725490175" y="429.1333333333333"/>
      <point x="591.1954248366084" y="-30.0"/>
      <point x="300.5944444444683" y="-30.0" type="qcurve" smooth="yes"/>
      <point x="281.6022875817317" y="-30.0" type="line"/>
      <point x="281.6022875817317" y="73.30098039213999" type="line"/>
      <point x="300.5944444444683" y="73.30098039213999" type="line" smooth="yes"/>
      <point x="536.435947712445" y="73.30098039213999"/>
      <point x="850.9535947712517" y="445.59215686273666"/>
      <point x="850.9535947712517" y="802.0" type="qcurve" smooth="yes"/>
      <point x="850.9535947712517" y="852.0" type="line" smooth="yes"/>
      <point x="850.9535947712517" y="1142.3911764705967"/>
      <point x="663.9977124182683" y="1383.1908496732167"/>
      <point x="519.3098039215433" y="1383.1908496732167" type="qcurve" smooth="yes"/>
      <point x="375.1967320261283" y="1383.1908496732167"/>
      <point x="219.3" y="1179.1578431372634"/>
      <point x="219.3" y="994.8333333333334" type="qcurve" smooth="yes"/>
      <point x="219.3" y="820.40032679738"/>
      <point x="368.7467320261283" y="629.4673202614267"/>
      <point x="509.27647058821003" y="629.4673202614267" type="qcurve" smooth="yes"/>
      <point x="649.0473856208883" y="629.4673202614267"/>
      <point x="856.9535947712517" y="833.30032679738"/>
      <point x="856.9535947712517" y="994.8333333333334" type="qcurve"/>
      <point x="905.7794117647016" y="994.8333333333334" type="line"/>
      <point x="905.7794117647016" y="788.0081699346433"/>
      <point x="668.9477124182683" y="526.6581699346433"/>
      <point x="492.42549019607" y="526.6581699346433" type="qcurve" smooth="yes"/>
      <point x="312.387581699345" y="526.6581699346433"/>
      <point x="103.51503267976666" y="785.6333333333333"/>
    </contour>
  </outline>
</glyph>
<glyph name="colon" format="2">
  <advance width="520"/>
  <unicode hex="003A"/>
  <outline>
    <contour>
      <point x="176.0" y="74.84215686273667" type="qcurve" smooth="yes"/>
      <point x="176.0" y="118.96732026142666"/>
      <point x="221.65032679738" y="171.68431372547334"/>
      <point x="260.20915032678334" y="171.68431372547334" type="qcurve" smooth="yes"/>
      <point x="298.7679738561867" y="171.68431372547334"/>
      <point x="343.7016339869" y="118.96732026142666"/>
      <point x="343.7016339869" y="74.84215686273667" type="qcurve" smooth="yes"/>
      <point x="343.7016339869" y="30.716993464046666"/>
      <point x="298.7679738561867" y="-22.0"/>
      <point x="260.20915032678334" y="-22.0" type="qcurve" smooth="yes"/>
      <point x="222.14215686273667" y="-22.0"/>
      <point x="176.0" y="30.716993464046666"/>
    </contour>
    <contour>
      <point x="176.0" y="971.1578431372633" type="qcurve" smooth="yes"/>
      <point x="176.0" y="1015.77483660131"/>
      <point x="221.65032679738" y="1068.0"/>
      <point x="260.20915032678334" y="1068.0" type="qcurve" smooth="yes"/>
      <point x="298.7679738561867" y="1068.0"/>
      <point x="343.7016339869" y="1015.77483660131"/>
      <point x="343.7016339869" y="971.1578431372633" type="qcurve" smooth="yes"/>
      <point x="343.7016339869" y="927.0326797385733"/>
      <point x="298.7679738561867" y="874.3156862745267"/>
      <point x="260.20915032678334" y="874.3156862745267" type="qcurve" smooth="yes"/>
      <point x="222.14215686273667" y="874.3156862745267"/>
      <point x="176.0" y="927.0326797385733"/>
    </contour>
  </outline>
</glyph>
<glyph name="semicolon" format="2">
  <advance width="520"/>
  <unicode hex="003B"/>
  <outline>
    <contour>
      <point x="147.59533333333331" y="-172.80632679738" type="line"/>
      <point x="180.65699346404668" y="-123.11849673202333"/>
      <point x="215.68032679738" y="-15.609503267976667"/>
      <point x="215.68032679738" y="55.204993464046666" type="qcurve" smooth="yes"/>
      <point x="215.68032679738" y="175.30715032678333" type="line"/>
      <point x="333.88864052285334" y="175.30715032678333" type="line"/>
      <point x="333.88864052285334" y="56.271660130713336" type="line" smooth="yes"/>
      <point x="333.88864052285334" y="-32.202666666666666"/>
      <point x="274.54414379083" y="-169.45949019607"/>
      <point x="221.61948366011666" y="-222.72665359476" type="qcurve"/>
    </contour>
    <contour>
      <point x="176.0" y="971.1578431372633" type="qcurve" smooth="yes"/>
      <point x="176.0" y="1015.77483660131"/>
      <point x="221.65032679738" y="1068.0"/>
      <point x="260.20915032678334" y="1068.0" type="qcurve" smooth="yes"/>
      <point x="298.7679738561867" y="1068.0"/>
      <point x="343.7016339869" y="1015.77483660131"/>
      <point x="343.7016339869" y="971.1578431372633" type="qcurve" smooth="yes"/>
      <point x="343.7016339869" y="927.0326797385733"/>
      <point x="298.7679738561867" y="874.3156862745267"/>
      <point x="260.20915032678334" y="874.3156862745267" type="qcurve" smooth="yes"/>
      <point x="222.14215686273667" y="874.3156862745267"/>
      <point x="176.0" y="927.0326797385733"/>
    </contour>
  </outline>
</glyph>
<glyph name="less" format="2">
  <advance width="1321"/>
  <unicode hex="003C"/>
  <outline>
    <contour>
      <point x="1047.554091503275" y="242.67650980393" type="line"/>
      <point x="262.82810457518167" y="625.6761699346433" type="line"/>
      <point x="262.82810457518167" y="727.4244836601166" type="line"/>
      <point x="1047.554091503275" y="1110.42414379083" type="line"/>
      <point x="1047.554091503275" y="992.5773202614267" type="line"/>
      <point x="370.32904575160165" y="670.17450980393" type="line"/>
      <point x="1047.554091503275" y="347.77169934643337" type="line"/>
    </contour>
  </outline>
</glyph>
<glyph name="equal" format="2">
  <advance width="1319"/>
  <unicode hex="003D"/>
  <outline>
    <contour>
      <point x="309.94385620917" y="434.39031372547333" type="line"/>
      <point x="309.94385620917" y="533.5843137254733" type="line"/>
      <point x="1008.9156470588067" y="533.5843137254733" type="line"/>
      <point x="1008.9156470588067" y="434.39031372547333" type="line"/>
    </contour>
    <contour>
      <point x="309.94385620917" y="842.4692810457784" type="line"/>
      <point x="309.94385620917" y="941.6632810457783" type="line"/>
      <point x="1008.9156470588067" y="941.6632810457783" type="line"/>
      <point x="1008.9156470588067" y="842.4692810457784" type="line"/>
    </contour>
  </outline>
</glyph>
<glyph name="greater" format="2">
  <advance width="1321"/>
  <unicode hex="003E"/>
  <outline>
    <contour>
      <point x="273.37843137256164" y="242.67650980393" type="line"/>
      <point x="273.37843137256164" y="360.5233333333333" type="line"/>
      <point x="950.6034771241633" y="682.92614379083" type="line"/>
      <point x="273.37843137256164" y="1005.3289542483983" type="line"/>
      <point x="273.37843137256164" y="1110.42414379083" type="line"/>
      <point x="1058.104418300655" y="727.4244836601166" type="line"/>
      <point x="1058.104418300655" y="625.6761699346433" type="line"/>
    </contour>
  </outline>
</glyph>
<glyph name="question" format="2">
  <advance width="823"/>
  <unicode hex="003F"/>
  <outline>
    <contour>
      <point x="280.5773202614267" y="74.89949019607" type="qcurve" smooth="yes"/>
      <point x="280.5773202614267" y="114.55265359476"/>
      <point x="324.29714379083" y="171.79898039214"/>
      <point x="364.01096732023336" y="171.79898039214" type="qcurve" smooth="yes"/>
      <point x="404.2996274509467" y="171.79898039214"/>
      <point x="448.01945098042165" y="114.55265359476"/>
      <point x="448.01945098042165" y="74.89949019607" type="qcurve" smooth="yes"/>
      <point x="448.01945098042165" y="35.24632679738"/>
      <point x="405.36629411761334" y="-22.0"/>
      <point x="365.0776339869" y="-22.0" type="qcurve" smooth="yes"/>
      <point x="324.29714379083" y="-22.0"/>
      <point x="280.5773202614267" y="35.24632679738"/>
    </contour>
    <contour>
      <point x="76.58415686273668" y="1093.5245098039302" type="line"/>
      <point x="76.58415686273668" y="1113.5245098039302" type="line" smooth="yes"/>
      <point x="76.58415686273668" y="1281.92669281048"/>
      <point x="247.8645490195783" y="1476.0"/>
      <point x="396.89695424839834" y="1476.0" type="qcurve" smooth="yes"/>
      <point x="544.49152941179" y="1476.0"/>
      <point x="711.178091503275" y="1282.7400261438133"/>
      <point x="711.178091503275" y="1125.5163398692866" type="qcurve" smooth="yes"/>
      <point x="711.178091503275" y="987.5558300653566"/>
      <point x="612.62479738559" y="805.5729934640467"/>
      <point x="538.0161699346434" y="722.96232679738" type="qcurve" smooth="yes"/>
      <point x="460.097562091485" y="635.5306797385733"/>
      <point x="416.47228104577835" y="495.16598692809333"/>
      <point x="416.47228104577835" y="420.98366013071336" type="qcurve" smooth="yes"/>
      <point x="416.47228104577835" y="410.98366013071336" type="line"/>
      <point x="303.0691503267833" y="410.98366013071336" type="line"/>
      <point x="303.0691503267833" y="420.98366013071336" type="line" smooth="yes"/>
      <point x="303.0691503267833" y="537.26149019607"/>
      <point x="369.9109215686317" y="691.02014379083"/>
      <point x="450.834562091485" y="785.0201699346433" type="qcurve" smooth="yes"/>
      <point x="524.7845163398833" y="870.3126666666667"/>
      <point x="598.2667908497083" y="1015.3095032679767"/>
      <point x="598.2667908497083" y="1125.5163398692866" type="qcurve" smooth="yes"/>
      <point x="598.2667908497083" y="1237.6800261438134"/>
      <point x="498.37403921571996" y="1371.94734640524"/>
      <point x="396.89695424839834" y="1371.94734640524" type="qcurve" smooth="yes"/>
      <point x="295.53453594774334" y="1371.94734640524"/>
      <point x="189.51762091506498" y="1238.3286928104799"/>
      <point x="189.51762091506498" y="1113.5245098039302" type="qcurve" smooth="yes"/>
      <point x="189.51762091506498" y="1093.5245098039302" type="line"/>
    </contour>
  </outline>
</glyph>
<glyph name="at" format="2">
  <advance width="1890"/>
  <unicode hex="0040"/>
  <outline>
    <contour>
      <point x="588.5079346405383" y="400.0" type="qcurve" smooth="yes"/>
      <point x="588.5079346405383" y="680.0"/>
      <point x="838.72379738559" y="1052.0"/>
      <point x="1011.8548758169583" y="1052.0" type="qcurve" smooth="yes"/>
      <point x="1081.5960065359534" y="1052.0"/>
      <point x="1204.9112810457782" y="980.522"/>
      <point x="1239.5294248366083" y="946.0" type="qcurve"/>
      <point x="1300.7563660131" y="946.0" type="line"/>
      <point x="1185.4470849673216" y="350.0" type="line" smooth="yes"/>
      <point x="1156.6054248366083" y="204.48366013071333"/>
      <point x="1265.8790588235083" y="91.29815686273668"/>
      <point x="1355.1040261438134" y="91.29815686273668" type="qcurve" smooth="yes"/>
      <point x="1493.2955138578668" y="91.29815686273668"/>
      <point x="1667.6961568627366" y="400.3316601307134"/>
      <point x="1667.6961568627366" y="650.0" type="qcurve" smooth="yes"/>
      <point x="1667.6961568627366" y="941.6176732026199"/>
      <point x="1310.6476388067501" y="1385.0233464052399"/>
      <point x="987.441542483625" y="1385.0233464052399" type="qcurve" smooth="yes"/>
      <point x="663.3285921568418" y="1385.0233464052399"/>
      <point x="225.8891372548767" y="842.5923398692867"/>
      <point x="225.8891372548767" y="460.0" type="qcurve" smooth="yes"/>
      <point x="225.8891372548767" y="73.99632679738"/>
      <point x="606.1880373482434" y="-345.02334640524"/>
      <point x="892.0477516339884" y="-345.02334640524" type="qcurve" smooth="yes"/>
      <point x="1025.2221960784566" y="-345.02334640524"/>
      <point x="1211.421947712445" y="-291.02334640524"/>
      <point x="1274.7725882352984" y="-255.02334640523998" type="qcurve"/>
      <point x="1274.7725882352984" y="-356.0" type="line"/>
      <point x="1206.8154509804217" y="-400.0"/>
      <point x="1025.2221960784566" y="-446.0"/>
      <point x="892.0477516339884" y="-446.0" type="qcurve" smooth="yes"/>
      <point x="569.6205882352983" y="-446.0"/>
      <point x="114.0" y="40.0"/>
      <point x="114.0" y="460.0" type="qcurve" smooth="yes"/>
      <point x="114.0" y="880.0"/>
      <point x="627.808562091485" y="1486.0"/>
      <point x="987.441542483625" y="1486.0" type="qcurve" smooth="yes"/>
      <point x="1344.9531895425034" y="1486.0"/>
      <point x="1776.204457516375" y="1000.0"/>
      <point x="1776.204457516375" y="650.0" type="qcurve" smooth="yes"/>
      <point x="1776.204457516375" y="360.0"/>
      <point x="1531.248928104585" y="0.0"/>
      <point x="1355.47069281048" y="0.0" type="qcurve" smooth="yes"/>
      <point x="1253.0030498663068" y="0.0"/>
      <point x="1108.6348563721467" y="101.21980104645667"/>
      <point x="1075.8161045751817" y="184.87333333333333" type="qcurve"/>
      <point x="1040.8700843768183" y="100.05527353701333"/>
      <point x="914.8949241093" y="0.0"/>
      <point x="838.8494509804216" y="0.0" type="qcurve" smooth="yes"/>
      <point x="723.8423529411933" y="0.0"/>
      <point x="588.5079346405383" y="220.0"/>
    </contour>
    <contour>
      <point x="701.783908496725" y="400.0" type="qcurve" smooth="yes"/>
      <point x="701.783908496725" y="253.01716339869"/>
      <point x="784.71099194112" y="100.48482352940334"/>
      <point x="862.3630980392284" y="100.48482352940334" type="qcurve" smooth="yes"/>
      <point x="934.9914841820267" y="100.48482352940334"/>
      <point x="1047.1484758115166" y="231.37780724688"/>
      <point x="1081.179764705895" y="390.98366013071336" type="qcurve" smooth="yes"/>
      <point x="1185.1863986927951" y="905.3460130719067" type="line"/>
      <point x="1156.38947399499" y="930.2873666279917"/>
      <point x="1068.2306666666668" y="958.1593464052401"/>
      <point x="1026.10420261441" y="958.1593464052401" type="qcurve" smooth="yes"/>
      <point x="885.7161537396516" y="958.1593464052401"/>
      <point x="701.783908496725" y="640.1556732026199"/>
    </contour>
  </outline>
</glyph>
<glyph name="A" format="2">
  <advance width="1068"/>
  <unicode hex="0041"/>
  <outline>
    <contour>
      <point x="0.0" y="0.0" type="line"/>
      <point x="453.87810457518174" y="1466.0" type="line"/>
      <point x="613.75032679738" y="1466.0" type="line"/>
      <point x="1068.4281045751816" y="0.0" type="line"/>
      <point x="948.7339869280934" y="0.0" type="line"/>
      <point x="583.75130718952" y="1197.3156862745266" type="line" smooth="yes"/>
      <point x="569.5833333333334" y="1239.9261437908299"/>
      <point x="546.0147058823867" y="1316.7794117647015"/>
      <point x="536.188888888865" y="1354.7973856208882" type="qcurve"/>
      <point x="527.338562091485" y="1354.7973856208882" type="line"/>
      <point x="517.512745098035" y="1316.7794117647015"/>
      <point x="492.160784313755" y="1239.9261437908299"/>
      <point x="478.1346405228533" y="1197.3156862745266" type="qcurve" smooth="yes"/>
      <point x="112.71862745094667" y="0.0" type="line"/>
    </contour>
    <contour>
      <point x="182.45359477125166" y="409.54934640524" type="line"/>
      <point x="211.23006535946166" y="509.12516339869" type="line"/>
      <point x="853.1477124182683" y="509.12516339869" type="line"/>
      <point x="881.4160130719067" y="409.54934640524" type="line"/>
    </contour>
  </outline>
</glyph>
<glyph name="B" format="2">
  <advance width="1072"/>
  <unicode hex="0042"/>
  <outline>
    <contour>
      <point x="170.0" y="0.0" type="line"/>
      <point x="170.0" y="1456.0" type="line"/>
      <point x="543.923437908515" y="1456.0" type="line" smooth="yes"/>
      <point x="725.3486666666668" y="1456.0"/>
      <point x="929.4368823529117" y="1279.7916339869"/>
      <point x="929.4368823529117" y="1082.7626666666665" type="qcurve" smooth="yes"/>
      <point x="929.4368823529117" y="956.8226666666667"/>
      <point x="823.7624313725617" y="792.8093333333333"/>
      <point x="742.2153006535667" y="767.0253333333334" type="qcurve"/>
      <point x="742.2153006535667" y="763.0253333333334" type="line"/>
      <point x="845.811254901965" y="736.1746666666667"/>
      <point x="971.53452941179" y="552.2026666666667"/>
      <point x="971.53452941179" y="404.2213333333333" type="qcurve" smooth="yes"/>
      <point x="971.53452941179" y="208.25903267976668"/>
      <point x="757.28449019607" y="0.0"/>
      <point x="576.808091503275" y="0.0" type="qcurve" smooth="yes"/>
    </contour>
    <contour>
      <point x="283.3203006535666" y="102.00198692809333" type="line"/>
      <point x="576.808091503275" y="102.00198692809333" type="line" smooth="yes"/>
      <point x="721.4308235294034" y="102.00198692809333"/>
      <point x="856.744562091485" y="261.6760261438133"/>
      <point x="856.744562091485" y="405.77983006535663" type="qcurve" smooth="yes"/>
      <point x="856.744562091485" y="543.8986666666667"/>
      <point x="721.4073833820884" y="706.9783398692866"/>
      <point x="576.808091503275" y="706.9783398692866" type="qcurve" smooth="yes"/>
      <point x="283.3203006535666" y="706.9783398692866" type="line"/>
    </contour>
    <contour>
      <point x="283.3203006535666" y="809.0216601307134" type="line"/>
      <point x="543.923437908515" y="809.0216601307134" type="line" smooth="yes"/>
      <point x="687.5941699346433" y="809.0216601307134"/>
      <point x="814.6469150326784" y="953.0853333333333"/>
      <point x="814.6469150326784" y="1082.27083660131" type="qcurve" smooth="yes"/>
      <point x="814.6469150326784" y="1217.83214379083"/>
      <point x="687.597743116895" y="1353.9980130719066"/>
      <point x="543.923437908515" y="1353.9980130719066" type="qcurve" smooth="yes"/>
      <point x="283.3203006535666" y="1353.9980130719066" type="line"/>
    </contour>
  </outline>
</glyph>
<glyph name="C" format="2">
  <advance width="1072"/>
  <unicode hex="0043"/>
  <outline>
    <contour>
      <point x="115.0" y="692.8174509804217" type="qcurve" smooth="yes"/>
      <point x="115.0" y="763.1825490195783" type="line" smooth="yes"/>
      <point x="115.0" y="1141.4748104574967"/>
      <point x="388.63950980393" y="1486.0"/>
      <point x="616.2957189542217" y="1486.0" type="qcurve" smooth="yes"/>
      <point x="826.9802679738716" y="1486.0"/>
      <point x="1038.5378692810766" y="1227.058457516375"/>
      <point x="1063.6914640522566" y="999.0163398692866" type="qcurve" smooth="yes"/>
      <point x="1064.89996078428" y="989.0163398692866" type="line"/>
      <point x="949.1706601307133" y="989.0163398692866" type="line"/>
      <point x="947.9621633986901" y="999.0163398692866" type="line" smooth="yes"/>
      <point x="930.84703921572" y="1131.2500261438133"/>
      <point x="795.7528924815083" y="1380.4301830065501"/>
      <point x="616.2957189542217" y="1380.4301830065501" type="qcurve" smooth="yes"/>
      <point x="424.54067251464" y="1380.4301830065501"/>
      <point x="230.6019673202333" y="1074.7535555555316"/>
      <point x="230.6019673202333" y="806.9158823529117" type="qcurve" smooth="yes"/>
      <point x="230.6019673202333" y="650.150784313755" type="line" smooth="yes"/>
      <point x="230.6019673202333" y="361.0728750536583"/>
      <point x="440.7491692466633" y="75.56981699344999"/>
      <point x="615.229052287555" y="75.56981699344999" type="qcurve" smooth="yes"/>
      <point x="791.646356533765" y="75.56981699344999"/>
      <point x="943.57449019607" y="328.3911503267833"/>
      <point x="949.23732679738" y="456.98366013071336" type="qcurve"/>
      <point x="949.1706601307133" y="466.98366013071336" type="line"/>
      <point x="1064.89996078428" y="466.98366013071336" type="line"/>
      <point x="1064.9666274509468" y="456.98366013071336" type="line" smooth="yes"/>
      <point x="1065.3163006535667" y="227.66637908493502"/>
      <point x="826.9802679738716" y="-30.0"/>
      <point x="616.2957189542217" y="-30.0" type="qcurve" smooth="yes"/>
      <point x="386.50617647059664" y="-30.0"/>
      <point x="115.0" y="314.9221847690333"/>
    </contour>
  </outline>
</glyph>
<glyph name="D" format="2">
  <advance width="1174"/>
  <unicode hex="0044"/>
  <outline>
    <contour>
      <point x="170.0" y="0.0" type="line"/>
      <point x="170.0" y="1456.0" type="line"/>
      <point x="500.14179084970834" y="1456.0" type="line" smooth="yes"/>
      <point x="744.5664967320233" y="1456.0"/>
      <point x="1058.6059934640466" y="1110.8908104574966"/>
      <point x="1058.6059934640466" y="763.1825490195783" type="qcurve" smooth="yes"/>
      <point x="1058.6059934640466" y="692.8174509804217" type="line" smooth="yes"/>
      <point x="1058.6059934640466" y="345.1581923914517"/>
      <point x="744.5664967320233" y="0.0"/>
      <point x="500.14179084970834" y="0.0" type="qcurve" smooth="yes"/>
    </contour>
    <contour>
      <point x="285.19896732023335" y="102.49381699345" type="line"/>
      <point x="500.14179084970834" y="102.49381699345" type="line" smooth="yes"/>
      <point x="702.80537086378" y="102.49381699345"/>
      <point x="941.9373594771466" y="387.57801633988333"/>
      <point x="941.9373594771466" y="692.8174509804217" type="qcurve" smooth="yes"/>
      <point x="941.9373594771466" y="763.1825490195783" type="line" smooth="yes"/>
      <point x="941.9373594771466" y="1068.45781699345"/>
      <point x="702.80537086378" y="1353.50618300655"/>
      <point x="500.14179084970834" y="1353.50618300655" type="qcurve" smooth="yes"/>
      <point x="285.19896732023335" y="1353.50618300655" type="line"/>
    </contour>
  </outline>
</glyph>
<glyph name="E" format="2">
  <advance width="982"/>
  <unicode hex="0045"/>
  <outline>
    <contour>
      <point x="170.0" y="0.0" type="line"/>
      <point x="170.0" y="1456.0" type="line"/>
      <point x="904.0072418300583" y="1456.0" type="line"/>
      <point x="904.0072418300583" y="1353.50618300655" type="line"/>
      <point x="285.19896732023335" y="1353.50618300655" type="line"/>
      <point x="285.19896732023335" y="802.53432679738" type="line"/>
      <point x="803.467947712445" y="802.53432679738" type="line"/>
      <point x="803.467947712445" y="699.46567320262" type="line"/>
      <point x="285.19896732023335" y="699.46567320262" type="line"/>
      <point x="285.19896732023335" y="102.49381699345" type="line"/>
      <point x="914.7284052287483" y="102.49381699345" type="line"/>
      <point x="914.7284052287483" y="0.0" type="line"/>
    </contour>
  </outline>
</glyph>
<glyph name="F" format="2">
  <advance width="949"/>
  <unicode hex="0046"/>
  <outline>
    <contour>
      <point x="170.0" y="0.0" type="line"/>
      <point x="170.0" y="1456.0" type="line"/>
      <point x="890.679581699345" y="1456.0" type="line"/>
      <point x="890.679581699345" y="1353.50618300655" type="line"/>
      <point x="285.19896732023335" y="1353.50618300655" type="line"/>
      <point x="285.19896732023335" y="771.4839999999999" type="line"/>
      <point x="804.2142875817317" y="771.4839999999999" type="line"/>
      <point x="804.2142875817317" y="670.0568496732167" type="line"/>
      <point x="285.19896732023335" y="670.0568496732167" type="line"/>
      <point x="285.19896732023335" y="0.0" type="line"/>
    </contour>
  </outline>
</glyph>
<glyph name="G" format="2">
  <advance width="1076"/>
  <unicode hex="0047"/>
  <outline>
    <contour>
      <point x="115.0" y="692.8174509804217" type="qcurve" smooth="yes"/>
      <point x="115.0" y="763.1825490195783" type="line" smooth="yes"/>
      <point x="115.0" y="1137.20814379083"/>
      <point x="389.7061764705967" y="1486.0"/>
      <point x="595.451928104585" y="1486.0" type="qcurve" smooth="yes"/>
      <point x="819.513601307205" y="1486.0"/>
      <point x="1032.80130718952" y="1247.8163398692866"/>
      <point x="1057.4146274509467" y="1037.7411764705967" type="qcurve" smooth="yes"/>
      <point x="1058.9064575163752" y="1029.0163398692866" type="line"/>
      <point x="943.1771568627366" y="1029.0163398692866" type="line"/>
      <point x="941.4768300653566" y="1039.0163398692866" type="line" smooth="yes"/>
      <point x="926.2483660130999" y="1191.14967320262"/>
      <point x="773.9544546702517" y="1380.4301830065501"/>
      <point x="598.002254901965" y="1380.4301830065501" type="qcurve" smooth="yes"/>
      <point x="425.81583591333" y="1380.4301830065501"/>
      <point x="230.6019673202333" y="1110.27381699345"/>
      <point x="230.6019673202333" y="805.849215686245" type="qcurve" smooth="yes"/>
      <point x="230.6019673202333" y="650.150784313755" type="line" smooth="yes"/>
      <point x="230.6019673202333" y="352.12450904062996"/>
      <point x="438.3982952801167" y="75.56981699344999"/>
      <point x="622.5137058823867" y="75.56981699344999" type="qcurve" smooth="yes"/>
      <point x="731.175437556465" y="75.56981699344999"/>
      <point x="889.71372604473" y="124.32920873217667"/>
      <point x="948.6468235294033" y="173.81248366011667" type="qcurve"/>
      <point x="948.6468235294033" y="595.5163398692866" type="line"/>
      <point x="622.8648823529116" y="595.5163398692866" type="line"/>
      <point x="622.8648823529116" y="699.0768235294033" type="line"/>
      <point x="1058.9064575163752" y="699.0768235294033" type="line"/>
      <point x="1058.9064575163752" y="128.83699346404666" type="line"/>
      <point x="995.7541568627367" y="67.37032679738"/>
      <point x="792.8122560160317" y="-30.0"/>
      <point x="617.1803725490533" y="-30.0" type="qcurve" smooth="yes"/>
      <point x="393.92233986928665" y="-30.0"/>
      <point x="115.0" y="293.1738187559333"/>
    </contour>
  </outline>
</glyph>
<glyph name="H" format="2">
  <advance width="1256"/>
  <unicode hex="0048"/>
  <outline>
    <contour>
      <point x="170.0" y="0.0" type="line"/>
      <point x="170.0" y="1456.0" type="line"/>
      <point x="285.3833333333333" y="1456.0" type="line"/>
      <point x="285.3833333333333" y="802.7833333333333" type="line"/>
      <point x="971.1" y="802.7833333333333" type="line"/>
      <point x="971.1" y="1456.0" type="line"/>
      <point x="1085.7666666666667" y="1456.0" type="line"/>
      <point x="1085.7666666666667" y="0.0" type="line"/>
      <point x="971.1" y="0.0" type="line"/>
      <point x="971.1" y="699.2166666666667" type="line"/>
      <point x="285.3833333333333" y="699.2166666666667" type="line"/>
      <point x="285.3833333333333" y="0.0" type="line"/>
    </contour>
  </outline>
</glyph>
<glyph name="J" format="2">
  <advance width="901"/>
  <unicode hex="004A"/>
  <outline>
    <contour>
      <point x="25.0" y="420.488235294105" type="qcurve" smooth="yes"/>
      <point x="25.0" y="430.488235294105" type="line"/>
      <point x="140.50980392154332" y="430.488235294105" type="line"/>
      <point x="140.50980392154332" y="388.488235294105" type="line" smooth="yes"/>
      <point x="140.50980392154332" y="219.28627450982498"/>
      <point x="266.4565359477433" y="75.22581699345"/>
      <point x="385.935947712445" y="75.22581699345" type="qcurve" smooth="yes"/>
      <point x="504.34869281048" y="75.22581699345"/>
      <point x="631.362091503275" y="236.06960784315834"/>
      <point x="631.362091503275" y="413.488235294105" type="qcurve" smooth="yes"/>
      <point x="631.362091503275" y="1456.0" type="line"/>
      <point x="745.088562091485" y="1456.0" type="line"/>
      <point x="745.088562091485" y="445.488235294105" type="line" smooth="yes"/>
      <point x="745.088562091485" y="197.235947712445"/>
      <point x="552.0156862745266" y="-30.0"/>
      <point x="385.935947712445" y="-30.0" type="qcurve" smooth="yes"/>
      <point x="218.789542483625" y="-30.0"/>
      <point x="25.0" y="182.235947712445"/>
    </contour>
  </outline>
</glyph>
<glyph name="K" format="2">
  <advance width="1079"/>
  <unicode hex="004B"/>
  <outline>
    <contour>
      <point x="170.0" y="0.0" type="line"/>
      <point x="170.0" y="1456.0" type="line"/>
      <point x="284.56830065356667" y="1456.0" type="line"/>
      <point x="284.56830065356667" y="693.561764705895" type="line"/>
      <point x="951.3919215686317" y="1456.0" type="line"/>
      <point x="1084.7591764705967" y="1456.0" type="line"/>
      <point x="285.19896732023335" y="549.9070849673217" type="line"/>
      <point x="285.19896732023335" y="0.0" type="line"/>
    </contour>
    <contour>
      <point x="968.2809019607716" y="0.0" type="line"/>
      <point x="417.04913725487665" y="774.3783267973799" type="line"/>
      <point x="487.56176470589503" y="853.672" type="line"/>
      <point x="1098.9221568627368" y="0.0" type="line"/>
    </contour>
  </outline>
</glyph>
<glyph name="L" format="2">
  <advance width="866"/>
  <unicode hex="004C"/>
  <outline>
    <contour>
      <point x="170.0" y="0.0" type="line"/>
      <point x="170.0" y="1456.0" type="line"/>
      <point x="285.19896732023335" y="1456.0" type="line"/>
      <point x="285.19896732023335" y="102.49381699345" type="line"/>
      <point x="880.8259215686317" y="102.49381699345" type="line"/>
      <point x="880.8259215686317" y="0.0" type="line"/>
    </contour>
  </outline>
</glyph>
<glyph name="M" format="2">
  <advance width="1560"/>
  <unicode hex="004D"/>
  <outline>
    <contour>
      <point x="170.0" y="0.0" type="line"/>
      <point x="170.0" y="1456.0" type="line"/>
      <point x="321.3689542483983" y="1456.0" type="line"/>
      <point x="738.089215686245" y="256.87156862743836" type="line" smooth="yes"/>
      <point x="750.0062091502916" y="221.538235294105"/>
      <point x="769.27418300655" y="166.20588235291166"/>
      <point x="775.6326797385733" y="130.45751633988334" type="qcurve"/>
      <point x="781.49934640524" y="130.45751633988334" type="line"/>
      <point x="788.57450980393" y="166.20588235291166"/>
      <point x="806.1" y="222.60490196077166"/>
      <point x="818.0169934640467" y="257.938235294105" type="qcurve" smooth="yes"/>
      <point x="1241.8130718954149" y="1456.0" type="line"/>
      <point x="1389.9653594771466" y="1456.0" type="line"/>
      <point x="1389.9653594771466" y="0.0" type="line"/>
      <point x="1277.0970588235082" y="0.0" type="line"/>
      <point x="1277.0970588235082" y="1110.9803921568416" type="line" smooth="yes"/>
      <point x="1277.0970588235082" y="1147.3803921568417"/>
      <point x="1284.714052287555" y="1235.1803921568417"/>
      <point x="1285.3722222221984" y="1270.513725490175" type="qcurve"/>
      <point x="1277.3722222221984" y="1270.513725490175" type="line"/>
      <point x="1271.2303921568416" y="1235.1803921568417"/>
      <point x="1243.7467320261283" y="1147.3803921568417"/>
      <point x="1231.8297385620817" y="1110.9803921568416" type="qcurve" smooth="yes"/>
      <point x="833.4836601307134" y="0.0" type="line"/>
      <point x="722.1725490195784" y="0.0" type="line"/>
      <point x="321.46830065356664" y="1110.263725490175" type="line" smooth="yes"/>
      <point x="309.55130718952" y="1146.663725490175"/>
      <point x="284.0591503267833" y="1234.463725490175"/>
      <point x="278.63398692809335" y="1269.7970588235082" type="qcurve"/>
      <point x="270.63398692809335" y="1269.7970588235082" type="line"/>
      <point x="271.29215686273665" y="1234.463725490175"/>
      <point x="278.33431372547335" y="1146.663725490175"/>
      <point x="278.33431372547335" y="1110.263725490175" type="qcurve" smooth="yes"/>
      <point x="278.33431372547335" y="0.0" type="line"/>
    </contour>
  </outline>
</glyph>
<glyph name="N" format="2">
  <advance width="1245"/>
  <unicode hex="004E"/>
  <outline>
    <contour>
      <point x="170.0" y="0.0" type="line"/>
      <point x="170.0" y="1456.0" type="line"/>
      <point x="317.0686274509467" y="1456.0" type="line"/>
      <point x="904.1983660131" y="285.8846405228533" type="line" smooth="yes"/>
      <point x="915.2153594771466" y="260.50130718952"/>
      <point x="950.9741830065501" y="175.25130718952"/>
      <point x="961.4745098039301" y="142.20980392154334" type="qcurve"/>
      <point x="969.4745098039301" y="142.20980392154334" type="line"/>
      <point x="965.3575163398834" y="177.54313725487668"/>
      <point x="964.4405228758368" y="255.85130718952"/>
      <point x="964.4405228758368" y="287.98464052285334" type="qcurve" smooth="yes"/>
      <point x="964.4405228758368" y="1456.0" type="line"/>
      <point x="1075.4524967320233" y="1456.0" type="line"/>
      <point x="1075.4524967320233" y="0.0" type="line"/>
      <point x="927.7728758169584" y="0.0" type="line"/>
      <point x="334.14346405225666" y="1179.1150326797667" type="line" smooth="yes"/>
      <point x="319.92647058821" y="1209.8316993464332"/>
      <point x="283.29215686273665" y="1280.5483660131"/>
      <point x="278.57549019607" y="1310.37320261441" type="qcurve"/>
      <point x="269.30032679737997" y="1310.37320261441" type="line"/>
      <point x="274.85065359476" y="1274.67320261441"/>
      <point x="278.2676470588067" y="1193.3816993464334"/>
      <point x="278.2676470588067" y="1159.1150326797667" type="qcurve" smooth="yes"/>
      <point x="278.2676470588067" y="0.0" type="line"/>
    </contour>
  </outline>
</glyph>
<glyph name="O" format="2">
  <advance width="1235"/>
  <unicode hex="004F"/>
  <outline>
    <contour>
      <point x="115.0" y="692.8174509804217" type="qcurve" smooth="yes"/>
      <point x="115.0" y="763.1825490195783" type="line" smooth="yes"/>
      <point x="115.0" y="1132.9414771241634"/>
      <point x="391.83950980393" y="1486.0"/>
      <point x="617.5315490195784" y="1486.0" type="qcurve" smooth="yes"/>
      <point x="842.617091503275" y="1486.0"/>
      <point x="1118.9964313725616" y="1132.9414771241634"/>
      <point x="1118.9964313725616" y="763.1825490195783" type="qcurve" smooth="yes"/>
      <point x="1118.9964313725616" y="692.8174509804217" type="line" smooth="yes"/>
      <point x="1118.9964313725616" y="323.0404854226"/>
      <point x="842.617091503275" y="-30.0"/>
      <point x="617.5315490195784" y="-30.0" type="qcurve" smooth="yes"/>
      <point x="392.3313398692867" y="-30.0"/>
      <point x="115.0" y="323.0404854226"/>
    </contour>
    <contour>
      <point x="230.6019673202333" y="660.8174509804217" type="line" smooth="yes"/>
      <point x="230.6019673202333" y="362.00050904063"/>
      <point x="438.53187696012833" y="75.56981699344999"/>
      <point x="617.5315490195784" y="75.56981699344999" type="qcurve" smooth="yes"/>
      <point x="796.4058725366167" y="75.56981699344999"/>
      <point x="1002.32779738559" y="362.00050904063"/>
      <point x="1002.32779738559" y="660.8174509804217" type="qcurve" smooth="yes"/>
      <point x="1002.32779738559" y="796.249215686245" type="line" smooth="yes"/>
      <point x="1002.32779738559" y="1095.0644836601166"/>
      <point x="796.4058725366167" y="1380.4301830065501"/>
      <point x="617.5315490195784" y="1380.4301830065501" type="qcurve" smooth="yes"/>
      <point x="438.53187696012833" y="1380.4301830065501"/>
      <point x="230.6019673202333" y="1095.0644836601166"/>
      <point x="230.6019673202333" y="796.249215686245" type="qcurve" smooth="yes"/>
    </contour>
  </outline>
</glyph>
<glyph name="P" format="2">
  <advance width="1028"/>
  <unicode hex="0050"/>
  <outline>
    <contour>
      <point x="170.0" y="0.0" type="line"/>
      <point x="170.0" y="1456.0" type="line"/>
      <point x="543.9167712418483" y="1456.0" type="line" smooth="yes"/>
      <point x="746.8809934640467" y="1456.0"/>
      <point x="950.6248692810766" y="1243.1964705882099"/>
      <point x="950.6248692810766" y="1025.7998431372632" type="qcurve" smooth="yes"/>
      <point x="950.6248692810766" y="809.3868758169583"/>
      <point x="746.8809934640467" y="594.5326797385733"/>
      <point x="543.9167712418483" y="594.5326797385733" type="qcurve" smooth="yes"/>
      <point x="285.19896732023335" y="594.5326797385733" type="line"/>
      <point x="285.19896732023335" y="0.0" type="line"/>
    </contour>
    <contour>
      <point x="285.19896732023335" y="697.6013333333333" type="line"/>
      <point x="543.9167712418483" y="697.6013333333333" type="line" smooth="yes"/>
      <point x="705.442902713625" y="697.6013333333333"/>
      <point x="834.8955686274384" y="876.9465359477433"/>
      <point x="834.8955686274384" y="1025.7998431372632" type="qcurve" smooth="yes"/>
      <point x="834.8955686274384" y="1176.2116470588066"/>
      <point x="705.442902713625" y="1353.50618300655"/>
      <point x="543.9167712418483" y="1353.50618300655" type="qcurve" smooth="yes"/>
      <point x="285.19896732023335" y="1353.50618300655" type="line"/>
    </contour>
  </outline>
</glyph>
<glyph name="Q" format="2">
  <advance width="1235"/>
  <unicode hex="0051"/>
  <outline>
    <contour>
      <point x="115.0" y="692.8174509804217" type="qcurve" smooth="yes"/>
      <point x="115.0" y="763.1825490195783" type="line" smooth="yes"/>
      <point x="115.0" y="1132.9414771241634"/>
      <point x="391.83950980393" y="1486.0"/>
      <point x="617.5315490195784" y="1486.0" type="qcurve" smooth="yes"/>
      <point x="842.617091503275" y="1486.0"/>
      <point x="1118.9964313725616" y="1132.9414771241634"/>
      <point x="1118.9964313725616" y="763.1825490195783" type="qcurve" smooth="yes"/>
      <point x="1118.9964313725616" y="692.8174509804217" type="line" smooth="yes"/>
      <point x="1118.9964313725616" y="323.0585228758367"/>
      <point x="842.617091503275" y="-30.0"/>
      <point x="617.5315490195784" y="-30.0" type="qcurve" smooth="yes"/>
      <point x="392.3313398692867" y="-30.0"/>
      <point x="115.0" y="323.0585228758367"/>
    </contour>
    <contour>
      <point x="230.6019673202333" y="650.150784313755" type="line" smooth="yes"/>
      <point x="230.6019673202333" y="351.3355163398833"/>
      <point x="438.55149673202334" y="75.56981699344999"/>
      <point x="617.5315490195784" y="75.56981699344999" type="qcurve" smooth="yes"/>
      <point x="796.3969346405383" y="75.56981699344999"/>
      <point x="1002.32779738559" y="351.3355163398833"/>
      <point x="1002.32779738559" y="650.150784313755" type="qcurve" smooth="yes"/>
      <point x="1002.32779738559" y="805.849215686245" type="line" smooth="yes"/>
      <point x="1002.32779738559" y="1104.6644836601165"/>
      <point x="796.3969346405383" y="1380.4301830065501"/>
      <point x="617.5315490195784" y="1380.4301830065501" type="qcurve" smooth="yes"/>
      <point x="438.55149673202334" y="1380.4301830065501"/>
      <point x="230.6019673202333" y="1104.6644836601165"/>
      <point x="230.6019673202333" y="805.849215686245" type="qcurve" smooth="yes"/>
    </contour>
    <contour>
      <point x="1055.4315032679767" y="-229.35699346404667" type="line"/>
      <point x="580.6013202614266" y="158.38" type="line"/>
      <point x="660.838111111135" y="238.19981699344999" type="line"/>
      <point x="1137.6711241830417" y="-146.48201307190666" type="line"/>
    </contour>
  </outline>
</glyph>
<glyph name="R" format="2">
  <advance width="1043"/>
  <unicode hex="0052"/>
  <outline>
    <contour>
      <point x="170.0" y="0.0" type="line"/>
      <point x="170.0" y="1456.0" type="line"/>
      <point x="535.1956078431583" y="1456.0" type="line" smooth="yes"/>
      <point x="733.572" y="1456.0"/>
      <point x="937.582542483625" y="1252.6286405228534"/>
      <point x="937.582542483625" y="1039.7745098039302" type="qcurve" smooth="yes"/>
      <point x="937.582542483625" y="826.920379084935"/>
      <point x="733.572" y="620.9648496732167"/>
      <point x="535.1956078431583" y="620.9648496732167" type="qcurve" smooth="yes"/>
      <point x="285.19896732023335" y="620.9648496732167" type="line"/>
      <point x="285.19896732023335" y="0.0" type="line"/>
    </contour>
    <contour>
      <point x="285.19896732023335" y="723.5" type="line"/>
      <point x="535.1956078431583" y="723.5" type="line" smooth="yes"/>
      <point x="694.7650949302583" y="723.5"/>
      <point x="821.8532418300583" y="895.8913725490534"/>
      <point x="821.8532418300583" y="1039.7745098039302" type="qcurve" smooth="yes"/>
      <point x="821.8532418300583" y="1184.7243137254734"/>
      <point x="694.7650949302583" y="1354.5315163398834"/>
      <point x="535.1956078431583" y="1354.5315163398834" type="qcurve" smooth="yes"/>
      <point x="285.19896732023335" y="1354.5315163398834" type="line"/>
    </contour>
    <contour>
      <point x="868.4539215686317" y="0.0" type="line"/>
      <point x="529.8467320261283" y="672.0" type="line"/>
      <point x="656.1050065359534" y="672.0" type="line"/>
      <point x="1002.0905228758368" y="0.0" type="line"/>
    </contour>
  </outline>
</glyph>
<glyph name="S" format="2">
  <advance width="1018"/>
  <unicode hex="0053"/>
  <outline>
    <contour>
      <point x="90.0" y="383.44366013071334" type="qcurve" smooth="yes"/>
      <point x="90.0" y="406.11032679737997" type="line"/>
      <point x="205.19896732023335" y="406.11032679737997" type="line"/>
      <point x="205.19896732023335" y="383.44366013071334" type="line" smooth="yes"/>
      <point x="205.19896732023335" y="234.57998692809332"/>
      <point x="369.58282547628005" y="75.56981699344999"/>
      <point x="518.3770849673217" y="75.56981699344999" type="qcurve" smooth="yes"/>
      <point x="667.24082505233" y="75.56981699344999"/>
      <point x="824.8527058823867" y="237.60082352940333"/>
      <point x="824.8527058823867" y="359.01183006535666" type="qcurve" smooth="yes"/>
      <point x="824.8527058823867" y="472.9286666666667"/>
      <point x="702.899601307205" y="603.8691895425032"/>
      <point x="500.73545098042166" y="688.4913464052399" type="qcurve" smooth="yes"/>
      <point x="310.62260784315833" y="768.7131764705966"/>
      <point x="115.42398692809333" y="951.7880130719067"/>
      <point x="115.42398692809333" y="1110.4963398692867" type="qcurve" smooth="yes"/>
      <point x="115.42398692809333" y="1292.1148366013101"/>
      <point x="324.9828627451233" y="1486.0"/>
      <point x="509.6745882352983" y="1486.0" type="qcurve" smooth="yes"/>
      <point x="695.0113137254734" y="1486.0"/>
      <point x="913.6816862745267" y="1259.4723660130999"/>
      <point x="913.6816862745267" y="1078.5563398692866" type="qcurve" smooth="yes"/>
      <point x="913.6816862745267" y="1055.8896732026199" type="line"/>
      <point x="798.9745490195783" y="1055.8896732026199" type="line"/>
      <point x="798.9745490195783" y="1078.5563398692866" type="line" smooth="yes"/>
      <point x="798.9745490195783" y="1209.4751764705968"/>
      <point x="653.0644680277733" y="1380.4301830065501"/>
      <point x="509.6745882352983" y="1380.4301830065501" type="qcurve" smooth="yes"/>
      <point x="361.0445175425033" y="1380.4301830065501"/>
      <point x="229.68362091506498" y="1236.7578431372633"/>
      <point x="229.68362091506498" y="1132.9205228758367" type="qcurve" smooth="yes"/>
      <point x="229.68362091506498" y="1040.3220000000001"/>
      <point x="359.6346993464333" y="884.0818169934499"/>
      <point x="561.014379084935" y="795.56865359476" type="qcurve" smooth="yes"/>
      <point x="745.9022287581516" y="712.9636601307134"/>
      <point x="938.62050980393" y="526.7499869280933"/>
      <point x="938.62050980393" y="359.99549019606997" type="qcurve" smooth="yes"/>
      <point x="938.62050980393" y="167.88966013071334"/>
      <point x="712.3016405228533" y="-30.0"/>
      <point x="518.3770849673217" y="-30.0" type="qcurve" smooth="yes"/>
      <point x="323.92219607845664" y="-30.0"/>
      <point x="90.0" y="170.32183006535666"/>
    </contour>
  </outline>
</glyph>
<glyph name="T" format="2">
  <advance width="995"/>
  <unicode hex="0054"/>
  <outline>
    <contour>
      <point x="24.0" y="1353.50618300655" type="line"/>
      <point x="24.0" y="1456.0" type="line"/>
      <point x="970.57549019607" y="1456.0" type="line"/>
      <point x="970.57549019607" y="1353.50618300655" type="line"/>
      <point x="553.820562091485" y="1353.50618300655" type="line"/>
      <point x="553.820562091485" y="0.0" type="line"/>
      <point x="440.180091503275" y="0.0" type="line"/>
      <point x="440.180091503275" y="1353.50618300655" type="line"/>
    </contour>
  </outline>
</glyph>
<glyph name="U" format="2">
  <advance width="1167"/>
  <unicode hex="0055"/>
  <outline>
    <contour>
      <point x="155.0" y="490.488235294105" type="qcurve" smooth="yes"/>
      <point x="155.0" y="1456.0" type="line"/>
      <point x="268.64047058821" y="1456.0" type="line"/>
      <point x="268.64047058821" y="447.82156862743835" type="line" smooth="yes"/>
      <point x="268.64047058821" y="258.39498412695"/>
      <point x="440.6626078275633" y="75.56981699344999"/>
      <point x="583.462418300655" y="75.56981699344999" type="qcurve" smooth="yes"/>
      <point x="724.08409927152" y="75.56981699344999"/>
      <point x="895.1673725490534" y="259.4616507936167"/>
      <point x="895.1673725490534" y="447.82156862743835" type="qcurve" smooth="yes"/>
      <point x="895.1673725490534" y="1456.0" type="line"/>
      <point x="1010.3663398692867" y="1456.0" type="line"/>
      <point x="1010.3663398692867" y="490.488235294105" type="line" smooth="yes"/>
      <point x="1010.3663398692867" y="208.910784313755"/>
      <point x="769.7111503267834" y="-30.0"/>
      <point x="582.9705882352984" y="-30.0" type="qcurve" smooth="yes"/>
      <point x="396.72185620917" y="-30.0"/>
      <point x="155.0" y="208.910784313755"/>
    </contour>
  </outline>
</glyph>
<glyph name="V" format="2">
  <advance width="1022"/>
  <unicode hex="0056"/>
  <outline>
    <contour>
      <point x="0.0" y="1456.0" type="line"/>
      <point x="119.26895424839833" y="1456.0" type="line"/>
      <point x="463.0098039215433" y="273.88431372547336" type="line" smooth="yes"/>
      <point x="474.76078431375504" y="234.30784313726332"/>
      <point x="502.7218954248183" y="141.460457516375"/>
      <point x="511.3477124182683" y="98.55032679738" type="qcurve"/>
      <point x="518.0725490195783" y="98.55032679738" type="line"/>
      <point x="525.6316993464334" y="141.460457516375"/>
      <point x="552.0928104574966" y="234.30784313726332"/>
      <point x="564.0686274509467" y="273.88431372547336" type="qcurve" smooth="yes"/>
      <point x="909.6594771241632" y="1456.0" type="line"/>
      <point x="1022.1777777778016" y="1456.0" type="line"/>
      <point x="586.4" y="-10.0" type="line"/>
      <point x="435.06111111113506" y="-10.0" type="line"/>
    </contour>
  </outline>
</glyph>
<glyph name="W" format="2">
  <advance width="1620"/>
  <unicode hex="0057"/>
  <outline>
    <contour>
      <point x="378.5431372548767" y="-10.0" type="line"/>
      <point x="50.0" y="1456.0" type="line"/>
      <point x="163.985947712445" y="1456.0" type="line"/>
      <point x="416.19281045749665" y="264.62254901957834" type="line" smooth="yes"/>
      <point x="423.61797385618667" y="228.48921568624502"/>
      <point x="433.8526143791117" y="182.985947712445"/>
      <point x="439.4277777778017" y="146.785947712445" type="qcurve"/>
      <point x="444.8774509804217" y="146.785947712445" type="line"/>
      <point x="450.31078431375505" y="182.985947712445"/>
      <point x="459.336928104585" y="228.48921568624502"/>
      <point x="467.27026143791835" y="264.62254901957834" type="qcurve" smooth="yes"/>
      <point x="743.2588235294033" y="1456.0" type="line"/>
      <point x="881.1225490195783" y="1456.0" type="line"/>
      <point x="1164.310784313755" y="264.62254901957834" type="line" smooth="yes"/>
      <point x="1172.735947712445" y="228.48921568624502"/>
      <point x="1182.211764705895" y="182.985947712445"/>
      <point x="1189.9202614379183" y="146.785947712445" type="qcurve"/>
      <point x="1196.6450980392283" y="146.785947712445" type="line"/>
      <point x="1202.0784313725617" y="182.985947712445"/>
      <point x="1210.4042483660116" y="228.48921568624502"/>
      <point x="1216.7627450980349" y="264.62254901957834" type="qcurve" smooth="yes"/>
      <point x="1459.9035947712516" y="1456.0" type="line"/>
      <point x="1570.2722222221985" y="1456.0" type="line"/>
      <point x="1242.7957516339884" y="-10.0" type="line"/>
      <point x="1118.5836601307133" y="-10.0" type="line"/>
      <point x="833.2529411764917" y="1197.562418300655" type="line" smooth="yes"/>
      <point x="824.8277777778017" y="1233.6957516339883"/>
      <point x="814.0849673202333" y="1291.6173202614266"/>
      <point x="810.2934640522567" y="1319.5839869280933" type="qcurve"/>
      <point x="802.2934640522567" y="1319.5839869280933" type="line"/>
      <point x="798.5019607842801" y="1291.6173202614266"/>
      <point x="788.82581699345" y="1233.6957516339883"/>
      <point x="780.8924836601167" y="1197.562418300655" type="qcurve" smooth="yes"/>
      <point x="500.62189542481826" y="-10.0" type="line"/>
    </contour>
  </outline>
</glyph>
<glyph name="X" format="2">
  <advance width="1080"/>
  <unicode hex="0058"/>
  <outline>
    <contour>
      <point x="25.0" y="0.0" type="line"/>
      <point x="500.771215686245" y="782.9113333333333" type="line"/>
      <point x="511.84252287583666" y="782.9113333333333" type="line"/>
      <point x="906.64614379083" y="1456.0" type="line"/>
      <point x="1030.9624052287484" y="1456.0" type="line"/>
      <point x="578.2728431372633" y="693.0886666666667" type="line"/>
      <point x="569.3348692810766" y="693.0886666666667" type="line"/>
      <point x="148.82443137256166" y="0.0" type="line"/>
    </contour>
    <contour>
      <point x="48.61798692809334" y="1456.0" type="line"/>
      <point x="179.57822875815168" y="1456.0" type="line"/>
      <point x="574.91818300655" y="782.9113333333333" type="line"/>
      <point x="579.8698431372633" y="782.9113333333333" type="line"/>
      <point x="1054.088562091485" y="0.0" type="line"/>
      <point x="922.06165359476" y="0.0" type="line"/>
      <point x="504.7007124182684" y="693.0886666666667" type="line"/>
      <point x="500.2408823529117" y="693.0886666666667" type="line"/>
    </contour>
  </outline>
</glyph>
<glyph name="Y" format="2">
  <advance width="1023"/>
  <unicode hex="0059"/>
  <outline>
    <contour>
      <point x="453.74224836601167" y="0.0" type="line"/>
      <point x="453.74224836601167" y="571.94850980393" type="line"/>
      <point x="15.0" y="1456.0" type="line"/>
      <point x="143.27843137256167" y="1456.0" type="line"/>
      <point x="449.2950980392284" y="824.09967320262" type="line" smooth="yes"/>
      <point x="463.5705882352984" y="794.09967320262"/>
      <point x="494.47973856208165" y="711.74803921572"/>
      <point x="508.9800653594616" y="677.9225490195784" type="qcurve"/>
      <point x="519.038562091485" y="677.9225490195784" type="line"/>
      <point x="533.314052287555" y="711.74803921572"/>
      <point x="562.07320261441" y="794.09967320262"/>
      <point x="576.57352941179" y="824.09967320262" type="qcurve" smooth="yes"/>
      <point x="886.2205228758367" y="1456.0" type="line"/>
      <point x="1007.6834640522567" y="1456.0" type="line"/>
      <point x="568.4493856208883" y="571.94850980393" type="line"/>
      <point x="568.4493856208883" y="0.0" type="line"/>
    </contour>
  </outline>
</glyph>
<glyph name="Z" format="2">
  <advance width="942"/>
  <unicode hex="005A"/>
  <outline>
    <contour>
      <point x="-0.9797385620816641" y="0.0" type="line"/>
      <point x="-0.9797385620816641" y="84.00198692809333" type="line"/>
      <point x="771.7038954248184" y="1353.50618300655" type="line"/>
      <point x="12.347921568631662" y="1353.50618300655" type="line"/>
      <point x="12.347921568631662" y="1456.0" type="line"/>
      <point x="909.1946339868999" y="1456.0" type="line"/>
      <point x="909.1946339868999" y="1371.9980130719066" type="line"/>
      <point x="136.511" y="102.49381699345" type="line"/>
      <point x="944.0792875817317" y="102.49381699345" type="line"/>
      <point x="944.0792875817317" y="0.0" type="line"/>
    </contour>
  </outline>
</glyph>
<glyph name="bracketleft" format="2">
  <advance width="514"/>
  <unicode hex="005B"/>
  <outline>
    <contour>
      <point x="144.0" y="-310.0" type="line"/>
      <point x="144.0" y="1456.0" type="line"/>
      <point x="526.1049411764916" y="1456.0" type="line"/>
      <point x="526.1049411764916" y="1352.9726797385733" type="line"/>
      <point x="255.94980392154332" y="1352.9726797385733" type="line"/>
      <point x="255.94980392154332" y="-206.97267973857333" type="line"/>
      <point x="526.1049411764916" y="-206.97267973857333" type="line"/>
      <point x="526.1049411764916" y="-310.0" type="line"/>
    </contour>
  </outline>
</glyph>
<glyph name="backslash" format="2">
  <advance width="482"/>
  <unicode hex="005C"/>
  <outline>
    <contour>
      <point x="-113.81830065356667" y="1456.0" type="line"/>
      <point x="20.511437908514992" y="1456.0" type="line"/>
      <point x="596.1186274509466" y="-125.0" type="line"/>
      <point x="461.6470588235083" y="-125.0" type="line"/>
    </contour>
  </outline>
</glyph>
<glyph name="bracketright" format="2">
  <advance width="514"/>
  <unicode hex="005D"/>
  <outline>
    <contour>
      <point x="369.6834640522567" y="-310.0" type="line"/>
      <point x="-12.913307189519998" y="-310.0" type="line"/>
      <point x="-12.913307189519998" y="-206.97267973857333" type="line"/>
      <point x="257.2418300653567" y="-206.97267973857333" type="line"/>
      <point x="257.2418300653567" y="1352.9726797385733" type="line"/>
      <point x="-12.913307189519998" y="1352.9726797385733" type="line"/>
      <point x="-12.913307189519998" y="1456.0" type="line"/>
      <point x="369.6834640522567" y="1456.0" type="line"/>
    </contour>
  </outline>
</glyph>
<glyph name="asciicircum" format="2">
  <advance width="1050"/>
  <unicode hex="005E"/>
  <outline>
    <contour>
      <point x="25.0" y="720.0" type="line"/>
      <point x="475.81477124184835" y="1456.0" type="line"/>
      <point x="574.2400653594616" y="1456.0" type="line"/>
      <point x="1025.05483660131" y="720.0" type="line"/>
      <point x="896.629542483625" y="720.0" type="line"/>
      <point x="525.027418300655" y="1333.9446274509467" type="line"/>
      <point x="153.4252941176133" y="720.0" type="line"/>
    </contour>
  </outline>
</glyph>
<glyph name="underscore" format="2">
  <advance width="756"/>
  <unicode hex="005F"/>
  <outline>
    <contour>
      <point x="0.0" y="-14.74281045749666" type="line"/>
      <point x="0.0" y="83.62352941179" type="line"/>
      <point x="756.3192810457783" y="83.62352941179" type="line"/>
      <point x="756.3192810457783" y="-14.74281045749666" type="line"/>
    </contour>
  </outline>
</glyph>
<glyph name="grave" format="2">
  <advance width="1002"/>
  <unicode hex="0060"/>
  <outline>
    <contour>
      <point x="618.85" y="1204.0" type="line"/>
      <point x="320.56666666666666" y="1479.7166666666667" type="line"/>
      <point x="424.1166666666667" y="1551.0333333333333" type="line"/>
      <point x="677.9833333333333" y="1247.8833333333334" type="line"/>
    </contour>
  </outline>
</glyph>
<glyph name="a" format="2">
  <advance width="952"/>
  <unicode hex="0061"/>
  <outline>
    <contour>
      <point x="90.0" y="293.5333333333333" type="qcurve" smooth="yes"/>
      <point x="90.0" y="456.39346405225666"/>
      <point x="288.0081699346433" y="622.4836601307134"/>
      <point x="462.26470588238664" y="622.4836601307134" type="qcurve" smooth="yes"/>
      <point x="695.8271241830417" y="622.4836601307134" type="line"/>
      <point x="695.8271241830417" y="720.0" type="line" smooth="yes"/>
      <point x="695.8271241830417" y="838.3663398692867"/>
      <point x="599.8052287581517" y="984.3160130719067"/>
      <point x="481.74869281048" y="984.3160130719067" type="qcurve" smooth="yes"/>
      <point x="364.4088235294033" y="984.3160130719067"/>
      <point x="262.40326797387166" y="860.4179738561867"/>
      <point x="262.40326797387166" y="769.5081699346433" type="qcurve" smooth="yes"/>
      <point x="262.40326797387166" y="764.5081699346433" type="line"/>
      <point x="153.17679738559" y="764.5081699346433" type="line"/>
      <point x="153.17679738559" y="769.5081699346433" type="line" smooth="yes"/>
      <point x="153.17679738559" y="912.2431372548766"/>
      <point x="329.20098039214" y="1082.0"/>
      <point x="486.89052287583667" y="1082.0" type="qcurve" smooth="yes"/>
      <point x="639.913398692795" y="1082.0"/>
      <point x="807.9787581699418" y="910.6666666666666"/>
      <point x="807.9787581699418" y="720.0" type="qcurve" smooth="yes"/>
      <point x="807.9787581699418" y="240.0" type="line" smooth="yes"/>
      <point x="807.9787581699418" y="175.0"/>
      <point x="828.037581699345" y="60.0"/>
      <point x="846.0964052287483" y="16.0" type="qcurve"/>
      <point x="846.0964052287483" y="0.0" type="line"/>
      <point x="739.861764705895" y="0.0" type="line"/>
      <point x="725.9281045751817" y="25.016666666666666"/>
      <point x="703.6689542483983" y="105.08333333333333"/>
      <point x="698.885620915065" y="145.46666666666667" type="qcurve"/>
      <point x="665.7676470588067" y="84.81633986928667"/>
      <point x="506.2176470588067" y="-20.0"/>
      <point x="388.47810457518165" y="-20.0" type="qcurve" smooth="yes"/>
      <point x="257.14019607845665" y="-20.0"/>
      <point x="90.0" y="123.31503267976666"/>
    </contour>
    <contour>
      <point x="201.65980392154336" y="287.85" type="qcurve" smooth="yes"/>
      <point x="201.65980392154336" y="172.46535947714665"/>
      <point x="307.2905228758367" y="77.68398692809333"/>
      <point x="410.52973856208166" y="77.68398692809333" type="qcurve" smooth="yes"/>
      <point x="517.40196078428" y="77.68398692809333"/>
      <point x="695.8271241830417" y="212.62549019607002"/>
      <point x="695.8271241830417" y="326.87549019607" type="qcurve" smooth="yes"/>
      <point x="695.8271241830417" y="532.9163398692866" type="line"/>
      <point x="481.74869281048" y="532.9163398692866" type="line" smooth="yes"/>
      <point x="345.9084967320233" y="532.9163398692866"/>
      <point x="201.65980392154336" y="417.94313725487666"/>
    </contour>
  </outline>
</glyph>
<glyph name="b" format="2">
  <advance width="1012"/>
  <unicode hex="0062"/>
  <outline>
    <contour>
      <point x="148.0" y="0.0" type="line"/>
      <point x="148.0" y="1536.0" type="line"/>
      <point x="259.8891372548767" y="1536.0" type="line"/>
      <point x="259.8891372548767" y="933.1825490195783" type="line"/>
      <point x="307.56668595395" y="995.1980319652849"/>
      <point x="457.2582579613733" y="1072.0"/>
      <point x="561.0195032679767" y="1072.0" type="qcurve" smooth="yes"/>
      <point x="732.0435424836251" y="1072.0"/>
      <point x="926.2855555555317" y="772.0"/>
      <point x="926.2855555555317" y="542.0" type="qcurve" smooth="yes"/>
      <point x="926.2855555555317" y="510.0" type="line" smooth="yes"/>
      <point x="926.2855555555317" y="280.0"/>
      <point x="732.0435424836251" y="-20.0"/>
      <point x="561.0195032679767" y="-20.0" type="qcurve" smooth="yes"/>
      <point x="457.29008447866835" y="-20.0"/>
      <point x="296.51454090690004" y="68.79844947556833"/>
      <point x="255.28264052285334" y="131.81745098042168" type="qcurve"/>
      <point x="255.58613071892333" y="131.81745098042168" type="line"/>
      <point x="252.0596339869" y="0.0" type="line"/>
    </contour>
    <contour>
      <point x="259.8891372548767" y="250.94326797387168" type="line"/>
      <point x="291.5313820844583" y="182.38122995236333"/>
      <point x="428.9580820447333" y="80.97631372547335"/>
      <point x="527.2058692810767" y="80.97631372547335" type="qcurve" smooth="yes"/>
      <point x="674.8592502571083" y="80.97631372547335"/>
      <point x="812.0259215686317" y="290.97669281048"/>
      <point x="812.0259215686317" y="478.0" type="qcurve" smooth="yes"/>
      <point x="812.0259215686317" y="574.0" type="line" smooth="yes"/>
      <point x="812.0259215686317" y="761.02330718952"/>
      <point x="674.8592502571083" y="971.0236862745267"/>
      <point x="531.4725359477434" y="971.0236862745267" type="qcurve"/>
      <point x="436.42474871139996" y="971.0236862745267"/>
      <point x="287.25430672362666" y="861.0679311831067"/>
      <point x="259.8891372548767" y="801.0567320261283" type="qcurve"/>
    </contour>
  </outline>
</glyph>
<glyph name="c" format="2">
  <advance width="834"/>
  <unicode hex="0063"/>
  <outline>
    <contour>
      <point x="85.0" y="510.0" type="qcurve" smooth="yes"/>
      <point x="85.0" y="542.0" type="line" smooth="yes"/>
      <point x="85.0" y="801.3333333333334"/>
      <point x="301.80849673202334" y="1082.0"/>
      <point x="490.65751633988333" y="1082.0" type="qcurve" smooth="yes"/>
      <point x="665.8062091502916" y="1082.0"/>
      <point x="841.8049019607716" y="867.32483660131"/>
      <point x="841.8049019607716" y="714.0163398692866" type="qcurve" smooth="yes"/>
      <point x="841.8049019607716" y="709.0163398692866" type="line"/>
      <point x="734.711764705895" y="709.0163398692866" type="line"/>
      <point x="734.711764705895" y="714.0163398692866" type="line" smooth="yes"/>
      <point x="734.711764705895" y="824.92614379083"/>
      <point x="626.1807189542217" y="980.1908496732167"/>
      <point x="489.59084967321667" y="980.1908496732167" type="qcurve" smooth="yes"/>
      <point x="343.47516339869003" y="980.1908496732167"/>
      <point x="198.50980392154332" y="763.85130718952"/>
      <point x="198.50980392154332" y="574.0" type="qcurve" smooth="yes"/>
      <point x="198.50980392154332" y="478.0" type="line" smooth="yes"/>
      <point x="198.50980392154332" y="287.43202614381335"/>
      <point x="341.35849673202335" y="70.74248366011668"/>
      <point x="479.99084967321664" y="70.74248366011668" type="qcurve" smooth="yes"/>
      <point x="618.714052287555" y="70.74248366011668"/>
      <point x="734.711764705895" y="227.07385620917"/>
      <point x="734.711764705895" y="337.98366013071336" type="qcurve" smooth="yes"/>
      <point x="734.711764705895" y="342.98366013071336" type="line"/>
      <point x="841.8049019607716" y="342.98366013071336" type="line"/>
      <point x="841.8049019607716" y="337.98366013071336" type="line" smooth="yes"/>
      <point x="841.8049019607716" y="184.67516339869"/>
      <point x="665.8062091502916" y="-30.0"/>
      <point x="482.12418300654997" y="-30.0" type="qcurve" smooth="yes"/>
      <point x="301.80849673202334" y="-30.0"/>
      <point x="85.0" y="250.66666666666666"/>
    </contour>
  </outline>
</glyph>
<glyph name="d" format="2">
  <advance width="1012"/>
  <unicode hex="0064"/>
  <outline>
    <contour>
      <point x="85.0" y="510.0" type="qcurve" smooth="yes"/>
      <point x="85.0" y="542.0" type="line" smooth="yes"/>
      <point x="85.0" y="772.0"/>
      <point x="279.2420130719067" y="1072.0"/>
      <point x="450.266052287555" y="1072.0" type="qcurve" smooth="yes"/>
      <point x="554.5467777778016" y="1072.0"/>
      <point x="704.2491307189233" y="995.2495294117899"/>
      <point x="751.396418300655" y="933.1825490195783" type="qcurve"/>
      <point x="751.396418300655" y="1536.0" type="line"/>
      <point x="863.7773856208883" y="1536.0" type="line"/>
      <point x="863.7773856208883" y="0.0" type="line"/>
      <point x="759.7177516339883" y="0.0" type="line"/>
      <point x="755.6994248366084" y="131.81745098042168" type="line"/>
      <point x="755.5110849673217" y="131.81745098042168" type="line"/>
      <point x="714.7394575163751" y="68.79847058821"/>
      <point x="554.432111111135" y="-20.0"/>
      <point x="450.266052287555" y="-20.0" type="qcurve" smooth="yes"/>
      <point x="279.2420130719067" y="-20.0"/>
      <point x="85.0" y="280.0"/>
    </contour>
    <contour>
      <point x="198.76780392154333" y="478.0" type="line" smooth="yes"/>
      <point x="198.76780392154333" y="290.97669281048"/>
      <point x="336.942" y="80.97631372547335"/>
      <point x="483.58785620917" y="80.97631372547335" type="qcurve" smooth="yes"/>
      <point x="582.3625882352984" y="80.97631372547335"/>
      <point x="720.1912810457783" y="183.48095424839832"/>
      <point x="751.396418300655" y="250.94326797387168" type="qcurve"/>
      <point x="751.396418300655" y="801.0567320261283" type="line"/>
      <point x="720.305947712445" y="868.5190457516017"/>
      <point x="582.3625882352984" y="971.0236862745267"/>
      <point x="483.58785620917" y="971.0236862745267" type="qcurve" smooth="yes"/>
      <point x="336.942" y="971.0236862745267"/>
      <point x="198.76780392154333" y="761.02330718952"/>
      <point x="198.76780392154333" y="574.0" type="qcurve" smooth="yes"/>
    </contour>
  </outline>
</glyph>
<glyph name="e" format="2">
  <advance width="906"/>
  <unicode hex="0065"/>
  <outline>
    <contour>
      <point x="85.0" y="510.0" type="qcurve" smooth="yes"/>
      <point x="85.0" y="542.0" type="line" smooth="yes"/>
      <point x="85.0" y="801.3333333333334"/>
      <point x="302.37516339869" y="1082.0"/>
      <point x="480.74052287583663" y="1082.0" type="qcurve" smooth="yes"/>
      <point x="656.9558823529117" y="1082.0"/>
      <point x="847.3633986927949" y="829.9333333333333"/>
      <point x="847.3633986927949" y="560.0" type="qcurve" smooth="yes"/>
      <point x="847.3633986927949" y="509.02450980393" type="line"/>
      <point x="134.49150326797667" y="509.02450980393" type="line"/>
      <point x="134.49150326797667" y="606.4836601307134" type="line"/>
      <point x="733.6369281045851" y="606.4836601307134" type="line"/>
      <point x="733.6369281045851" y="605.8960784313683" type="line" smooth="yes"/>
      <point x="733.6369281045851" y="790.49967320262"/>
      <point x="620.7578431372633" y="980.7656862745266"/>
      <point x="470.539215686245" y="980.7656862745266" type="qcurve" smooth="yes"/>
      <point x="340.0" y="980.7656862745266"/>
      <point x="194.32614379083" y="786.6179738561866"/>
      <point x="194.32614379083" y="574.0" type="qcurve" smooth="yes"/>
      <point x="194.32614379083" y="478.0" type="line" smooth="yes"/>
      <point x="194.32614379083" y="274.63202614381333"/>
      <point x="337.95032679738" y="71.23431372547333"/>
      <point x="498.98300653595334" y="71.23431372547333" type="qcurve" smooth="yes"/>
      <point x="595.737254901965" y="71.23431372547333"/>
      <point x="715.4686274509467" y="151.61797385618667"/>
      <point x="760.0702614379184" y="213.90980392154333" type="qcurve"/>
      <point x="851.9794117647016" y="160.21666666666667" type="line"/>
      <point x="803.0447712418484" y="72.11666666666667"/>
      <point x="629.312745098035" y="-30.0"/>
      <point x="509.64967320261997" y="-30.0" type="qcurve" smooth="yes"/>
      <point x="304.52516339869" y="-30.0"/>
      <point x="85.0" y="250.66666666666666"/>
    </contour>
  </outline>
</glyph>
<glyph name="f" format="2">
  <advance width="520"/>
  <unicode hex="0066"/>
  <outline>
    <contour>
      <point x="194.23450980393" y="0.0" type="line"/>
      <point x="194.23450980393" y="1183.6094117647017" type="line" smooth="yes"/>
      <point x="194.23450980393" y="1365.2613402364766"/>
      <point x="349.4704069136967" y="1556.0"/>
      <point x="484.49166013071334" y="1556.0" type="qcurve" smooth="yes"/>
      <point x="511.80547712416336" y="1556.0"/>
      <point x="572.5081045751816" y="1547.0253333333335"/>
      <point x="597.713254901965" y="1540.0" type="qcurve"/>
      <point x="587.8294248366084" y="1443.46934640524" type="line"/>
      <point x="569.447437908515" y="1449.0233464052399"/>
      <point x="517.2356339869" y="1456.9726797385733"/>
      <point x="490.82981699345" y="1456.9726797385733" type="qcurve" smooth="yes"/>
      <point x="402.69131764708834" y="1456.9726797385733"/>
      <point x="305.63181699345" y="1319.7577124182683"/>
      <point x="305.63181699345" y="1183.6094117647017" type="qcurve" smooth="yes"/>
      <point x="305.63181699345" y="1012.6430065359534" type="line"/>
      <point x="305.63181699345" y="996.4910065359534" type="line"/>
      <point x="305.63181699345" y="0.0" type="line"/>
    </contour>
    <contour>
      <point x="25.0" y="956.1503529411934" type="line"/>
      <point x="25.0" y="1052.0" type="line"/>
      <point x="236.41884967321667" y="1052.0" type="line"/>
      <point x="262.00515032678334" y="1052.0" type="line"/>
      <point x="530.6592941176134" y="1052.0" type="line"/>
      <point x="530.6592941176134" y="956.1503529411934" type="line"/>
    </contour>
  </outline>
</glyph>
<glyph name="g" format="2">
  <advance width="1012"/>
  <unicode hex="0067"/>
  <outline>
    <contour>
      <point x="123.06896732023334" y="-310.5" type="qcurve"/>
      <point x="180.26032679738" y="-219.09601307190667" type="line"/>
      <point x="223.05845098042167" y="-265.71300653595335"/>
      <point x="375.33162745094666" y="-331.94734640524"/>
      <point x="465.11619607845665" y="-331.94734640524" type="qcurve" smooth="yes"/>
      <point x="597.4275466865399" y="-331.94734640524"/>
      <point x="751.396418300655" y="-145.99467973857332"/>
      <point x="751.396418300655" y="21.967320261426664" type="qcurve" smooth="yes"/>
      <point x="751.396418300655" y="118.81745098042167" type="line"/>
      <point x="704.2491307189233" y="56.75047058821"/>
      <point x="554.5467777778016" y="-20.0"/>
      <point x="436.3993856208883" y="-20.0" type="qcurve" smooth="yes"/>
      <point x="268.57534640524" y="-20.0"/>
      <point x="85.0" y="269.3333333333333"/>
      <point x="85.0" y="510.0" type="qcurve" smooth="yes"/>
      <point x="85.0" y="542.0" type="line" smooth="yes"/>
      <point x="85.0" y="772.0"/>
      <point x="279.2420130719067" y="1072.0"/>
      <point x="450.266052287555" y="1072.0" type="qcurve" smooth="yes"/>
      <point x="554.432111111135" y="1072.0"/>
      <point x="714.7394575163751" y="983.20152941179"/>
      <point x="755.5110849673217" y="920.1825490195783" type="qcurve"/>
      <point x="755.6994248366084" y="920.1825490195783" type="line"/>
      <point x="759.7177516339883" y="1052.0" type="line"/>
      <point x="863.7773856208883" y="1052.0" type="line"/>
      <point x="863.7773856208883" y="21.967320261426664" type="line" smooth="yes"/>
      <point x="863.7773856208883" y="-199.01633986928667"/>
      <point x="645.2460588235083" y="-436.0"/>
      <point x="470.2308627451234" y="-436.0" type="qcurve" smooth="yes"/>
      <point x="362.58194771244496" y="-436.0"/>
      <point x="185.64992156863167" y="-366.75333333333333"/>
    </contour>
    <contour>
      <point x="198.76780392154333" y="473.73333333333335" type="line" smooth="yes"/>
      <point x="198.76780392154333" y="286.7100261438133"/>
      <point x="333.74199999999996" y="80.97631372547335"/>
      <point x="476.1211895425033" y="80.97631372547335" type="qcurve" smooth="yes"/>
      <point x="585.5625882352983" y="80.97631372547335"/>
      <point x="727.7726143791117" y="183.48095424839832"/>
      <point x="751.396418300655" y="250.94326797387168" type="qcurve"/>
      <point x="751.396418300655" y="801.0567320261283" type="line"/>
      <point x="724.4579477124449" y="856.7857124182683"/>
      <point x="589.829254901965" y="971.0236862745267"/>
      <point x="491.05452287583665" y="971.0236862745267" type="qcurve" smooth="yes"/>
      <point x="336.942" y="971.0236862745267"/>
      <point x="198.76780392154333" y="756.7566405228533"/>
      <point x="198.76780392154333" y="569.7333333333333" type="qcurve" smooth="yes"/>
    </contour>
  </outline>
</glyph>
<glyph name="h" format="2">
  <advance width="982"/>
  <unicode hex="0068"/>
  <outline>
    <contour>
      <point x="148.0" y="0.0" type="line"/>
      <point x="148.0" y="1536.0" type="line"/>
      <point x="259.8891372548767" y="1536.0" type="line"/>
      <point x="259.8891372548767" y="890.2747712418483" type="line"/>
      <point x="307.6790653594617" y="977.0596993464334"/>
      <point x="453.8716274509467" y="1072.0"/>
      <point x="566.81703921572" y="1072.0" type="qcurve" smooth="yes"/>
      <point x="695.3170588235083" y="1072.0"/>
      <point x="844.3227712418484" y="905.4469150326784"/>
      <point x="844.3227712418484" y="737.2160130719067" type="qcurve" smooth="yes"/>
      <point x="844.3227712418484" y="0.0" type="line"/>
      <point x="731.9418039215433" y="0.0" type="line"/>
      <point x="731.9418039215433" y="739.2160130719067" type="line" smooth="yes"/>
      <point x="731.9418039215433" y="853.0827581699417"/>
      <point x="635.7627581699417" y="970.5315163398834"/>
      <point x="537.57003921572" y="970.5315163398834" type="qcurve" smooth="yes"/>
      <point x="437.02546405225667" y="970.5315163398834"/>
      <point x="294.418254901965" y="848.4744052287484"/>
      <point x="259.8891372548767" y="768.6392810457784" type="qcurve"/>
      <point x="259.8891372548767" y="0.0" type="line"/>
    </contour>
  </outline>
</glyph>
<glyph name="i" format="2">
  <advance width="426"/>
  <unicode hex="0069"/>
  <outline>
    <contour>
      <point x="157.0" y="0.0" type="line"/>
      <point x="157.0" y="1052.0" type="line"/>
      <point x="268.8891372548767" y="1052.0" type="line"/>
      <point x="268.8891372548767" y="0.0" type="line"/>
    </contour>
    <contour>
      <point x="146.66732026142668" y="1391.1258431372635" type="qcurve" smooth="yes"/>
      <point x="146.66732026142668" y="1424.2286797385732"/>
      <point x="181.15265359476" y="1469.62418300655"/>
      <point x="212.69865359476" y="1469.62418300655" type="qcurve" smooth="yes"/>
      <point x="244.24465359476" y="1469.62418300655"/>
      <point x="278.72998692809335" y="1424.2286797385732"/>
      <point x="278.72998692809335" y="1391.1258431372635" type="qcurve" smooth="yes"/>
      <point x="278.72998692809335" y="1357.5311764705966"/>
      <point x="244.24465359476" y="1312.6275032679766"/>
      <point x="213.19048366011668" y="1312.6275032679766" type="qcurve" smooth="yes"/>
      <point x="181.64448366011666" y="1312.6275032679766"/>
      <point x="146.66732026142668" y="1357.5311764705966"/>
    </contour>
  </outline>
</glyph>
<glyph name="j" format="2">
  <advance width="426"/>
  <unicode hex="006A"/>
  <outline>
    <contour>
      <point x="-91.89346405225668" y="-412.8666666666667" type="qcurve"/>
      <point x="-91.89346405225668" y="-315.6826797385733" type="line"/>
      <point x="-73.49281045749667" y="-321.6826797385733"/>
      <point x="-12.923856209170001" y="-334.9660130719067"/>
      <point x="13.468627450946663" y="-334.9660130719067" type="qcurve" smooth="yes"/>
      <point x="81.70490196077166" y="-334.9660130719067"/>
      <point x="157.0" y="-238.46601307190667"/>
      <point x="157.0" y="-128.03267973857334" type="qcurve" smooth="yes"/>
      <point x="157.0" y="1052.0" type="line"/>
      <point x="268.65980392154336" y="1052.0" type="line"/>
      <point x="268.65980392154336" y="-90.0" type="line" smooth="yes"/>
      <point x="268.65980392154336" y="-270.0"/>
      <point x="145.15522875815168" y="-436.0"/>
      <point x="26.42581699345" y="-436.0" type="qcurve" smooth="yes"/>
      <point x="-5.375490196070004" y="-436.0"/>
      <point x="-72.20130718952001" y="-419.94150326797666"/>
    </contour>
    <contour>
      <point x="146.66732026142668" y="1391.4411764705967" type="qcurve" smooth="yes"/>
      <point x="146.66732026142668" y="1423.99934640524"/>
      <point x="181.26732026142668" y="1469.62418300655"/>
      <point x="212.58398692809334" y="1469.62418300655" type="qcurve" smooth="yes"/>
      <point x="243.90065359476" y="1469.62418300655"/>
      <point x="278.50065359476" y="1423.99934640524"/>
      <point x="278.50065359476" y="1391.4411764705967" type="qcurve" smooth="yes"/>
      <point x="278.50065359476" y="1357.67450980393"/>
      <point x="243.90065359476" y="1312.5415032679769"/>
      <point x="213.07581699345002" y="1312.5415032679769" type="qcurve" smooth="yes"/>
      <point x="181.75915032678333" y="1312.5415032679769"/>
      <point x="146.66732026142668" y="1357.67450980393"/>
    </contour>
  </outline>
</glyph>
<glyph name="k" format="2">
  <advance width="890"/>
  <unicode hex="006B"/>
  <outline>
    <contour>
      <point x="148.0" y="0.0" type="line"/>
      <point x="148.0" y="1536.0" type="line"/>
      <point x="259.8891372548767" y="1536.0" type="line"/>
      <point x="259.8891372548767" y="595.98916339869" type="line"/>
      <point x="704.385620915065" y="1052.0" type="line"/>
      <point x="859.4746209150651" y="1052.0" type="line"/>
      <point x="259.65980392154336" y="442.0173202614267" type="line"/>
      <point x="259.65980392154336" y="0.0" type="line"/>
    </contour>
    <contour>
      <point x="762.3838562091701" y="0.0" type="line"/>
      <point x="378.99615686273665" y="634.0457777778017" type="line"/>
      <point x="465.11208496732166" y="725.3356209150651" type="line"/>
      <point x="905.8954248366083" y="0.0" type="line"/>
    </contour>
  </outline>
</glyph>
<glyph name="m" format="2">
  <advance width="1526"/>
  <unicode hex="006D"/>
  <outline>
    <contour>
      <point x="148.0" y="0.0" type="line"/>
      <point x="148.0" y="1052.0" type="line"/>
      <point x="252.0596339869" y="1052.0" type="line"/>
      <point x="255.58613071892333" y="911.3650980392283" type="line"/>
      <point x="255.28264052285334" y="911.3650980392283" type="line"/>
      <point x="309.888235294105" y="990.1076993464333"/>
      <point x="455.35659477125165" y="1072.0"/>
      <point x="548.6523333333333" y="1072.0" type="qcurve" smooth="yes"/>
      <point x="642.7194313725616" y="1072.0"/>
      <point x="772.8718235294034" y="979.5556993464334"/>
      <point x="800.3709673202334" y="891.0793986927949" type="qcurve"/>
      <point x="800.18214379083" y="891.0793986927949" type="line"/>
      <point x="848.6290240712117" y="974.271083743365"/>
      <point x="1008.6857298475251" y="1072.0"/>
      <point x="1110.11681699345" y="1072.0" type="qcurve" smooth="yes"/>
      <point x="1236.2875285102816" y="1072.0"/>
      <point x="1388.2645751633918" y="905.4469150326784"/>
      <point x="1388.2645751633918" y="789.4826797385733" type="qcurve" smooth="yes"/>
      <point x="1388.2645751633918" y="0.0" type="line"/>
      <point x="1275.800601307205" y="0.0" type="line"/>
      <point x="1275.800601307205" y="758.4160130719067" type="line" smooth="yes"/>
      <point x="1274.4729411764915" y="870.1494248366083"/>
      <point x="1168.129725490175" y="970.5315163398834"/>
      <point x="1074.9370065359535" y="970.5315163398834" type="qcurve" smooth="yes"/>
      <point x="980.5924313725617" y="970.5315163398834"/>
      <point x="853.403888888865" y="870.8472418300584"/>
      <point x="824.3227712418484" y="811.305947712445" type="qcurve"/>
      <point x="824.3227712418484" y="0.0" type="line"/>
      <point x="710.8751372548766" y="0.0" type="line"/>
      <point x="710.8751372548766" y="760.5493464052399" type="line" smooth="yes"/>
      <point x="710.0393071895201" y="870.1494248366083"/>
      <point x="596.8042614379183" y="970.5315163398834"/>
      <point x="514.77003921572" y="970.5315163398834" type="qcurve" smooth="yes"/>
      <point x="431.58396078428" y="970.5315163398834"/>
      <point x="293.2369215686317" y="870.8472418300584"/>
      <point x="259.8891372548767" y="811.305947712445" type="qcurve"/>
      <point x="259.8891372548767" y="0.0" type="line"/>
    </contour>
  </outline>
</glyph>
<glyph name="n" format="2">
  <advance width="982"/>
  <unicode hex="006E"/>
  <outline>
    <contour>
      <point x="148.0" y="0.0" type="line"/>
      <point x="148.0" y="1052.0" type="line"/>
      <point x="252.0596339869" y="1052.0" type="line"/>
      <point x="255.58613071892333" y="911.3650980392283" type="line"/>
      <point x="255.28264052285334" y="911.3650980392283" type="line"/>
      <point x="309.291235294105" y="990.5328627451233"/>
      <point x="462.373650453935" y="1072.0"/>
      <point x="558.6523333333333" y="1072.0" type="qcurve" smooth="yes"/>
      <point x="691.0503921568417" y="1072.0"/>
      <point x="844.3227712418484" y="905.4677767799517"/>
      <point x="844.3227712418484" y="709.4826797385733" type="qcurve" smooth="yes"/>
      <point x="844.3227712418484" y="0.0" type="line"/>
      <point x="731.9418039215433" y="0.0" type="line"/>
      <point x="731.9418039215433" y="722.14934640524" type="line" smooth="yes"/>
      <point x="731.9418039215433" y="851.5861082463999"/>
      <point x="627.232145740585" y="970.5315163398834"/>
      <point x="518.37003921572" y="970.5315163398834" type="qcurve" smooth="yes"/>
      <point x="422.62463862417667" y="970.5315163398834"/>
      <point x="292.25196627646835" y="863.4300892530833"/>
      <point x="259.8891372548767" y="800.6392810457784" type="qcurve"/>
      <point x="259.8891372548767" y="0.0" type="line"/>
    </contour>
  </outline>
</glyph>
<glyph name="o" format="2">
  <advance width="1001"/>
  <unicode hex="006F"/>
  <outline>
    <contour>
      <point x="85.0" y="510.0" type="qcurve" smooth="yes"/>
      <point x="85.0" y="542.0" type="line" smooth="yes"/>
      <point x="85.0" y="801.3333333333334"/>
      <point x="310.8848235294033" y="1082.0"/>
      <point x="500.22450980393" y="1082.0" type="qcurve" smooth="yes"/>
      <point x="689.5641960784567" y="1082.0"/>
      <point x="916.5156862745266" y="801.3333333333334"/>
      <point x="916.5156862745266" y="542.0" type="qcurve" smooth="yes"/>
      <point x="916.5156862745266" y="510.0" type="line" smooth="yes"/>
      <point x="916.5156862745266" y="250.66666666666666"/>
      <point x="689.5641960784567" y="-30.0"/>
      <point x="500.22450980393" y="-30.0" type="qcurve" smooth="yes"/>
      <point x="310.8848235294033" y="-30.0"/>
      <point x="85.0" y="250.66666666666666"/>
    </contour>
    <contour>
      <point x="198.76780392154333" y="574.0" type="qcurve" smooth="yes"/>
      <point x="198.76780392154333" y="478.0" type="line" smooth="yes"/>
      <point x="198.76780392154333" y="288.46852287583664"/>
      <point x="351.68732026142663" y="70.97631372547335"/>
      <point x="500.22450980393" y="70.97631372547335" type="qcurve" smooth="yes"/>
      <point x="648.7616993464334" y="70.97631372547335"/>
      <point x="802.7478823529117" y="288.46852287583664"/>
      <point x="802.7478823529117" y="478.0" type="qcurve" smooth="yes"/>
      <point x="802.7478823529117" y="574.0" type="line" smooth="yes"/>
      <point x="802.7478823529117" y="768.8648104574967"/>
      <point x="655.1616993464334" y="981.0236862745267"/>
      <point x="500.22450980393" y="981.0236862745267" type="qcurve" smooth="yes"/>
      <point x="345.28732026142666" y="981.0236862745267"/>
      <point x="198.76780392154333" y="763.5314771241633"/>
    </contour>
  </outline>
</glyph>
<glyph name="p" format="2">
  <advance width="1012"/>
  <unicode hex="0070"/>
  <outline>
    <contour>
      <point x="148.0" y="-416.0" type="line"/>
      <point x="148.0" y="1052.0" type="line"/>
      <point x="252.0596339869" y="1052.0" type="line"/>
      <point x="255.58613071892333" y="920.1825490195783" type="line"/>
      <point x="255.28264052285334" y="920.1825490195783" type="line"/>
      <point x="297.03792810458503" y="983.20152941179"/>
      <point x="457.345274509825" y="1072.0"/>
      <point x="561.0195032679767" y="1072.0" type="qcurve" smooth="yes"/>
      <point x="732.0435424836251" y="1072.0"/>
      <point x="926.2855555555317" y="772.0"/>
      <point x="926.2855555555317" y="542.0" type="qcurve" smooth="yes"/>
      <point x="926.2855555555317" y="510.0" type="line" smooth="yes"/>
      <point x="926.2855555555317" y="280.0"/>
      <point x="732.0435424836251" y="-20.0"/>
      <point x="561.0195032679767" y="-20.0" type="qcurve" smooth="yes"/>
      <point x="457.23060784315834" y="-20.0"/>
      <point x="307.528254901965" y="49.28380392154334"/>
      <point x="259.8891372548767" y="111.35078431375501" type="qcurve"/>
      <point x="259.8891372548767" y="-416.0" type="line"/>
    </contour>
    <contour>
      <point x="259.8891372548767" y="238.14326797387167" type="line"/>
      <point x="285.646274509825" y="188.81428758173166"/>
      <point x="418.25630065356665" y="80.97631372547335"/>
      <point x="527.2058692810767" y="80.97631372547335" type="qcurve" smooth="yes"/>
      <point x="671.1435555555316" y="80.97631372547335"/>
      <point x="812.0259215686317" y="290.97669281048"/>
      <point x="812.0259215686317" y="478.0" type="qcurve" smooth="yes"/>
      <point x="812.0259215686317" y="574.0" type="line" smooth="yes"/>
      <point x="812.0259215686317" y="761.02330718952"/>
      <point x="674.3435555555317" y="971.0236862745267"/>
      <point x="532.53920261441" y="971.0236862745267" type="qcurve" smooth="yes"/>
      <point x="431.05630065356667" y="971.0236862745267"/>
      <point x="289.4527712418483" y="869.5857124182684"/>
      <point x="259.8891372548767" y="811.723398692795" type="qcurve"/>
    </contour>
  </outline>
</glyph>
<glyph name="q" format="2">
  <advance width="1012"/>
  <unicode hex="0071"/>
  <outline>
    <contour>
      <point x="85.0" y="510.0" type="qcurve" smooth="yes"/>
      <point x="85.0" y="542.0" type="line" smooth="yes"/>
      <point x="85.0" y="772.0"/>
      <point x="279.29934640524" y="1072.0"/>
      <point x="450.3807189542216" y="1072.0" type="qcurve" smooth="yes"/>
      <point x="554.561111111135" y="1072.0"/>
      <point x="714.610457516375" y="983.37352941179"/>
      <point x="755.1957516339884" y="920.0392156862449" type="qcurve"/>
      <point x="755.9287581699417" y="920.0392156862449" type="line"/>
      <point x="759.5457516339884" y="1052.0" type="line"/>
      <point x="864.064052287555" y="1052.0" type="line"/>
      <point x="864.064052287555" y="-416.0" type="line"/>
      <point x="751.1957516339884" y="-416.0" type="line"/>
      <point x="751.1957516339884" y="118.960784313755" type="line"/>
      <point x="751.1957516339884" y="118.960784313755" type="line"/>
      <point x="703.97679738559" y="56.69313725487667"/>
      <point x="554.561111111135" y="-20.0"/>
      <point x="450.3807189542216" y="-20.0" type="qcurve" smooth="yes"/>
      <point x="279.29934640524" y="-20.0"/>
      <point x="85.0" y="280.0"/>
    </contour>
    <contour>
      <point x="198.76780392154333" y="478.0" type="line" smooth="yes"/>
      <point x="198.76780392154333" y="290.97669281048"/>
      <point x="336.942" y="80.97631372547335"/>
      <point x="483.58785620917" y="80.97631372547335" type="qcurve" smooth="yes"/>
      <point x="582.3625882352984" y="80.97631372547335"/>
      <point x="720.305947712445" y="183.48095424839832"/>
      <point x="751.396418300655" y="250.94326797387168" type="qcurve"/>
      <point x="751.396418300655" y="811.723398692795" type="line"/>
      <point x="724.4579477124449" y="869.5857124182684"/>
      <point x="595.1625882352984" y="971.0236862745267"/>
      <point x="494.25452287583664" y="971.0236862745267" type="qcurve" smooth="yes"/>
      <point x="347.60866666666664" y="971.0236862745267"/>
      <point x="198.76780392154333" y="772.7566405228533"/>
      <point x="198.76780392154333" y="574.0" type="qcurve" smooth="yes"/>
    </contour>
  </outline>
</glyph>
<glyph name="r" format="2">
  <advance width="621"/>
  <unicode hex="0072"/>
  <outline>
    <contour>
      <point x="148.0" y="0.0" type="line"/>
      <point x="148.0" y="1052.0" type="line"/>
      <point x="252.0596339869" y="1052.0" type="line"/>
      <point x="255.58613071892333" y="923.9100653594617" type="line"/>
      <point x="255.28264052285334" y="923.9100653594617" type="line"/>
      <point x="296.66603382203334" y="987.6434132757516"/>
      <point x="423.90510140904667" y="1082.0"/>
      <point x="511.1090457516017" y="1082.0" type="qcurve" smooth="yes"/>
      <point x="533.8603660131" y="1082.0"/>
      <point x="580.7695032679767" y="1072.0"/>
      <point x="591.14516339869" y="1068.0" type="qcurve"/>
      <point x="591.14516339869" y="959.8783529411934" type="line"/>
      <point x="570.50850980393" y="963.8783529411934"/>
      <point x="527.6310326797667" y="969.8276862745266"/>
      <point x="502.4065490195784" y="969.8276862745266" type="qcurve" smooth="yes"/>
      <point x="419.2420104574967" y="969.8276862745266"/>
      <point x="293.4103741768117" y="870.3063578704749"/>
      <point x="259.8891372548767" y="796.9590849673216" type="qcurve"/>
      <point x="259.8891372548767" y="0.0" type="line"/>
    </contour>
  </outline>
</glyph>
<glyph name="s" format="2">
  <advance width="856"/>
  <unicode hex="0073"/>
  <outline>
    <contour>
      <point x="80.0" y="310.98366013071336" type="line"/>
      <point x="191.65980392154336" y="310.98366013071336" type="line"/>
      <point x="191.65980392154336" y="305.4918300653567" type="line" smooth="yes"/>
      <point x="191.65980392154336" y="186.82549019607"/>
      <point x="324.8418300653567" y="65.98398692809334"/>
      <point x="431.714052287555" y="65.98398692809334" type="qcurve" smooth="yes"/>
      <point x="539.5699346405383" y="65.98398692809334"/>
      <point x="658.8676470588067" y="168.49117647059666"/>
      <point x="658.8676470588067" y="262.9918300653567" type="qcurve" smooth="yes"/>
      <point x="658.8676470588067" y="350.43333333333334"/>
      <point x="555.562745098035" y="455.37450980393"/>
      <point x="408.1055555555317" y="497.5078431372633" type="qcurve" smooth="yes"/>
      <point x="260.6483660131" y="539.6411764705966"/>
      <point x="120.91993464053833" y="687.2663398692866"/>
      <point x="120.91993464053833" y="797.2830065359533" type="qcurve" smooth="yes"/>
      <point x="120.91993464053833" y="928.0915032679767"/>
      <point x="299.92647058821" y="1082.0"/>
      <point x="444.95751633988334" y="1082.0" type="qcurve" smooth="yes"/>
      <point x="596.038562091485" y="1082.0"/>
      <point x="767.7624183006551" y="915.3571895425033"/>
      <point x="767.7624183006551" y="753.1323529411933" type="qcurve" smooth="yes"/>
      <point x="767.7624183006551" y="748.1323529411933" type="line"/>
      <point x="656.385947712445" y="748.1323529411933" type="line"/>
      <point x="656.385947712445" y="768.87320261441" type="line" smooth="yes"/>
      <point x="656.385947712445" y="880.5405228758367"/>
      <point x="547.2218954248183" y="986.0160130719066"/>
      <point x="444.95751633988334" y="986.0160130719066" type="qcurve" smooth="yes"/>
      <point x="343.7598039215433" y="986.0160130719066"/>
      <point x="233.57156862743835" y="897.9588235294034"/>
      <point x="233.57156862743835" y="812.0415032679766" type="qcurve" smooth="yes"/>
      <point x="233.57156862743835" y="733.2"/>
      <point x="329.1326797385733" y="634.1336601307133"/>
      <point x="476.58986928107663" y="589.6421568627367" type="qcurve" smooth="yes"/>
      <point x="624.0470588235083" y="544.6588235294033"/>
      <point x="775.561437908515" y="407.38366013071334"/>
      <point x="775.561437908515" y="279.88366013071334" type="qcurve" smooth="yes"/>
      <point x="775.561437908515" y="139.07516339869"/>
      <point x="603.9960784313683" y="-30.0"/>
      <point x="431.714052287555" y="-30.0" type="qcurve" smooth="yes"/>
      <point x="252.45718954250333" y="-30.0"/>
      <point x="80.0" y="144.59183006535667"/>
      <point x="80.0" y="305.4918300653567" type="qcurve" smooth="yes"/>
    </contour>
  </outline>
</glyph>
<glyph name="t" format="2">
  <advance width="576"/>
  <unicode hex="0074"/>
  <outline>
    <contour>
      <point x="0.0" y="956.1503529411934" type="line"/>
      <point x="0.0" y="1052.0" type="line"/>
      <point x="525.9081176470884" y="1052.0" type="line"/>
      <point x="525.9081176470884" y="956.1503529411934" type="line"/>
    </contour>
    <contour>
      <point x="184.90684967321667" y="261.96732026142666" type="qcurve" smooth="yes"/>
      <point x="184.90684967321667" y="994.4403398692867" type="line"/>
      <point x="184.90684967321667" y="1014.6936732026201" type="line"/>
      <point x="184.7" y="1312.0" type="line"/>
      <point x="296.95" y="1312.0" type="line"/>
      <point x="296.7959869280934" y="254.50065359476" type="line" smooth="yes"/>
      <point x="296.7959869280934" y="149.34798692809335"/>
      <point x="354.067947712445" y="73.02732026142667"/>
      <point x="417.013071895415" y="73.02732026142667" type="qcurve" smooth="yes"/>
      <point x="441.65605228755504" y="73.02732026142667"/>
      <point x="485.3391895425034" y="80.85265359476"/>
      <point x="508.42967320262" y="88.71932026142667" type="qcurve"/>
      <point x="508.42967320262" y="-4.873333333333333" type="line"/>
      <point x="488.5962495754517" y="-14.867520033486667"/>
      <point x="426.6397163158683" y="-30.0"/>
      <point x="388.5417516339883" y="-30.0" type="qcurve" smooth="yes"/>
      <point x="295.21191984861" y="-30.0"/>
      <point x="184.90684967321667" y="110.98366013071333"/>
    </contour>
  </outline>
</glyph>
<glyph name="u" format="2">
  <advance width="982"/>
  <unicode hex="0075"/>
  <outline>
    <contour>
      <point x="138.0" y="342.5173202614267" type="qcurve" smooth="yes"/>
      <point x="138.0" y="1052.0" type="line"/>
      <point x="249.8891372548767" y="1052.0" type="line"/>
      <point x="249.8891372548767" y="340.5173202614267" type="line" smooth="yes"/>
      <point x="249.8891372548767" y="202.11724183005833"/>
      <point x="352.9600130719067" y="81.46848366011668"/>
      <point x="462.39423529410504" y="81.46848366011668" type="qcurve" smooth="yes"/>
      <point x="556.5388104574968" y="81.46848366011668"/>
      <point x="676.74601960786" y="167.258928104585"/>
      <point x="721.9418039215433" y="240.69405228755502" type="qcurve"/>
      <point x="721.9418039215433" y="1052.0" type="line"/>
      <point x="834.3227712418484" y="1052.0" type="line"/>
      <point x="834.3227712418484" y="0.0" type="line"/>
      <point x="730.2631372548767" y="0.0" type="line"/>
      <point x="727.3114771241634" y="119.30156862743833" type="line"/>
      <point x="725.4816339869001" y="119.30156862743833" type="line"/>
      <point x="674.09820261441" y="54.00047058821"/>
      <point x="528.49950980393" y="-20.0"/>
      <point x="413.00377124184837" y="-20.0" type="qcurve" smooth="yes"/>
      <point x="292.3390457516017" y="-20.0"/>
      <point x="138.0" y="146.55308496732167"/>
    </contour>
  </outline>
</glyph>
<glyph name="v" format="2">
  <advance width="856"/>
  <unicode hex="0076"/>
  <outline>
    <contour>
      <point x="0.0" y="1052.0" type="line"/>
      <point x="127.26176470589499" y="1052.0" type="line"/>
      <point x="386.42843137256165" y="285.1173202614267" type="line" smooth="yes"/>
      <point x="399.912418300655" y="245.11732026142667"/>
      <point x="417.764052287555" y="183.81568627452666"/>
      <point x="425.78169934643336" y="134.07908496732165" type="qcurve"/>
      <point x="432.4983660131" y="134.07908496732165" type="line"/>
      <point x="439.94117647059664" y="183.81568627452666"/>
      <point x="458.85947712416333" y="245.11732026142667"/>
      <point x="471.8516339869" y="285.1173202614267" type="qcurve" smooth="yes"/>
      <point x="732.2771241830417" y="1052.0" type="line"/>
      <point x="855.3715686274383" y="1052.0" type="line"/>
      <point x="480.2385032679767" y="0.0" type="line"/>
      <point x="375.663398692795" y="0.0" type="line"/>
    </contour>
  </outline>
</glyph>
<glyph name="w" format="2">
  <advance width="1392"/>
  <unicode hex="0077"/>
  <outline>
    <contour>
      <point x="25.0" y="1052.0" type="line"/>
      <point x="143.520274509825" y="1052.0" type="line"/>
      <point x="323.0516339869" y="312.41568627452665" type="line" smooth="yes"/>
      <point x="333.39379084970835" y="272.41568627452665"/>
      <point x="355.737254901965" y="171.99411764708833"/>
      <point x="361.97058823529835" y="131.99411764708833" type="qcurve"/>
      <point x="368.687254901965" y="131.99411764708833" type="line"/>
      <point x="375.987254901965" y="171.99411764708833"/>
      <point x="400.83071895422165" y="272.41568627452665"/>
      <point x="412.6810457516017" y="312.41568627452665" type="qcurve" smooth="yes"/>
      <point x="639.1555555555316" y="1052.0" type="line"/>
      <point x="758.0931372548766" y="1052.0" type="line"/>
      <point x="976.2163398692867" y="312.41568627452665" type="line" smooth="yes"/>
      <point x="987.2833333333333" y="272.41568627452665"/>
      <point x="1011.7767973855899" y="171.99411764708833"/>
      <point x="1018.3601307189233" y="131.99411764708833" type="qcurve"/>
      <point x="1024.3601307189233" y="131.99411764708833" type="line"/>
      <point x="1030.9434640522566" y="171.99411764708833"/>
      <point x="1058.337254901965" y="272.41568627452665"/>
      <point x="1067.612745098035" y="312.41568627452665" type="qcurve" smooth="yes"/>
      <point x="1252.4279215686317" y="1052.0" type="line"/>
      <point x="1365.9648758169583" y="1052.0" type="line"/>
      <point x="1097.5689019607717" y="0.0" type="line"/>
      <point x="964.09049019607" y="0.0" type="line"/>
      <point x="736.92581699345" y="733.6676470588067" type="line" smooth="yes"/>
      <point x="724.5836601307133" y="773.6676470588067"/>
      <point x="706.2578431372633" y="846.50098039214"/>
      <point x="699.04901960786" y="886.50098039214" type="qcurve"/>
      <point x="691.6156862745266" y="886.50098039214" type="line"/>
      <point x="683.3401960784566" y="846.50098039214"/>
      <point x="667.1477124182683" y="773.6676470588067"/>
      <point x="654.8055555555317" y="733.6676470588067" type="qcurve" smooth="yes"/>
      <point x="428.43288235291163" y="0.0" type="line"/>
      <point x="294.6346405228533" y="0.0" type="line"/>
    </contour>
  </outline>
</glyph>
<glyph name="x" format="2">
  <advance width="874"/>
  <unicode hex="0078"/>
  <outline>
    <contour>
      <point x="20.0" y="0.0" type="line"/>
      <point x="389.528928104585" y="565.2466666666667" type="line"/>
      <point x="401.54705882350834" y="565.5333333333333" type="line"/>
      <point x="713.0445228758366" y="1052.0" type="line"/>
      <point x="835.3502875817317" y="1052.0" type="line"/>
      <point x="476.19120261441003" y="500.75333333333333" type="line"/>
      <point x="461.89640522874834" y="500.4666666666667" type="line"/>
      <point x="141.353764705895" y="0.0" type="line"/>
    </contour>
    <contour>
      <point x="40.75132026142667" y="1052.0" type="line"/>
      <point x="166.12040522874833" y="1052.0" type="line"/>
      <point x="482.93921568624495" y="569.8333333333334" type="line"/>
      <point x="484.2160130719067" y="570.55" type="line"/>
      <point x="855.0349411764917" y="0.0" type="line"/>
      <point x="729.1740261438133" y="0.0" type="line"/>
      <point x="403.40653594774335" y="500.4666666666667" type="line"/>
      <point x="400.977071895415" y="500.75333333333333" type="line"/>
    </contour>
  </outline>
</glyph>
<glyph name="y" format="2">
  <advance width="944"/>
  <unicode hex="0079"/>
  <outline>
    <contour>
      <point x="114.38496732023334" y="-416.0" type="qcurve"/>
      <point x="114.38496732023334" y="-316.54934640524" type="line"/>
      <point x="139.785947712445" y="-324.54934640524"/>
      <point x="200.80457516339166" y="-335.9826797385733"/>
      <point x="226.49705882350833" y="-335.9826797385733" type="qcurve" smooth="yes"/>
      <point x="291.3415032679767" y="-335.9826797385733"/>
      <point x="358.5931372548767" y="-270.112418300655"/>
      <point x="459.38856209148497" y="10.359150326783332" type="qcurve"/>
      <point x="459.38856209148497" y="10.642483660116667" type="line"/>
      <point x="81.25" y="1052.0" type="line"/>
      <point x="209.94509803922833" y="1052.0" type="line"/>
      <point x="477.1712418300583" y="268.7823529411933" type="line" smooth="yes"/>
      <point x="488.8552287581516" y="236.66568627452665"/>
      <point x="502.3065359477433" y="179.66405228755502"/>
      <point x="509.52352941179" y="134.07908496732165" type="qcurve"/>
      <point x="516.2401960784566" y="134.07908496732165" type="line"/>
      <point x="521.6071895425033" y="179.66405228755502"/>
      <point x="535.42483660131" y="236.66568627452665"/>
      <point x="546.3336601307134" y="268.7823529411933" type="qcurve" smooth="yes"/>
      <point x="821.911111111135" y="1052.0" type="line"/>
      <point x="942.5055555555317" y="1052.0" type="line"/>
      <point x="549.489215686245" y="-14.150000000000006" type="line" smooth="yes"/>
      <point x="456.8205882352984" y="-276.86633986928666"/>
      <point x="336.8588235294033" y="-436.0"/>
      <point x="231.889215686245" y="-436.0" type="qcurve" smooth="yes"/>
      <point x="194.00457516339168" y="-436.0"/>
      <point x="139.285947712445" y="-425.28333333333336"/>
    </contour>
  </outline>
</glyph>
<glyph name="z" format="2">
  <advance width="834"/>
  <unicode hex="007A"/>
  <outline>
    <contour>
      <point x="54.0" y="0.0" type="line"/>
      <point x="54.0" y="100.17115032678333" type="line"/>
      <point x="622.1615947712517" y="951.0236862745267" type="line"/>
      <point x="62.26099346404667" y="951.0236862745267" type="line"/>
      <point x="62.26099346404667" y="1052.0" type="line"/>
      <point x="755.20047058821" y="1052.0" type="line"/>
      <point x="755.20047058821" y="953.3668496732166" type="line"/>
      <point x="185.87020915029166" y="100.97631372547335" type="line"/>
      <point x="785.1461176470883" y="100.97631372547335" type="line"/>
      <point x="785.1461176470883" y="0.0" type="line"/>
    </contour>
  </outline>
</glyph>
<glyph name="braceleft" format="2">
  <advance width="626"/>
  <unicode hex="007B"/>
  <outline>
    <contour>
      <point x="579.0364836601167" y="-312.0" type="line"/>
      <point x="389.76930718952" y="-312.0"/>
      <point x="182.314888888865" y="-72.336"/>
      <point x="226.54467973857334" y="116.08993464053833" type="qcurve" smooth="yes"/>
      <point x="275.01633986928664" y="333.01633986928664" type="line" smooth="yes"/>
      <point x="302.16183006535664" y="452.29167320262"/>
      <point x="179.04771241826833" y="528.6430065359534"/>
      <point x="72.86841830065501" y="528.6430065359534" type="qcurve"/>
      <point x="72.86841830065501" y="619.3569934640466" type="line"/>
      <point x="179.04771241826833" y="619.3569934640466"/>
      <point x="302.16183006535664" y="695.70832679738"/>
      <point x="275.01633986928664" y="814.9836601307134" type="qcurve" smooth="yes"/>
      <point x="226.54467973857334" y="1031.9100653594617" type="line" smooth="yes"/>
      <point x="182.314888888865" y="1220.336"/>
      <point x="389.76930718952" y="1460.0"/>
      <point x="579.0364836601167" y="1460.0" type="qcurve"/>
      <point x="579.0364836601167" y="1363.08334640524" type="line"/>
      <point x="433.2938039215433" y="1363.08334640524"/>
      <point x="300.5285163398833" y="1194.8983529411933"/>
      <point x="339.49448366011666" y="1030.9264052287483" type="qcurve" smooth="yes"/>
      <point x="388.4579738561867" y="814.0" type="line" smooth="yes"/>
      <point x="408.60279738559" y="730.72116339869"/>
      <point x="334.9296339869" y="601.7275163398833"/>
      <point x="237.19062745094664" y="574.0" type="qcurve"/>
      <point x="334.9296339869" y="546.2724836601167"/>
      <point x="407.8816339869" y="417.88533333333334"/>
      <point x="388.4579738561867" y="334.0" type="qcurve" smooth="yes"/>
      <point x="339.49448366011666" y="117.07359477125166" type="line" smooth="yes"/>
      <point x="300.5285163398833" y="-46.89835294119333"/>
      <point x="433.2938039215433" y="-215.08334640524"/>
      <point x="579.0364836601167" y="-215.08334640524" type="qcurve"/>
    </contour>
  </outline>
</glyph>
<glyph name="braceright" format="2">
  <advance width="626"/>
  <unicode hex="007D"/>
  <outline>
    <contour>
      <point x="46.92966013071333" y="-312.0" type="qcurve"/>
      <point x="46.92966013071333" y="-215.08334640524" type="line"/>
      <point x="192.67233986928667" y="-215.08334640524"/>
      <point x="325.929457516375" y="-46.89835294119333"/>
      <point x="286.4716601307133" y="117.07359477125166" type="qcurve" smooth="yes"/>
      <point x="238.0" y="334.0" type="line" smooth="yes"/>
      <point x="218.57633986928667" y="417.88533333333334"/>
      <point x="291.03650980393" y="546.2724836601167"/>
      <point x="389.26734640524" y="574.0" type="qcurve"/>
      <point x="291.03650980393" y="601.7275163398833"/>
      <point x="218.57633986928667" y="730.1146666666666"/>
      <point x="238.0" y="814.0" type="qcurve" smooth="yes"/>
      <point x="286.4716601307133" y="1030.9264052287483" type="line" smooth="yes"/>
      <point x="325.929457516375" y="1194.8983529411933"/>
      <point x="192.67233986928667" y="1363.08334640524"/>
      <point x="46.92966013071333" y="1363.08334640524" type="qcurve"/>
      <point x="46.92966013071333" y="1460.0" type="line"/>
      <point x="236.19683660131" y="1460.0"/>
      <point x="445.20975163398833" y="1220.336"/>
      <point x="399.9132941176133" y="1031.9100653594617" type="qcurve" smooth="yes"/>
      <point x="350.9498039215433" y="814.9836601307134" type="line" smooth="yes"/>
      <point x="323.8043137254733" y="695.70832679738"/>
      <point x="446.91843137256166" y="619.3569934640466"/>
      <point x="553.5895555555317" y="619.3569934640466" type="qcurve"/>
      <point x="553.5895555555317" y="528.6430065359534" type="line"/>
      <point x="446.91843137256166" y="528.6430065359534"/>
      <point x="323.8043137254733" y="452.29167320262"/>
      <point x="350.9498039215433" y="333.01633986928664" type="qcurve" smooth="yes"/>
      <point x="399.9132941176133" y="116.08993464053833" type="line" smooth="yes"/>
      <point x="445.20975163398833" y="-72.336"/>
      <point x="236.19683660131" y="-312.0"/>
    </contour>
  </outline>
</glyph>
<glyph name="asciitilde" format="2">
  <advance width="1459"/>
  <unicode hex="007E"/>
  <outline>
    <contour>
      <point x="454.0418300653567" y="576.4333333333334" type="qcurve"/>
      <point x="454.0418300653567" y="703.9" type="line"/>
      <point x="476.32581699344996" y="736.7"/>
      <point x="534.6696078431584" y="766.95"/>
      <point x="576.287254901965" y="766.8833333333333" type="qcurve" smooth="yes"/>
      <point x="568.25" y="766.8166666666666"/>
      <point x="684.2898692810767" y="748.9326797385734"/>
      <point x="734.4323529411934" y="733.6915032679767" type="qcurve" smooth="yes"/>
      <point x="779.74967320262" y="721.85065359476"/>
      <point x="891.1977124182683" y="702.95"/>
      <point x="883.4441176470883" y="702.95" type="qcurve" smooth="yes"/>
      <point x="930.3950980392284" y="702.95"/>
      <point x="990.4970588235083" y="743.8333333333334"/>
      <point x="1012.7810457516016" y="782.4166666666666" type="qcurve"/>
      <point x="1012.7810457516016" y="653.2333333333333" type="line"/>
      <point x="991.563725490175" y="623.2833333333333"/>
      <point x="930.3284313725617" y="591.3166666666666"/>
      <point x="886.5774509804216" y="591.3166666666666" type="qcurve" smooth="yes"/>
      <point x="897.0725490195782" y="591.3166666666666"/>
      <point x="797.3326797385733" y="603.05065359476"/>
      <point x="758.32352941179" y="611.67483660131" type="qcurve" smooth="yes"/>
      <point x="702.939542483625" y="629.0660130719067"/>
      <point x="575.2581699346433" y="654.9"/>
      <point x="580.5539215686317" y="654.9" type="qcurve" smooth="yes"/>
      <point x="536.8029411764917" y="654.9"/>
      <point x="477.3924836601167" y="617.15"/>
    </contour>
  </outline>
</glyph>
<glyph name="exclamdown" format="2">
  <advance width="535"/>
  <unicode hex="00A1"/>
  <outline>
    <contour>
      <point x="348.7833333333333" y="1075.2" type="qcurve" smooth="yes"/>
      <point x="348.7833333333333" y="1035.8666666666666"/>
      <point x="306.26666666666665" y="979.8333333333334"/>
      <point x="267.0333333333333" y="979.8333333333334" type="qcurve" smooth="yes"/>
      <point x="227.8" y="979.8333333333334"/>
      <point x="186.0" y="1035.8666666666666"/>
      <point x="186.0" y="1075.2" type="qcurve" smooth="yes"/>
      <point x="186.0" y="1114.5333333333333"/>
      <point x="227.8" y="1170.5666666666666"/>
      <point x="267.0333333333333" y="1170.5666666666666" type="qcurve" smooth="yes"/>
      <point x="306.26666666666665" y="1170.5666666666666"/>
      <point x="348.7833333333333" y="1114.5333333333333"/>
    </contour>
    <contour>
      <point x="314.3" y="738.5666666666667" type="line"/>
      <point x="322.5" y="-307.43333333333334" type="line"/>
      <point x="212.63333333333333" y="-307.43333333333334" type="line"/>
      <point x="221.55" y="738.5666666666667" type="line"/>
    </contour>
  </outline>
</glyph>
<glyph name="cent" format="2">
  <advance width="907"/>
  <unicode hex="00A2"/>
  <outline>
    <contour>
      <point x="499.1" y="236.85" type="qcurve" smooth="yes"/>
      <point x="661.7833333333333" y="236.85"/>
      <point x="753.2166666666667" y="401.96666666666664"/>
      <point x="747.7333333333333" y="516.9666666666667" type="qcurve"/>
      <point x="858.55" y="516.9666666666667" type="line"/>
      <point x="864.8166666666667" y="358.3666666666667"/>
      <point x="715.1" y="136.41666666666666"/>
      <point x="501.23333333333335" y="136.41666666666666" type="qcurve" smooth="yes"/>
      <point x="333.3666666666667" y="136.41666666666666"/>
      <point x="100.66666666666666" y="399.85"/>
      <point x="100.66666666666666" y="676.4166666666666" type="qcurve" smooth="yes"/>
      <point x="100.66666666666666" y="700.5833333333334" type="line" smooth="yes"/>
      <point x="100.66666666666666" y="977.15"/>
      <point x="333.3666666666667" y="1240.5833333333333"/>
      <point x="509.76666666666665" y="1240.5833333333333" type="qcurve" smooth="yes"/>
      <point x="701.0" y="1240.5833333333333"/>
      <point x="864.0333333333333" y="1024.9"/>
      <point x="858.55" y="883.5333333333333" type="qcurve"/>
      <point x="747.7333333333333" y="883.5333333333333" type="line"/>
      <point x="753.2166666666667" y="992.2666666666667"/>
      <point x="660.6333333333333" y="1139.0833333333333"/>
      <point x="508.7" y="1139.0833333333333" type="qcurve" smooth="yes"/>
      <point x="376.6" y="1139.0833333333333"/>
      <point x="217.18333333333334" y="940.1"/>
      <point x="217.18333333333334" y="732.5833333333334" type="qcurve" smooth="yes"/>
      <point x="217.18333333333334" y="644.4166666666666" type="line" smooth="yes"/>
      <point x="217.18333333333334" y="437.75"/>
      <point x="376.05" y="236.85"/>
    </contour>
    <contour>
      <point x="408.3" y="0.0" type="line"/>
      <point x="408.3" y="208.33333333333334" type="line"/>
      <point x="410.43333333333334" y="222.33333333333334" type="line"/>
      <point x="410.43333333333334" y="708.0" type="line"/>
      <point x="507.43333333333334" y="708.0" type="line"/>
      <point x="507.43333333333334" y="221.33333333333334" type="line"/>
      <point x="509.56666666666666" y="211.33333333333334" type="line"/>
      <point x="509.56666666666666" y="0.0" type="line"/>
    </contour>
    <contour>
      <point x="410.43333333333334" y="708.0" type="line"/>
      <point x="410.43333333333334" y="1182.0" type="line"/>
      <point x="408.3" y="1192.0" type="line"/>
      <point x="408.3" y="1402.0" type="line"/>
      <point x="509.56666666666666" y="1402.0" type="line"/>
      <point x="509.56666666666666" y="1192.0" type="line"/>
      <point x="507.43333333333334" y="1179.0" type="line"/>
      <point x="507.43333333333334" y="708.0" type="line"/>
    </contour>
  </outline>
</glyph>
<glyph name="currency" format="2">
  <advance width="1051"/>
  <unicode hex="00A4"/>
  <guideline x="0" y="901.0" angle="0" identifier="bRYxxRaQQf"/>
  <guideline x="0" y="555.0" angle="0" identifier="917FhrihjR"/>
  <outline>
    <contour>
      <point x="235.91666666666666" y="712.0" type="qcurve"/>
      <point x="235.91666666666666" y="559.1166666666667"/>
      <point x="380.91666666666663" y="354.3666666666667"/>
      <point x="522.6666666666666" y="354.3666666666667" type="qcurve" smooth="yes"/>
      <point x="663.4166666666666" y="354.3666666666667"/>
      <point x="807.4166666666666" y="559.1166666666667"/>
      <point x="807.4166666666666" y="712.0" type="qcurve" smooth="yes"/>
      <point x="807.4166666666666" y="862.8833333333333"/>
      <point x="663.4166666666666" y="1067.6333333333334"/>
      <point x="522.6666666666666" y="1067.6333333333334" type="qcurve" smooth="yes"/>
      <point x="380.91666666666663" y="1067.6333333333334"/>
      <point x="235.91666666666666" y="862.8833333333333"/>
    </contour>
    <contour>
      <point x="118.13333333333333" y="718.0" type="qcurve"/>
      <point x="118.13333333333333" y="915.0833333333334"/>
      <point x="336.43333333333334" y="1183.4333333333334"/>
      <point x="521.6666666666666" y="1183.4333333333334" type="qcurve" smooth="yes"/>
      <point x="706.9" y="1183.4333333333334"/>
      <point x="925.2" y="915.0833333333334"/>
      <point x="925.2" y="718.0" type="qcurve" smooth="yes"/>
      <point x="925.2" y="521.2"/>
      <point x="706.9" y="250.56666666666666"/>
      <point x="521.6666666666666" y="250.56666666666666" type="qcurve" smooth="yes"/>
      <point x="336.43333333333334" y="250.56666666666666"/>
      <point x="118.13333333333333" y="521.2"/>
    </contour>
    <contour>
      <point x="990.8333333333333" y="1198.9333333333334" type="line"/>
      <point x="788.8333333333333" y="992.9333333333333" type="line"/>
      <point x="710.55" y="1074.7833333333333" type="line"/>
      <point x="912.55" y="1280.7833333333333" type="line"/>
    </contour>
    <contour>
      <point x="313.5" y="376.93333333333334" type="line"/>
      <point x="111.5" y="170.93333333333334" type="line"/>
      <point x="34.21666666666667" y="251.78333333333333" type="line"/>
      <point x="236.21666666666667" y="456.7833333333333" type="line"/>
    </contour>
    <contour>
      <point x="938.55" y="177.93333333333334" type="line"/>
      <point x="736.55" y="383.93333333333334" type="line"/>
      <point x="815.8333333333333" y="464.7833333333333" type="line"/>
      <point x="1017.8333333333333" y="259.7833333333333" type="line"/>
    </contour>
    <contour>
      <point x="253.21666666666667" y="1006.9333333333333" type="line"/>
      <point x="51.21666666666667" y="1212.9333333333334" type="line"/>
      <point x="128.5" y="1293.7833333333333" type="line"/>
      <point x="330.5" y="1087.7833333333333" type="line"/>
    </contour>
  </outline>
</glyph>
<glyph name="yen" format="2">
  <advance width="969"/>
  <unicode hex="00A5"/>
  <outline>
    <contour>
      <point x="73.33333333333333" y="339.6666666666667" type="line"/>
      <point x="73.33333333333333" y="441.3333333333333" type="line"/>
      <point x="903.2" y="441.3333333333333" type="line"/>
      <point x="903.2" y="339.6666666666667" type="line"/>
    </contour>
    <contour>
      <point x="73.33333333333333" y="642.5" type="line"/>
      <point x="73.33333333333333" y="739.1666666666666" type="line"/>
      <point x="388.73333333333335" y="739.1666666666666" type="line"/>
      <point x="441.73333333333335" y="669.0" type="line"/>
      <point x="550.7333333333333" y="669.0" type="line"/>
      <point x="598.7333333333333" y="739.1666666666666" type="line"/>
      <point x="903.2" y="739.1666666666666" type="line"/>
      <point x="903.2" y="642.5" type="line"/>
    </contour>
    <contour>
      <point x="436.2833333333333" y="0.0" type="line"/>
      <point x="436.2833333333333" y="572.3666666666667" type="line"/>
      <point x="9.666666666666668" y="1456.0" type="line"/>
      <point x="143.41666666666666" y="1456.0" type="line"/>
      <point x="429.73333333333335" y="806.0" type="line" smooth="yes"/>
      <point x="443.0333333333333" y="775.2833333333333"/>
      <point x="469.56666666666666" y="716.0"/>
      <point x="483.73333333333335" y="679.0" type="qcurve"/>
      <point x="503.73333333333335" y="679.0" type="line"/>
      <point x="525.6333333333333" y="735.0"/>
      <point x="543.0166666666667" y="776.0"/>
      <point x="557.7333333333333" y="806.0" type="qcurve" smooth="yes"/>
      <point x="829.5333333333333" y="1456.0" type="line"/>
      <point x="958.8666666666667" y="1456.0" type="line"/>
      <point x="548.6166666666667" y="572.3666666666667" type="line"/>
      <point x="548.6166666666667" y="0.0" type="line"/>
    </contour>
  </outline>
</glyph>
<glyph name="section" format="2">
  <advance width="1256"/>
  <unicode hex="00A7"/>
  <guideline x="0" y="1658.0" angle="0" identifier="QzZ5gIiCyn"/>
  <guideline x="0" y="578.0" angle="0" identifier="9Hxjf2sdFw"/>
  <outline>
    <contour>
      <point x="710.35" y="135.15" type="qcurve"/>
      <point x="710.35" y="224.76666666666665" type="line"/>
      <point x="826.5833333333334" y="236.23333333333332"/>
      <point x="943.6666666666666" y="374.96666666666664"/>
      <point x="943.6666666666666" y="480.9166666666667" type="qcurve"/>
      <point x="943.6666666666666" y="581.0833333333334"/>
      <point x="844.3333333333334" y="709.9833333333333"/>
      <point x="629.65" y="770.55" type="qcurve" smooth="yes"/>
      <point x="415.48333333333335" y="830.2"/>
      <point x="265.81666666666666" y="1025.0666666666666"/>
      <point x="265.81666666666666" y="1141.9" type="qcurve" smooth="yes"/>
      <point x="265.81666666666666" y="1294.2666666666667"/>
      <point x="458.1" y="1490.0"/>
      <point x="624.4333333333333" y="1490.2833333333333" type="qcurve" smooth="yes"/>
      <point x="786.75" y="1490.5666666666666"/>
      <point x="974.4833333333333" y="1276.6330845771283"/>
      <point x="974.2" y="1105.0166666666667" type="qcurve"/>
      <point x="866.5333333333333" y="1105.0166666666667" type="line"/>
      <point x="866.8166666666666" y="1243.6"/>
      <point x="732.3666666666667" y="1390.75"/>
      <point x="624.4333333333333" y="1390.75" type="qcurve" smooth="yes"/>
      <point x="514.2166666666667" y="1390.75"/>
      <point x="378.5" y="1252.65"/>
      <point x="378.5" y="1145.0166666666667" type="qcurve" smooth="yes"/>
      <point x="378.5" y="1059.3166666666666"/>
      <point x="533.7" y="913.85"/>
      <point x="692.6" y="871.9166666666666" type="qcurve" smooth="yes"/>
      <point x="906.7" y="812.4833333333333"/>
      <point x="1060.8833333333332" y="638.3833333333333"/>
      <point x="1060.8833333333332" y="485.1666666666667" type="qcurve" smooth="yes"/>
      <point x="1060.8833333333332" y="349.3"/>
      <point x="882.6" y="146.61666666666667"/>
    </contour>
    <contour>
      <point x="518.2833333333333" y="911.9166666666666" type="qcurve"/>
      <point x="518.0" y="814.7666666666667" type="line"/>
      <point x="412.56666666666666" y="804.0166666666667"/>
      <point x="307.75" y="666.2"/>
      <point x="307.75" y="563.4166666666666" type="qcurve" smooth="yes"/>
      <point x="307.75" y="467.65"/>
      <point x="407.5833333333333" y="342.56666666666666"/>
      <point x="619.5166666666667" y="277.5833333333333" type="qcurve" smooth="yes"/>
      <point x="844.4833333333333" y="207.61666666666667"/>
      <point x="971.7333333333333" y="9.216666666666669"/>
      <point x="971.7333333333333" y="-126.61666666666667" type="qcurve" smooth="yes"/>
      <point x="971.7333333333333" y="-302.96666666666664"/>
      <point x="777.9" y="-506.1333333333333"/>
      <point x="586.8166666666667" y="-506.1333333333333" type="qcurve" smooth="yes"/>
      <point x="386.1333333333333" y="-506.1333333333333"/>
      <point x="200.81666666666666" y="-271.6012437810967"/>
      <point x="200.81666666666666" y="-89.91666666666667" type="qcurve"/>
      <point x="308.9166666666667" y="-89.35" type="line"/>
      <point x="308.9166666666667" y="-212.63333333333333"/>
      <point x="432.93333333333334" y="-404.45"/>
      <point x="586.8166666666667" y="-404.45" type="qcurve" smooth="yes"/>
      <point x="731.8" y="-404.45"/>
      <point x="860.05" y="-250.46666666666667"/>
      <point x="860.05" y="-133.13333333333333" type="qcurve" smooth="yes"/>
      <point x="860.05" y="-22.133333333333333"/>
      <point x="719.8166666666667" y="126.48333333333333"/>
      <point x="552.9" y="175.33333333333334" type="qcurve" smooth="yes"/>
      <point x="340.6666666666667" y="237.76666666666668"/>
      <point x="190.96666666666667" y="417.85"/>
      <point x="190.96666666666667" y="566.25" type="qcurve" smooth="yes"/>
      <point x="190.96666666666667" y="697.0"/>
      <point x="344.5333333333333" y="899.7333333333333"/>
    </contour>
  </outline>
</glyph>
<glyph name="dieresis" format="2">
  <advance width="1024"/>
  <unicode hex="00A8"/>
  <outline>
    <contour>
      <point x="251.88333333333333" y="1290.9333333333334" type="qcurve" smooth="yes"/>
      <point x="251.88333333333333" y="1326.6166666666666"/>
      <point x="296.4166666666667" y="1376.4333333333334"/>
      <point x="338.6666666666667" y="1376.4333333333334" type="qcurve" smooth="yes"/>
      <point x="381.9166666666667" y="1376.4333333333334"/>
      <point x="426.45" y="1326.6166666666666"/>
      <point x="426.45" y="1290.9333333333334" type="qcurve" smooth="yes"/>
      <point x="426.45" y="1255.8166666666666"/>
      <point x="381.9166666666667" y="1207.0"/>
      <point x="338.6666666666667" y="1207.0" type="qcurve" smooth="yes"/>
      <point x="296.4166666666667" y="1207.0"/>
      <point x="251.88333333333333" y="1255.8166666666666"/>
    </contour>
    <contour>
      <point x="597.55" y="1288.9333333333334" type="qcurve" smooth="yes"/>
      <point x="597.55" y="1324.6166666666666"/>
      <point x="641.8" y="1374.4333333333334"/>
      <point x="684.3333333333334" y="1374.4333333333334" type="qcurve" smooth="yes"/>
      <point x="726.5833333333334" y="1374.4333333333334"/>
      <point x="772.1166666666667" y="1324.6166666666666"/>
      <point x="772.1166666666667" y="1288.9333333333334" type="qcurve" smooth="yes"/>
      <point x="772.1166666666667" y="1253.8166666666666"/>
      <point x="726.5833333333334" y="1205.0"/>
      <point x="684.3333333333334" y="1205.0" type="qcurve" smooth="yes"/>
      <point x="641.8" y="1205.0"/>
      <point x="597.55" y="1253.8166666666666"/>
    </contour>
  </outline>
</glyph>
<glyph name="copyright" format="2">
  <advance width="1541"/>
  <unicode hex="00A9"/>
  <guideline x="0" y="901.0" angle="0" identifier="0Pjz0qKr8z"/>
  <guideline x="0" y="555.0" angle="0" identifier="sJo8BlDiJ7"/>
  <outline>
    <contour>
      <point x="981.05" y="529.5166666666667" type="qcurve"/>
      <point x="1092.8166666666666" y="529.5166666666667" type="line"/>
      <point x="1092.8166666666666" y="399.6666666666667"/>
      <point x="955.55" y="205.0"/>
      <point x="777.25" y="205.0" type="qcurve" smooth="yes"/>
      <point x="596.5333333333333" y="205.0"/>
      <point x="422.96666666666664" y="464.9"/>
      <point x="422.96666666666664" y="670.45" type="qcurve" smooth="yes"/>
      <point x="422.96666666666664" y="701.5666666666667" type="line" smooth="yes"/>
      <point x="422.96666666666664" y="910.6"/>
      <point x="605.35" y="1168.5666666666666"/>
      <point x="782.0666666666667" y="1168.5666666666666" type="qcurve" smooth="yes"/>
      <point x="933.8166666666667" y="1168.5666666666666"/>
      <point x="1093.1" y="987.2166666666667"/>
      <point x="1093.1" y="844.05" type="qcurve"/>
      <point x="981.3333333333334" y="844.05" type="line"/>
      <point x="981.3333333333334" y="935.3"/>
      <point x="884.5833333333334" y="1070.5"/>
      <point x="781.7833333333333" y="1070.5" type="qcurve" smooth="yes"/>
      <point x="662.0166666666667" y="1070.5"/>
      <point x="541.4333333333333" y="871.55"/>
      <point x="541.4333333333333" y="714.0333333333333" type="qcurve" smooth="yes"/>
      <point x="541.4333333333333" y="658.2666666666667" type="line" smooth="yes"/>
      <point x="541.4333333333333" y="500.81666666666666"/>
      <point x="661.3833333333333" y="301.0833333333333"/>
      <point x="784.3333333333334" y="301.0833333333333" type="qcurve" smooth="yes"/>
      <point x="881.8" y="301.0833333333333"/>
      <point x="981.05" y="434.7833333333333"/>
    </contour>
    <contour>
      <point x="147.68333333333334" y="687.0" type="qcurve" smooth="yes"/>
      <point x="147.68333333333334" y="374.2"/>
      <point x="479.95" y="-36.85"/>
      <point x="771.4666666666667" y="-36.85" type="qcurve" smooth="yes"/>
      <point x="1061.9833333333333" y="-36.85"/>
      <point x="1393.5333333333333" y="374.2"/>
      <point x="1393.5333333333333" y="687.0" type="qcurve" smooth="yes"/>
      <point x="1393.5333333333333" y="999.3666666666667"/>
      <point x="1061.9833333333333" y="1408.5666666666666"/>
      <point x="771.4666666666667" y="1408.5666666666666" type="qcurve" smooth="yes"/>
      <point x="479.95" y="1408.5666666666666"/>
      <point x="147.68333333333334" y="999.3666666666667"/>
    </contour>
    <contour>
      <point x="41.96666666666667" y="687.0" type="qcurve" smooth="yes"/>
      <point x="41.96666666666667" y="1039.0"/>
      <point x="444.4666666666667" y="1511.8333333333333"/>
      <point x="770.4666666666667" y="1511.8333333333333" type="qcurve" smooth="yes"/>
      <point x="1095.4666666666667" y="1511.8333333333333"/>
      <point x="1498.9666666666667" y="1039.0"/>
      <point x="1498.9666666666667" y="687.0" type="qcurve" smooth="yes"/>
      <point x="1498.9666666666667" y="337.0"/>
      <point x="1095.4666666666667" y="-139.83333333333334"/>
      <point x="770.4666666666667" y="-139.83333333333334" type="qcurve" smooth="yes"/>
      <point x="444.4666666666667" y="-139.83333333333334"/>
      <point x="41.96666666666667" y="337.0"/>
    </contour>
  </outline>
</glyph>
<glyph name="ordfeminine" format="2">
  <advance width="798"/>
  <unicode hex="00AA"/>
  <guideline x="0" y="1681.0" angle="0" identifier="3CJlALCfkl"/>
  <guideline x="0" y="909.0" angle="0" identifier="Zdl6NZVQAy"/>
  <outline>
    <contour>
      <point x="518.3333333333334" y="862.0" type="line"/>
      <point x="518.3333333333334" y="821.0"/>
      <point x="538.3333333333334" y="736.0"/>
      <point x="561.3333333333334" y="706.0" type="qcurve"/>
      <point x="647.6" y="706.0" type="line"/>
      <point x="633.6" y="749.0"/>
      <point x="621.6" y="838.0"/>
      <point x="621.6" y="887.0" type="qcurve" smooth="yes"/>
      <point x="621.6" y="1201.0" type="line" smooth="yes"/>
      <point x="621.6" y="1330.8666666666666"/>
      <point x="510.75" y="1477.0"/>
      <point x="398.93333333333334" y="1477.0" type="qcurve" smooth="yes"/>
      <point x="284.1" y="1477.0"/>
      <point x="171.26666666666668" y="1361.3"/>
      <point x="171.26666666666668" y="1253.8333333333333" type="qcurve" smooth="yes"/>
      <point x="171.26666666666668" y="1234.0" type="line"/>
      <point x="270.3666666666667" y="1234.0" type="line"/>
      <point x="270.3666666666667" y="1247.0" type="line" smooth="yes"/>
      <point x="270.3666666666667" y="1314.55"/>
      <point x="338.3666666666667" y="1385.4166666666667"/>
      <point x="400.93333333333334" y="1385.4166666666667" type="qcurve" smooth="yes"/>
      <point x="457.7" y="1385.4166666666667"/>
      <point x="518.3333333333334" y="1285.0"/>
      <point x="518.3333333333334" y="1202.0" type="qcurve" smooth="yes"/>
    </contour>
    <contour>
      <point x="555.9333333333334" y="1141.8333333333333" type="line"/>
      <point x="411.93333333333334" y="1141.8333333333333" type="line" smooth="yes"/>
      <point x="289.3" y="1141.8333333333333"/>
      <point x="147.26666666666668" y="1026.2"/>
      <point x="147.26666666666668" y="918.0" type="qcurve" smooth="yes"/>
      <point x="147.26666666666668" y="810.6833333333333"/>
      <point x="256.51666666666665" y="692.0"/>
      <point x="343.43333333333334" y="692.0" type="qcurve" smooth="yes"/>
      <point x="436.55" y="692.0"/>
      <point x="541.9666666666667" y="790.15"/>
      <point x="557.6333333333333" y="858.5" type="qcurve"/>
      <point x="539.6333333333333" y="963.3333333333334" type="line"/>
      <point x="539.6333333333333" y="903.1166666666667"/>
      <point x="450.73333333333335" y="782.5833333333334"/>
      <point x="360.93333333333334" y="782.5833333333334" type="qcurve" smooth="yes"/>
      <point x="316.1" y="782.5833333333334"/>
      <point x="250.51666666666665" y="857.9"/>
      <point x="250.51666666666665" y="922.0" type="qcurve" smooth="yes"/>
      <point x="250.51666666666665" y="995.7833333333333"/>
      <point x="339.5833333333333" y="1059.9166666666667"/>
      <point x="412.93333333333334" y="1056.3333333333333" type="qcurve" smooth="yes"/>
      <point x="555.9333333333334" y="1056.3333333333333" type="line"/>
    </contour>
  </outline>
</glyph>
<glyph name="guillemotleft" format="2">
  <advance width="1031"/>
  <unicode hex="00AB"/>
  <guideline x="0" y="901.0" angle="0" identifier="ZftBQarVKw"/>
  <guideline x="0" y="555.0" angle="0" identifier="MVJpdoVRVd"/>
  <outline>
    <contour>
      <point x="122.33333333333333" y="529.1666666666666" type="line"/>
      <point x="122.33333333333333" y="573.8333333333334" type="line"/>
      <point x="364.0" y="949.0" type="line"/>
      <point x="482.2833333333333" y="949.0" type="line"/>
      <point x="246.08333333333334" y="551.0" type="line"/>
      <point x="482.2833333333333" y="153.0" type="line"/>
      <point x="364.0" y="153.0" type="line"/>
    </contour>
    <contour>
      <point x="562.3333333333334" y="529.1666666666666" type="line"/>
      <point x="562.3333333333334" y="573.8333333333334" type="line"/>
      <point x="804.0" y="949.0" type="line"/>
      <point x="922.2833333333333" y="949.0" type="line"/>
      <point x="686.0833333333334" y="551.0" type="line"/>
      <point x="922.2833333333333" y="153.0" type="line"/>
      <point x="804.0" y="153.0" type="line"/>
    </contour>
  </outline>
</glyph>
<glyph name="logicalnot" format="2">
  <advance width="943"/>
  <unicode hex="00AC"/>
  <outline>
    <contour>
      <point x="807.0" y="786.6666666666666" type="line"/>
      <point x="807.0" y="376.0" type="line"/>
      <point x="700.7833333333333" y="376.0" type="line"/>
      <point x="700.7833333333333" y="684.25" type="line"/>
      <point x="58.0" y="684.25" type="line"/>
      <point x="58.0" y="786.6666666666666" type="line"/>
    </contour>
  </outline>
</glyph>
<glyph name="registered" format="2">
  <advance width="1541"/>
  <unicode hex="00AE"/>
  <outline>
    <contour>
      <point x="41.96666666666667" y="687.0" type="qcurve" smooth="yes"/>
      <point x="41.96666666666667" y="1039.0"/>
      <point x="444.4666666666667" y="1511.8333333333333"/>
      <point x="770.4666666666667" y="1511.8333333333333" type="qcurve" smooth="yes"/>
      <point x="1095.4666666666667" y="1511.8333333333333"/>
      <point x="1498.9666666666667" y="1039.0"/>
      <point x="1498.9666666666667" y="687.0" type="qcurve" smooth="yes"/>
      <point x="1498.9666666666667" y="337.0"/>
      <point x="1095.4666666666667" y="-139.83333333333334"/>
      <point x="770.4666666666667" y="-139.83333333333334" type="qcurve" smooth="yes"/>
      <point x="444.4666666666667" y="-139.83333333333334"/>
      <point x="41.96666666666667" y="337.0"/>
    </contour>
    <contour>
      <point x="147.68333333333334" y="687.0" type="qcurve" smooth="yes"/>
      <point x="147.68333333333334" y="374.2"/>
      <point x="479.95" y="-36.85"/>
      <point x="771.4666666666667" y="-36.85" type="qcurve" smooth="yes"/>
      <point x="1061.9833333333333" y="-36.85"/>
      <point x="1393.5333333333333" y="374.2"/>
      <point x="1393.5333333333333" y="687.0" type="qcurve" smooth="yes"/>
      <point x="1393.5333333333333" y="999.3666666666667"/>
      <point x="1061.9833333333333" y="1408.5666666666666"/>
      <point x="771.4666666666667" y="1408.5666666666666" type="qcurve" smooth="yes"/>
      <point x="479.95" y="1408.5666666666666"/>
      <point x="147.68333333333334" y="999.3666666666667"/>
    </contour>
    <contour>
      <point x="830.0" y="604.8833333333333" type="line"/>
      <point x="619.2333333333333" y="604.8833333333333" type="line"/>
      <point x="619.2333333333333" y="225.0" type="line"/>
      <point x="510.1333333333333" y="225.0" type="line"/>
      <point x="510.1333333333333" y="1158.0" type="line"/>
      <point x="764.4666666666667" y="1158.0" type="line" smooth="yes"/>
      <point x="920.4666666666667" y="1158.0"/>
      <point x="1072.8" y="1011.6"/>
      <point x="1072.8" y="884.8833333333333" type="qcurve" smooth="yes"/>
      <point x="1072.8" y="781.8666666666667"/>
      <point x="978.35" y="642.55"/>
      <point x="904.2666666666667" y="625.8833333333333" type="qcurve"/>
      <point x="925.95" y="602.8833333333333"/>
      <point x="962.0333333333333" y="555.4"/>
      <point x="975.1166666666667" y="522.8333333333334" type="qcurve" smooth="yes"/>
      <point x="1083.9" y="243.0" type="line"/>
      <point x="1083.9" y="225.0" type="line"/>
      <point x="971.55" y="225.0" type="line"/>
    </contour>
    <contour>
      <point x="765.4666666666667" y="1055.0166666666667" type="qcurve" smooth="yes"/>
      <point x="619.2333333333333" y="1055.0166666666667" type="line"/>
      <point x="619.2333333333333" y="703.6" type="line"/>
      <point x="790.4666666666667" y="703.6" type="line" smooth="yes"/>
      <point x="888.6833333333334" y="703.6"/>
      <point x="958.45" y="799.25"/>
      <point x="958.45" y="874.7666666666667" type="qcurve" smooth="yes"/>
      <point x="958.45" y="953.35"/>
      <point x="839.0833333333334" y="1054.7333333333333"/>
    </contour>
  </outline>
</glyph>
<glyph name="macron" format="2">
  <advance width="1024"/>
  <unicode hex="00AF"/>
  <outline>
    <contour>
      <point x="758.3333333333334" y="1381.2666666666667" type="line"/>
      <point x="758.3333333333334" y="1278.0" type="line"/>
      <point x="265.6666666666667" y="1278.0" type="line"/>
      <point x="265.6666666666667" y="1381.2666666666667" type="line"/>
    </contour>
  </outline>
</glyph>
<glyph name="degree" format="2">
  <advance width="765"/>
  <unicode hex="00B0"/>
  <outline>
    <contour>
      <point x="156.0" y="1232.7666666666667" type="qcurve" smooth="yes"/>
      <point x="156.0" y="1339.7833333333333"/>
      <point x="284.66546678375335" y="1477.0"/>
      <point x="385.28333333333336" y="1477.0" type="qcurve" smooth="yes"/>
      <point x="483.959325919445" y="1477.0"/>
      <point x="610.5666666666667" y="1339.8067164179351"/>
      <point x="610.5666666666667" y="1232.7666666666667" type="qcurve" smooth="yes"/>
      <point x="610.5666666666667" y="1126.6611940298133"/>
      <point x="483.97835820892834" y="991.5333333333333"/>
      <point x="385.28333333333336" y="991.5333333333333" type="qcurve" smooth="yes"/>
      <point x="284.3228855721533" y="991.5333333333333"/>
      <point x="156.0" y="1126.8833333333334"/>
    </contour>
    <contour>
      <point x="251.33333333333334" y="1232.7666666666667" type="qcurve" smooth="yes"/>
      <point x="251.33333333333334" y="1171.2521510096667"/>
      <point x="326.9907521217333" y="1090.15"/>
      <point x="385.28333333333336" y="1090.15" type="qcurve" smooth="yes"/>
      <point x="442.1592478782667" y="1090.15"/>
      <point x="515.2333333333333" y="1171.2521510096667"/>
      <point x="515.2333333333333" y="1232.7666666666667" type="qcurve" smooth="yes"/>
      <point x="515.2333333333333" y="1296.6713979124502"/>
      <point x="442.1592478782667" y="1378.3833333333334"/>
      <point x="385.28333333333336" y="1378.3833333333334" type="qcurve" smooth="yes"/>
      <point x="326.9907521217333" y="1378.3833333333334"/>
      <point x="251.33333333333334" y="1296.6713979124502"/>
    </contour>
  </outline>
</glyph>
<glyph name="plusminus" format="2">
  <advance width="1024"/>
  <unicode hex="00B1"/>
  <outline>
    <contour>
      <point x="84.73333333333333" y="641.8" type="line"/>
      <point x="84.73333333333333" y="745.6333333333333" type="line"/>
      <point x="939.2666666666667" y="745.6333333333333" type="line"/>
      <point x="939.2666666666667" y="641.8" type="line"/>
    </contour>
    <contour>
      <point x="461.3833333333333" y="248.0" type="line"/>
      <point x="461.3833333333333" y="1160.0" type="line"/>
      <point x="565.4833333333333" y="1160.0" type="line"/>
      <point x="565.4833333333333" y="248.0" type="line"/>
    </contour>
    <contour>
      <point x="84.73333333333333" y="1.0" type="line"/>
      <point x="84.73333333333333" y="109.1" type="line"/>
      <point x="939.2666666666667" y="109.1" type="line"/>
      <point x="939.2666666666667" y="1.0" type="line"/>
    </contour>
  </outline>
</glyph>
<glyph name="twosuperior" format="2">
  <advance width="642"/>
  <unicode hex="00B2"/>
  <outline>
    <contour>
      <point x="91.86666666666667" y="697.0" type="line"/>
      <point x="91.86666666666667" y="790.6666666666666" type="line"/>
      <point x="286.48333333333335" y="1036.6166666666666" type="line" smooth="yes"/>
      <point x="345.5833333333333" y="1108.3"/>
      <point x="439.95" y="1211.7"/>
      <point x="439.95" y="1267.6333333333334" type="qcurve" smooth="yes"/>
      <point x="439.95" y="1324.9333333333334"/>
      <point x="375.35" y="1396.7666666666667"/>
      <point x="314.05" y="1396.7666666666667" type="qcurve" smooth="yes"/>
      <point x="241.43333333333334" y="1396.7666666666667"/>
      <point x="171.75" y="1309.9166666666667"/>
      <point x="173.46666666666667" y="1219.5" type="qcurve"/>
      <point x="74.58333333333333" y="1219.5" type="line"/>
      <point x="72.86666666666667" y="1357.6"/>
      <point x="195.55" y="1487.0"/>
      <point x="311.48333333333335" y="1487.0" type="qcurve" smooth="yes"/>
      <point x="426.5833333333333" y="1487.0"/>
      <point x="543.9833333333333" y="1374.0"/>
      <point x="543.9833333333333" y="1268.2" type="qcurve" smooth="yes"/>
      <point x="543.9833333333333" y="1200.1833333333334"/>
      <point x="432.1" y="1047.5166666666667"/>
      <point x="341.98333333333335" y="951.65" type="qcurve" smooth="yes"/>
      <point x="206.76666666666665" y="794.8333333333334" type="line"/>
      <point x="567.8166666666666" y="794.8333333333334" type="line"/>
      <point x="567.8166666666666" y="697.0" type="line"/>
    </contour>
  </outline>
</glyph>
<glyph name="threesuperior" format="2">
  <advance width="641"/>
  <unicode hex="00B3"/>
  <outline>
    <contour>
      <point x="86.31666666666666" y="921.8333333333334" type="qcurve"/>
      <point x="183.83333333333331" y="921.8333333333334" type="line"/>
      <point x="183.83333333333331" y="847.1"/>
      <point x="249.66666666666669" y="774.95"/>
      <point x="330.8" y="774.95" type="qcurve" smooth="yes"/>
      <point x="394.56666666666666" y="774.95"/>
      <point x="472.25" y="850.9333333333333"/>
      <point x="472.25" y="917.8333333333334" type="qcurve" smooth="yes"/>
      <point x="472.25" y="981.5833333333334"/>
      <point x="405.71666666666664" y="1065.5666666666666"/>
      <point x="325.55" y="1063.7166666666667" type="qcurve" smooth="yes"/>
      <point x="274.26666666666665" y="1063.7166666666667" type="line"/>
      <point x="274.26666666666665" y="1139.2166666666667" type="line"/>
      <point x="325.55" y="1139.2166666666667" type="line" smooth="yes"/>
      <point x="404.71666666666664" y="1139.9333333333334"/>
      <point x="456.3833333333333" y="1208.4333333333334"/>
      <point x="456.3833333333333" y="1269.3333333333333" type="qcurve" smooth="yes"/>
      <point x="456.3833333333333" y="1335.5166666666667"/>
      <point x="381.93333333333334" y="1400.2"/>
      <point x="329.23333333333335" y="1400.2" type="qcurve" smooth="yes"/>
      <point x="252.1" y="1400.2"/>
      <point x="194.83333333333331" y="1322.2333333333333"/>
      <point x="194.83333333333331" y="1254.1666666666667" type="qcurve"/>
      <point x="97.31666666666666" y="1254.1666666666667" type="line"/>
      <point x="97.31666666666666" y="1361.55"/>
      <point x="201.53333333333333" y="1487.0"/>
      <point x="329.1" y="1487.0" type="qcurve" smooth="yes"/>
      <point x="441.2" y="1487.0"/>
      <point x="552.9666666666667" y="1379.5333333333333"/>
      <point x="552.9666666666667" y="1280.2" type="qcurve" smooth="yes"/>
      <point x="552.9666666666667" y="1211.2833333333333"/>
      <point x="479.93333333333334" y="1125.7333333333333"/>
      <point x="418.5" y="1108.0333333333333" type="qcurve"/>
      <point x="487.93333333333334" y="1090.05"/>
      <point x="569.7" y="983.0"/>
      <point x="569.7" y="917.0" type="qcurve" smooth="yes"/>
      <point x="569.7" y="810.2333333333333"/>
      <point x="452.55" y="686.0"/>
      <point x="325.8" y="686.0" type="qcurve" smooth="yes"/>
      <point x="209.05326797387167" y="686.0"/>
      <point x="86.31666666666666" y="813.9826797385733"/>
    </contour>
  </outline>
</glyph>
<glyph name="micro" format="2">
  <advance width="1064"/>
  <unicode hex="00B5"/>
  <outline>
    <contour>
      <point x="275.7" y="1052.0" type="line"/>
      <point x="381.5" y="1052.0" type="line"/>
      <point x="249.5" y="371.0" type="line" smooth="yes"/>
      <point x="222.35" y="231.36666666666667"/>
      <point x="273.4666666666667" y="83.68333333333334"/>
      <point x="362.23333333333335" y="83.68333333333334" type="qcurve" smooth="yes"/>
      <point x="438.16666666666663" y="83.68333333333334"/>
      <point x="586.3166666666667" y="185.9"/>
      <point x="670.7666666666667" y="308.0" type="qcurve"/>
      <point x="814.7666666666667" y="1052.0" type="line"/>
      <point x="929.1" y="1052.0" type="line"/>
      <point x="725.1" y="0.0" type="line"/>
      <point x="628.7666666666667" y="0.0" type="line"/>
      <point x="656.8" y="174.41666666666666" type="line"/>
      <point x="650.8" y="174.41666666666666" type="line"/>
      <point x="561.8" y="71.6"/>
      <point x="407.3333333333333" y="-20.0"/>
      <point x="345.81666666666666" y="-20.0" type="qcurve" smooth="yes"/>
      <point x="270.85" y="-20.0"/>
      <point x="193.9" y="50.45"/>
      <point x="199.11666666666667" y="109.36666666666667" type="qcurve"/>
      <point x="97.5" y="-416.0" type="line"/>
      <point x="-8.299999999999997" y="-416.0" type="line"/>
    </contour>
  </outline>
</glyph>
<glyph name="paragraph" format="2">
  <advance width="963"/>
  <unicode hex="00B6"/>
  <guideline x="0" y="901.0" angle="0" identifier="27539Lsr1A"/>
  <guideline x="0" y="555.0" angle="0" identifier="e34wUdCmXR"/>
  <outline>
    <contour>
      <point x="482.2833333333333" y="-146.0" type="line"/>
      <point x="378.6166666666667" y="-146.0" type="line"/>
      <point x="378.6166666666667" y="821.9666666666667" type="line"/>
      <point x="303.79999999999995" y="821.9666666666667" type="line" smooth="yes"/>
      <point x="218.51666666666665" y="821.9666666666667"/>
      <point x="101.11666666666667" y="999.3333333333334"/>
      <point x="101.11666666666667" y="1138.9833333333333" type="qcurve" smooth="yes"/>
      <point x="101.11666666666667" y="1278.7666666666667"/>
      <point x="218.51666666666665" y="1456.0"/>
      <point x="303.79999999999995" y="1456.0" type="qcurve" smooth="yes"/>
      <point x="482.2833333333333" y="1456.0" type="line"/>
    </contour>
    <contour>
      <point x="695.95" y="1459.0" type="line"/>
      <point x="799.6166666666667" y="1459.0" type="line"/>
      <point x="799.6166666666667" y="-146.0" type="line"/>
      <point x="695.95" y="-146.0" type="line"/>
    </contour>
  </outline>
</glyph>
<glyph name="periodcentered" format="2">
  <advance width="478"/>
  <unicode hex="00B7"/>
  <outline>
    <contour>
      <point x="140.16666666666666" y="749.0" type="qcurve" smooth="yes"/>
      <point x="140.16666666666666" y="788.6833333333333"/>
      <point x="191.26666666666665" y="844.35"/>
      <point x="239.08333333333334" y="844.35" type="qcurve" smooth="yes"/>
      <point x="286.9" y="844.35"/>
      <point x="337.2833333333333" y="788.6833333333333"/>
      <point x="337.2833333333333" y="749.0" type="qcurve" smooth="yes"/>
      <point x="337.2833333333333" y="709.3166666666667"/>
      <point x="286.9" y="653.65"/>
      <point x="239.08333333333334" y="653.65" type="qcurve" smooth="yes"/>
      <point x="191.26666666666665" y="653.65"/>
      <point x="140.16666666666666" y="709.3166666666667"/>
    </contour>
  </outline>
</glyph>
<glyph name="cedilla" format="2">
  <advance width="1024"/>
  <unicode hex="00B8"/>
  <outline>
    <contour>
      <point x="440.0" y="42.0" type="line"/>
      <point x="536.0333333333333" y="42.0" type="line"/>
      <point x="502.3" y="-71.63333333333333" type="line"/>
      <point x="569.3333333333334" y="-83.06666666666666"/>
      <point x="661.65" y="-159.06666666666666"/>
      <point x="661.65" y="-226.0" type="qcurve" smooth="yes"/>
      <point x="661.65" y="-311.8333333333333"/>
      <point x="504.85" y="-421.3833333333333"/>
      <point x="347.28333333333336" y="-421.3833333333333" type="qcurve"/>
      <point x="342.43333333333334" y="-345.2" type="line"/>
      <point x="442.21666666666664" y="-343.05"/>
      <point x="549.1666666666666" y="-283.8666666666667"/>
      <point x="549.1666666666666" y="-228.0" type="qcurve" smooth="yes"/>
      <point x="549.1666666666666" y="-179.0"/>
      <point x="483.0" y="-142.0"/>
      <point x="399.0" y="-135.0" type="qcurve"/>
    </contour>
  </outline>
</glyph>
<glyph name="onesuperior" format="2">
  <advance width="550"/>
  <unicode hex="00B9"/>
  <outline>
    <contour>
      <point x="92.18333333333334" y="1261.1666666666667" type="line"/>
      <point x="92.18333333333334" y="1370.0" type="line"/>
      <point x="336.29999999999995" y="1486.0" type="line"/>
      <point x="366.68333333333334" y="1486.0" type="line"/>
      <point x="366.68333333333334" y="697.0" type="line"/>
      <point x="259.8666666666667" y="697.0" type="line"/>
      <point x="259.8666666666667" y="1333.2333333333333" type="line"/>
    </contour>
  </outline>
</glyph>
<glyph name="ordmasculine" format="2">
  <advance width="859"/>
  <unicode hex="00BA"/>
  <guideline x="0" y="1975.0" angle="0" identifier="Jnt0R9CyOf"/>
  <outline>
    <contour>
      <point x="141.3" y="1043.0" type="qcurve"/>
      <point x="141.3" y="1124.0" type="line"/>
      <point x="141.3" y="1295.0666666666666"/>
      <point x="280.46990049754663" y="1477.0"/>
      <point x="429.8" y="1477.0" type="qcurve" smooth="yes"/>
      <point x="579.4164179104616" y="1477.0"/>
      <point x="718.3" y="1294.9345332162468"/>
      <point x="718.3" y="1124.0" type="qcurve"/>
      <point x="718.3" y="1043.0" type="line"/>
      <point x="718.3" y="872.0654667837533"/>
      <point x="579.9239586382166" y="691.0"/>
      <point x="431.8" y="691.0" type="qcurve" smooth="yes"/>
      <point x="281.0141449614817" y="691.0"/>
      <point x="141.3" y="872.0654667837533"/>
    </contour>
    <contour>
      <point x="249.83333333333331" y="1124.0" type="qcurve"/>
      <point x="249.83333333333331" y="1043.0" type="line"/>
      <point x="249.83333333333331" y="911.94464442493"/>
      <point x="347.98610379472336" y="784.85"/>
      <point x="431.8" y="784.85" type="qcurve" smooth="yes"/>
      <point x="514.4045702858317" y="784.85"/>
      <point x="610.05" y="911.94464442493"/>
      <point x="610.05" y="1043.0" type="qcurve"/>
      <point x="610.05" y="1124.0" type="line"/>
      <point x="610.05" y="1255.4379036191651"/>
      <point x="513.6468149448633" y="1380.4333333333334"/>
      <point x="429.8" y="1380.4333333333334" type="qcurve" smooth="yes"/>
      <point x="345.95318505513666" y="1380.4333333333334"/>
      <point x="249.83333333333331" y="1255.4379036191651"/>
    </contour>
  </outline>
</glyph>
<glyph name="guillemotright" format="2">
  <advance width="1031"/>
  <unicode hex="00BB"/>
  <guideline x="0" y="98.0" angle="0" identifier="MTEldNnfdj"/>
  <guideline x="0" y="443.0" angle="0" identifier="G9bQni2n1K"/>
  <outline>
    <contour>
      <point x="578.25" y="153.0" type="line"/>
      <point x="814.45" y="551.0" type="line"/>
      <point x="578.25" y="949.0" type="line"/>
      <point x="696.5333333333333" y="949.0" type="line"/>
      <point x="938.2" y="572.7666666666667" type="line"/>
      <point x="938.2" y="528.1" type="line"/>
      <point x="696.5333333333333" y="153.0" type="line"/>
    </contour>
    <contour>
      <point x="79.58333333333331" y="153.0" type="line"/>
      <point x="315.78333333333336" y="551.0" type="line"/>
      <point x="79.58333333333331" y="949.0" type="line"/>
      <point x="197.86666666666667" y="949.0" type="line"/>
      <point x="439.5333333333333" y="572.7666666666667" type="line"/>
      <point x="439.5333333333333" y="528.1" type="line"/>
      <point x="197.86666666666667" y="153.0" type="line"/>
    </contour>
  </outline>
</glyph>
<glyph name="questiondown" format="2">
  <advance width="951"/>
  <unicode hex="00BF"/>
  <guideline x="0" y="-181.0" angle="0" identifier="apukwP5ffL"/>
  <guideline x="0" y="921.0" angle="0" identifier="5ZPZZL8Rim"/>
  <outline>
    <contour>
      <point x="590.7666666666667" y="1074.6333333333334" type="qcurve" smooth="yes"/>
      <point x="590.7666666666667" y="1035.3"/>
      <point x="548.25" y="979.2666666666667"/>
      <point x="510.0833333333333" y="979.2666666666667" type="qcurve" smooth="yes"/>
      <point x="470.85" y="979.2666666666667"/>
      <point x="428.3333333333333" y="1035.3"/>
      <point x="428.3333333333333" y="1074.6333333333334" type="qcurve" smooth="yes"/>
      <point x="428.3333333333333" y="1113.9666666666667"/>
      <point x="469.78333333333336" y="1170.0"/>
      <point x="509.01666666666665" y="1170.0" type="qcurve" smooth="yes"/>
      <point x="548.25" y="1170.0"/>
      <point x="590.7666666666667" y="1113.9666666666667"/>
    </contour>
    <contour>
      <point x="768.7833333333333" y="53.0" type="line"/>
      <point x="768.7833333333333" y="33.0" type="line" smooth="yes"/>
      <point x="768.7833333333333" y="-138.03333333333333"/>
      <point x="613.7333333333333" y="-328.0"/>
      <point x="479.05" y="-328.0" type="qcurve" smooth="yes"/>
      <point x="345.0833333333333" y="-328.0"/>
      <point x="194.25" y="-138.41666666666666"/>
      <point x="194.25" y="21.5" type="qcurve" smooth="yes"/>
      <point x="194.25" y="160.85"/>
      <point x="287.2166666666667" y="343.06666666666666"/>
      <point x="356.06666666666666" y="426.05" type="qcurve" smooth="yes"/>
      <point x="424.7166666666667" y="510.6166666666667"/>
      <point x="460.81666666666666" y="655.1166666666667"/>
      <point x="460.81666666666666" y="728.0" type="qcurve" smooth="yes"/>
      <point x="460.81666666666666" y="738.0" type="line"/>
      <point x="568.7666666666667" y="738.0" type="line"/>
      <point x="568.7666666666667" y="728.0" type="line" smooth="yes"/>
      <point x="568.7666666666667" y="612.3"/>
      <point x="511.0833333333333" y="460.76666666666665"/>
      <point x="434.3666666666667" y="362.51666666666665" type="qcurve" smooth="yes"/>
      <point x="367.31666666666666" y="277.9166666666667"/>
      <point x="302.2" y="131.88333333333333"/>
      <point x="302.2" y="21.5" type="qcurve" smooth="yes"/>
      <point x="302.2" y="-93.5"/>
      <point x="389.98333333333335" y="-225.8"/>
      <point x="479.05" y="-225.8" type="qcurve" smooth="yes"/>
      <point x="568.1166666666667" y="-225.8"/>
      <point x="661.8333333333334" y="-94.55"/>
      <point x="661.8333333333334" y="33.0" type="qcurve" smooth="yes"/>
      <point x="661.8333333333334" y="53.0" type="line"/>
    </contour>
  </outline>
</glyph>
<glyph name="AE" format="2">
  <advance width="1568"/>
  <unicode hex="00C6"/>
  <outline>
    <contour>
      <point x="269.2833333333333" y="412.4" type="line"/>
      <point x="329.8666666666667" y="496.2" type="line"/>
      <point x="864.55" y="496.2" type="line"/>
      <point x="864.55" y="412.4" type="line"/>
    </contour>
    <contour>
      <point x="11.75" y="0.0" type="line"/>
      <point x="765.8166666666666" y="1456.0" type="line"/>
      <point x="1490.2666666666667" y="1456.0" type="line"/>
      <point x="1490.2666666666667" y="1355.65" type="line"/>
      <point x="924.3833333333333" y="1355.65" type="line"/>
      <point x="924.3833333333333" y="801.35" type="line"/>
      <point x="1395.4" y="801.35" type="line"/>
      <point x="1395.4" y="700.65" type="line"/>
      <point x="924.3833333333333" y="700.65" type="line"/>
      <point x="924.3833333333333" y="100.35" type="line"/>
      <point x="1500.2666666666667" y="100.35" type="line"/>
      <point x="1500.2666666666667" y="0.0" type="line"/>
      <point x="814.0166666666667" y="0.0" type="line"/>
      <point x="814.0166666666667" y="1351.0666666666666" type="line"/>
      <point x="99.01666666666667" y="0.0" type="line"/>
    </contour>
  </outline>
</glyph>
<glyph name="multiply" format="2">
  <advance width="901"/>
  <unicode hex="00D7"/>
  <outline>
    <contour>
      <point x="198.61666666666667" y="285.73333333333335" type="line"/>
      <point x="124.30000000000001" y="361.18333333333334" type="line"/>
      <point x="703.3166666666666" y="1051.6833333333334" type="line"/>
      <point x="777.6333333333333" y="975.95" type="line"/>
    </contour>
    <contour>
      <point x="711.8" y="274.98333333333335" type="line"/>
      <point x="114.4" y="983.5833333333334" type="line"/>
      <point x="192.55" y="1062.4333333333334" type="line"/>
      <point x="789.2333333333333" y="354.26666666666665" type="line"/>
    </contour>
  </outline>
</glyph>
<glyph name="Thorn" format="2">
  <advance width="982"/>
  <unicode hex="00DE"/>
  <guideline x="0" y="901.0" angle="0" identifier="i9jYwjBDP4"/>
  <guideline x="0" y="555.0" angle="0" identifier="T8KKW8oxop"/>
  <outline>
    <contour>
      <point x="170.0" y="1456.0" type="line"/>
      <point x="284.7833333333333" y="1456.0" type="line"/>
      <point x="284.7833333333333" y="1167.2833333333333" type="line"/>
      <point x="524.2" y="1167.2833333333333" type="line" smooth="yes"/>
      <point x="715.3333333333334" y="1167.2833333333333"/>
      <point x="904.5" y="956.65"/>
      <point x="904.5" y="743.35" type="qcurve" smooth="yes"/>
      <point x="904.5" y="529.3333333333334"/>
      <point x="714.6166666666667" y="311.8666666666667"/>
      <point x="524.2" y="310.8" type="qcurve" smooth="yes"/>
      <point x="285.85" y="310.8" type="line"/>
      <point x="285.85" y="0.0" type="line"/>
      <point x="170.0" y="0.0" type="line"/>
    </contour>
    <contour>
      <point x="524.2" y="1061.45" type="qcurve" smooth="yes"/>
      <point x="285.85" y="1061.45" type="line"/>
      <point x="285.85" y="417.7" type="line"/>
      <point x="524.2" y="417.7" type="line" smooth="yes"/>
      <point x="676.85" y="417.7"/>
      <point x="787.9333333333334" y="609.2833333333333"/>
      <point x="787.9333333333334" y="744.9166666666666" type="qcurve" smooth="yes"/>
      <point x="787.9333333333334" y="880.9"/>
      <point x="676.85" y="1060.3833333333334"/>
    </contour>
  </outline>
</glyph>
<glyph name="germandbls" format="2">
  <advance width="1177"/>
  <unicode hex="00DF"/>
  <outline>
    <contour>
      <point x="312.3333333333333" y="1092.0" type="qcurve" name="hr00"/>
      <point x="312.3333333333333" y="0.0" type="line"/>
      <point x="201.75" y="0.0" type="line"/>
      <point x="201.75" y="1092.0" type="line" smooth="yes"/>
      <point x="201.75" y="1302.1666666666667"/>
      <point x="391.1166666666667" y="1534.0"/>
      <point x="569.3333333333334" y="1534.0" type="qcurve" smooth="yes"/>
      <point x="724.0166666666667" y="1534.0"/>
      <point x="875.6" y="1366.7333333333333"/>
      <point x="875.6" y="1215.0" type="qcurve" smooth="yes"/>
      <point x="875.6" y="1147.0666666666666"/>
      <point x="838.4166666666666" y="1026.75"/>
      <point x="797.1166666666667" y="975.8666666666667" type="qcurve" smooth="yes"/>
      <point x="765.8333333333334" y="937.8666666666667"/>
      <point x="705.7166666666667" y="848.25"/>
      <point x="705.7166666666667" y="816.3833333333333" type="qcurve" smooth="yes"/>
      <point x="705.7166666666667" y="770.5333333333333"/>
      <point x="816.9833333333333" y="659.5"/>
      <point x="898.7" y="598.2166666666667" type="qcurve" smooth="yes"/>
      <point x="989.6" y="529.9"/>
      <point x="1068.1" y="392.3666666666667"/>
      <point x="1068.1" y="282.0" type="qcurve" smooth="yes"/>
      <point x="1068.1" y="134.6"/>
      <point x="918.9333333333333" y="-20.0"/>
      <point x="753.0" y="-20.0" type="qcurve" smooth="yes"/>
      <point x="608.6333333333333" y="-20.0"/>
      <point x="463.3333333333333" y="143.65"/>
      <point x="463.3333333333333" y="283.73333333333335" type="qcurve" smooth="yes"/>
      <point x="463.3333333333333" y="304.0" type="line"/>
      <point x="576.1666666666666" y="304.0" type="line"/>
      <point x="576.1666666666666" y="289.26666666666665" type="line" smooth="yes"/>
      <point x="576.1666666666666" y="193.4"/>
      <point x="671.3166666666667" y="81.55"/>
      <point x="755.0" y="81.55" type="qcurve" smooth="yes"/>
      <point x="851.15" y="81.55"/>
      <point x="956.1666666666666" y="197.2"/>
      <point x="956.1666666666666" y="302.0" type="qcurve" smooth="yes"/>
      <point x="956.1666666666666" y="355.23333333333335"/>
      <point x="894.9833333333333" y="459.55"/>
      <point x="817.2" y="519.1666666666666" type="qcurve" smooth="yes"/>
      <point x="744.4833333333333" y="574.7333333333333"/>
      <point x="598.8333333333334" y="709.5833333333334"/>
      <point x="598.8333333333334" y="798.4333333333333" type="qcurve" smooth="yes"/>
      <point x="598.8333333333334" y="868.85"/>
      <point x="664.0" y="971.25"/>
      <point x="696.0" y="1015.25" type="qcurve" smooth="yes"/>
      <point x="732.8833333333333" y="1066.0"/>
      <point x="763.6666666666666" y="1161.1833333333334"/>
      <point x="763.6666666666666" y="1208.3" type="qcurve" smooth="yes"/>
      <point x="763.6666666666666" y="1314.5"/>
      <point x="668.1166666666667" y="1432.45"/>
      <point x="565.3333333333334" y="1432.45" type="qcurve" smooth="yes"/>
      <point x="446.56666666666666" y="1432.45"/>
      <point x="312.3333333333333" y="1258.2"/>
    </contour>
  </outline>
</glyph>
<glyph name="ae" format="2">
  <advance width="1347"/>
  <unicode hex="00E6"/>
  <outline>
    <contour>
      <point x="197.23333333333335" y="287.85" type="qcurve" smooth="yes"/>
      <point x="197.23333333333335" y="176.4"/>
      <point x="285.65" y="75.71666666666667"/>
      <point x="371.18333333333334" y="75.71666666666667" type="qcurve" smooth="yes"/>
      <point x="461.33333333333337" y="75.71666666666667"/>
      <point x="614.1833333333334" y="211.15"/>
      <point x="614.1833333333334" y="325.4" type="qcurve" smooth="yes"/>
      <point x="614.1833333333334" y="523.15" type="line"/>
      <point x="435.51666666666665" y="523.15" type="line" smooth="yes"/>
      <point x="320.3333333333333" y="523.15"/>
      <point x="197.23333333333335" y="413.51666666666665"/>
    </contour>
    <contour>
      <point x="90.0" y="301.3666666666667" type="qcurve" smooth="yes"/>
      <point x="90.0" y="450.98333333333335"/>
      <point x="263.41666666666663" y="611.4666666666667"/>
      <point x="418.0" y="611.4666666666667" type="qcurve" smooth="yes"/>
      <point x="614.1833333333334" y="611.4666666666667" type="line"/>
      <point x="614.1833333333334" y="720.0" type="line" smooth="yes"/>
      <point x="614.1833333333334" y="839.35"/>
      <point x="533.9" y="986.2833333333333"/>
      <point x="435.51666666666665" y="986.2833333333333" type="qcurve" smooth="yes"/>
      <point x="337.85" y="986.2833333333333"/>
      <point x="252.56666666666666" y="856.4833333333333"/>
      <point x="252.56666666666666" y="770.0" type="qcurve" smooth="yes"/>
      <point x="252.56666666666666" y="765.0" type="line"/>
      <point x="147.76666666666668" y="765.0" type="line"/>
      <point x="147.76666666666668" y="770.0" type="line" smooth="yes"/>
      <point x="147.76666666666668" y="907.8166666666667"/>
      <point x="301.16666666666663" y="1082.0"/>
      <point x="440.16666666666663" y="1082.0" type="qcurve" smooth="yes"/>
      <point x="501.51666666666665" y="1082.0"/>
      <point x="632.9" y="1043.7166666666667"/>
      <point x="690.3" y="958.0166666666667" type="qcurve"/>
      <point x="767.7166666666667" y="1033.65"/>
      <point x="912.9833333333333" y="1082.0"/>
      <point x="970.25" y="1082.0" type="qcurve" smooth="yes"/>
      <point x="1125.3166666666666" y="1082.0"/>
      <point x="1293.1" y="829.9333333333333"/>
      <point x="1293.1" y="560.0" type="qcurve" smooth="yes"/>
      <point x="1293.1" y="510.5" type="line"/>
      <point x="671.2166666666667" y="510.5" type="line"/>
      <point x="671.2166666666667" y="605.5" type="line"/>
      <point x="1184.5833333333333" y="605.5" type="line"/>
      <point x="1183.8" y="617.7" type="line" smooth="yes"/>
      <point x="1184.5833333333333" y="791.4833333333333"/>
      <point x="1083.2166666666667" y="983.7166666666667"/>
      <point x="972.6" y="983.7166666666667" type="qcurve" smooth="yes"/>
      <point x="851.1500000000001" y="983.7166666666667"/>
      <point x="727.1166666666667" y="782.6833333333334"/>
      <point x="727.1166666666667" y="574.0" type="qcurve" smooth="yes"/>
      <point x="727.1166666666667" y="478.0" type="line" smooth="yes"/>
      <point x="727.1166666666667" y="278.56666666666666"/>
      <point x="848.1166666666667" y="68.28333333333333"/>
      <point x="986.0333333333333" y="68.28333333333333" type="qcurve" smooth="yes"/>
      <point x="1070.0" y="68.28333333333333"/>
      <point x="1170.55" y="147.68333333333334"/>
      <point x="1210.2333333333333" y="209.48333333333332" type="qcurve"/>
      <point x="1299.6833333333334" y="160.21666666666667" type="line"/>
      <point x="1254.6833333333334" y="72.11666666666667"/>
      <point x="1102.1" y="-30.0"/>
      <point x="996.7" y="-30.0" type="qcurve" smooth="yes"/>
      <point x="879.1666666666666" y="-30.0"/>
      <point x="728.4333333333334" y="82.3"/>
      <point x="679.8" y="172.58333333333331" type="qcurve"/>
      <point x="611.3166666666666" y="74.13333333333333"/>
      <point x="440.1166666666667" y="-20.0"/>
      <point x="354.05" y="-20.0" type="qcurve" smooth="yes"/>
      <point x="236.48333333333335" y="-20.0"/>
      <point x="90.0" y="128.23333333333335"/>
    </contour>
  </outline>
</glyph>
<glyph name="eth" format="2">
  <advance width="903"/>
  <unicode hex="00F0"/>
  <outline>
    <contour>
      <point x="188.53333333333333" y="1488.3" type="qcurve"/>
      <point x="220.83333333333334" y="1581.0" type="line"/>
      <point x="530.7666666666667" y="1503.1"/>
      <point x="817.7" y="1017.5833333333334"/>
      <point x="817.7" y="633.0" type="qcurve"/>
      <point x="817.7" y="535.0" type="line"/>
      <point x="817.7" y="291.8666666666667"/>
      <point x="635.85" y="-20.0"/>
      <point x="455.35" y="-20.0" type="qcurve" smooth="yes"/>
      <point x="269.7166666666667" y="-20.0"/>
      <point x="85.0" y="257.8333333333333"/>
      <point x="85.0" y="468.0" type="qcurve" smooth="yes"/>
      <point x="85.0" y="692.9833333333333"/>
      <point x="258.0" y="978.0"/>
      <point x="430.2166666666667" y="978.0" type="qcurve" smooth="yes"/>
      <point x="599.2166666666667" y="978.0"/>
      <point x="774.0166666666667" y="748.0"/>
      <point x="774.0166666666667" y="613.0" type="qcurve"/>
      <point x="706.45" y="614.0" type="line"/>
      <point x="706.45" y="742.1166666666667"/>
      <point x="538.7166666666667" y="879.7166666666667"/>
      <point x="450.56666666666666" y="879.7166666666667" type="qcurve" smooth="yes"/>
      <point x="316.0333333333333" y="879.7166666666667"/>
      <point x="196.15" y="647.7666666666667"/>
      <point x="196.15" y="468.0" type="qcurve" smooth="yes"/>
      <point x="196.15" y="306.3"/>
      <point x="319.7833333333333" y="66.9"/>
      <point x="459.35" y="66.9" type="qcurve" smooth="yes"/>
      <point x="589.5" y="66.9"/>
      <point x="705.8333333333334" y="338.6333333333333"/>
      <point x="705.8333333333334" y="535.0" type="qcurve" smooth="yes"/>
      <point x="705.8333333333334" y="635.0" type="line" smooth="yes"/>
      <point x="705.8333333333334" y="984.75"/>
      <point x="476.2" y="1411.9166666666667"/>
    </contour>
    <contour>
      <point x="717.8166666666666" y="1427.0" type="line"/>
      <point x="329.76666666666665" y="1089.6666666666667" type="line"/>
      <point x="273.2833333333333" y="1171.6833333333334" type="line"/>
      <point x="662.05" y="1508.7333333333333" type="line"/>
    </contour>
  </outline>
</glyph>
